<?xml version="1.0" encoding="UTF-8"?>
<svg width="167px" height="130px" viewBox="0 0 167 130" version="1.1" xmlns="http://www.w3.org/2000/svg" xmlns:xlink="http://www.w3.org/1999/xlink">
    <!-- Generator: Sketch 47 (45396) - http://www.bohemiancoding.com/sketch -->
    <title>Group 4</title>
    <desc>Created with Sketch.</desc>
    <defs>
        <linearGradient x1="50%" y1="0%" x2="50%" y2="100%" id="linearGradient-1">
            <stop stop-color="#26D0CE" offset="0%"></stop>
            <stop stop-color="#1A2980" offset="100%"></stop>
        </linearGradient>
        <filter x="-7.7%" y="-5.8%" width="115.4%" height="116.3%" filterUnits="objectBoundingBox" id="filter-2">
            <feOffset dx="0" dy="2" in="SourceAlpha" result="shadowOffsetOuter1"></feOffset>
            <feGaussianBlur stdDeviation="2" in="shadowOffsetOuter1" result="shadowBlurOuter1"></feGaussianBlur>
            <feColorMatrix values="0 0 0 0 0.309803922   0 0 0 0 0.250980392   0 0 0 0 0.250980392  0 0 0 0.2 0" type="matrix" in="shadowBlurOuter1" result="shadowMatrixOuter1"></feColorMatrix>
            <feMerge>
                <feMergeNode in="shadowMatrixOuter1"></feMergeNode>
                <feMergeNode in="SourceGraphic"></feMergeNode>
            </feMerge>
        </filter>
    </defs>
    <g id="design" stroke="none" stroke-width="1" fill="none" fill-rule="evenodd">
        <g id="Artboard-2" transform="translate(-151.000000, -155.000000)">
            <g id="Group-4" transform="translate(151.000000, 154.000000)">
                <g id="Group-3-Copy" transform="translate(145.575817, 32.475751) rotate(6.000000) translate(-145.575817, -32.475751) translate(125.075817, 1.975751)" fill="url(#linearGradient-1)">
                    <path d="M14.3267897,41.17794 C12.5197858,40.8822202 11.4038325,39.3289128 11.4629764,37.4829984 L11.783599,30.5997299 C11.8162838,28.4269672 13.3306807,27.0612085 15.4902138,27.1732707 C22.9898247,27.6752163 27.5369064,25.5156832 28.3470231,20.5670451 L28.3727041,20.4098466 C29.0925484,16.0106248 26.2155056,12.3950606 20.5602527,11.4689906 C16.3968286,10.7880567 12.7750387,11.7273563 9.17114764,14.040975 C8.28165347,14.5405859 7.18437721,14.8448661 6.0839881,14.6643213 C3.64974686,14.2658777 2.00616709,11.9810528 2.39215931,9.6246326 C2.58515542,8.44642249 3.26219822,7.26665595 4.51589472,6.50323182 C9.3221204,3.25809564 15.0092799,1.52657813 22.2365173,2.7094575 C33.2326262,4.5094575 39.6925484,11.8588738 38.0855445,21.6767727 L38.0598636,21.8339711 C36.4396301,31.7312474 28.5586963,35.0386404 19.5952722,35.10401 L18.6902138,38.6658777 C18.0933266,40.3429205 16.6046107,41.5507026 14.7976068,41.2549828 L14.3267897,41.17794 L14.3267897,41.17794 Z M13.3882683,46.9125703 C16.6085017,47.4394186 18.5789297,50.181831 18.0777624,53.2456443 L17.9493578,54.0308583 C17.4481904,57.0946715 14.705778,59.0658777 11.4855445,58.5382513 C8.26453285,58.011403 6.29410484,55.2689906 6.79527215,52.2051773 L6.92367682,51.4199633 C7.42562235,48.3561501 10.1680348,46.3857221 13.3882683,46.9125703 L13.3882683,46.9125703 Z" id="Fill-19" opacity="0.489696558"></path>
                    <path d="M12.5166729,60.9577065 C12.0513033,60.9577065 11.5804862,60.918796 11.1081126,60.8425314 C8.95169238,60.4900023 7.08865736,59.3748272 5.86219822,57.70401 C4.63262624,56.0277454 4.1454667,53.9413641 4.49177021,51.8285237 L4.62017487,51.0433096 C4.96647838,48.929691 6.09254842,47.1063447 7.79293752,45.9102357 C9.48787915,44.7180178 11.6116146,44.2588738 13.7657002,44.6082902 C15.9221204,44.9615976 17.7851554,46.0759945 19.0108364,47.7468116 C20.2411865,49.422298 20.7283461,51.5094575 20.3820426,53.622298 L20.2536379,54.407512 C19.9073344,56.5211307 18.7812644,58.344477 17.0800971,59.5405859 C15.7571399,60.4713252 14.1734823,60.9577065 12.5166729,60.9577065 L12.5166729,60.9577065 Z M12.3633655,49.163154 C11.66142,49.163154 11.0085017,49.3569283 10.4800971,49.7289128 C9.81394919,50.1973952 9.36959122,50.9320256 9.22873519,51.7973952 L9.09955231,52.581831 C8.95791807,53.4479789 9.1454667,54.285333 9.62640056,54.9421423 C10.1252332,55.6207416 10.9190076,56.0798855 11.8621982,56.2339711 C12.8053889,56.3903914 13.7049998,56.2067338 14.3937157,55.7219089 C15.0590854,55.2534264 15.5042216,54.518796 15.6458558,53.6534264 L15.7742605,52.8682124 C15.9158947,52.0028427 15.7283461,51.1654886 15.246634,50.5086793 C14.7478013,49.8300801 13.9548052,49.3709361 13.0116146,49.2168505 C12.7913811,49.1802746 12.5750387,49.163154 12.3633655,49.163154 L12.3633655,49.163154 Z M15.3228986,43.6324147 C15.0248441,43.6324147 14.7236768,43.6082902 14.4201749,43.559263 L13.9509142,43.4822202 L13.950136,43.4822202 C11.0116146,43.0012863 9.03029161,40.50401 9.12912429,37.407512 L9.45052507,30.4907805 C9.47387137,28.8900023 10.1042216,27.3911696 11.2232877,26.344477 C12.3524706,25.2876676 13.9104472,24.7584847 15.6108364,24.8417532 C21.9657002,25.2674342 25.4684239,23.7008972 26.042743,20.1896131 L26.0692021,20.0308583 C26.5976068,16.8028427 24.3976068,14.4627649 20.183599,13.7732707 C16.7283461,13.2067338 13.7197858,13.8962279 10.4310698,16.0051773 L10.3143383,16.0759945 C8.85208149,16.8985626 7.21784024,17.2168505 5.7065562,16.9686015 C3.92289861,16.6767727 2.35558343,15.7117921 1.29332663,14.2526482 C0.227178766,12.7896131 -0.200836799,11.011403 0.0878791547,9.2472007 C0.405388882,7.30401003 1.55713986,5.59194778 3.25208149,4.54058591 C9.12834608,0.588056726 15.4629764,-0.763694246 22.6139492,0.405955559 C28.6077235,1.38650031 33.4676457,3.90089719 36.6676457,7.67599447 C39.9991632,11.6059556 41.2855445,16.5771618 40.3890465,22.0534264 L40.3633655,22.211403 C38.8544161,31.4355275 32.1555834,36.7748272 21.4256223,37.381831 L20.9524706,39.2417532 C20.9345718,39.3125703 20.9135601,39.381831 20.8894356,39.4495353 C19.9765951,42.011403 17.7641437,43.6324147 15.3228986,43.6324147 L15.3228986,43.6324147 Z M14.7034434,38.8736598 L15.1734823,38.9507026 C15.9120037,39.074438 16.3439103,38.2425314 16.4598636,37.9615976 L17.3330153,34.5289128 C17.5944939,33.500119 18.5174511,32.7771618 19.5781515,32.7693797 C29.0956613,32.700119 34.5384628,28.8938933 35.7548052,21.4573174 L35.7812644,21.2993408 C36.4497469,17.2152941 35.5252332,13.548368 33.1065562,10.6954497 C30.6326262,7.77793999 26.7439103,5.81295945 21.8598636,5.01373766 C15.920564,4.04253143 10.6769842,5.16159758 5.8225095,8.43864038 L5.7299025,8.49778435 C4.96881301,8.96159758 4.75558343,9.63864038 4.69643947,10.0012863 C4.61083635,10.5242435 4.74235386,11.0580956 5.06764569,11.50401 C5.40227604,11.9639322 5.89721768,12.2682124 6.4606418,12.3600412 C6.90733441,12.4355275 7.45675075,12.3141268 7.9758169,12.0339711 C12.1672566,9.36081937 16.4053889,8.4246326 20.9369064,9.16471042 C27.7182293,10.2752163 31.631848,14.9452552 30.6769842,20.7865003 L30.6505251,20.9452552 C30.0715367,24.485333 27.3018869,30.3016754 15.3345718,29.5024536 C14.93535,29.4829984 14.6077235,29.5717143 14.413171,29.7538155 C14.1765951,29.9756054 14.1221204,30.3553719 14.1182293,30.6339711 L13.7952722,37.5919478 C13.78749,37.8300801 13.8271788,38.7304692 14.7034434,38.8736598 L14.7034434,38.8736598 Z" id="Fill-20"></path>
                </g>
                <g id="Imported-Layers-Copy" transform="translate(0.000000, 4.000000)">
                    <g id="Group-8" transform="translate(13.000000, 97.000000)">
                        <path d="M3.18951613,2.49677419 L11.1733871,10.4798387" id="Fill-11" fill="#E6E6E6"></path>
                        <path d="M11.1733871,12.8991935 C10.5540323,12.8991935 9.93548387,12.6629032 9.46290323,12.1903226 L1.47903226,4.20725806 C0.533870968,3.26290323 0.533870968,1.73064516 1.47903226,0.786290323 C2.42419355,-0.158870968 3.95483871,-0.158870968 4.9,0.786290323 L12.883871,8.76935484 C13.8290323,9.71370968 13.8290323,11.2459677 12.883871,12.1903226 C12.4112903,12.6629032 11.7919355,12.8991935 11.1733871,12.8991935" id="Fill-12" fill="#CCCCCC"></path>
                        <path d="M11.1733871,2.49677419 L3.18951613,10.4798387" id="Fill-13" fill="#E6E6E6"></path>
                        <path d="M3.18951613,12.8991935 C2.57096774,12.8991935 1.9516129,12.6629032 1.47903226,12.1903226 C0.533870968,11.2459677 0.533870968,9.71370968 1.47903226,8.76935484 L9.46290323,0.786290323 C10.4072581,-0.158870968 11.9387097,-0.158870968 12.883871,0.786290323 C13.8290323,1.73064516 13.8290323,3.26290323 12.883871,4.20725806 L4.9,12.1903226 C4.42741935,12.6629032 3.80887097,12.8991935 3.18951613,12.8991935" id="Fill-14" fill="#CCCCCC"></path>
                    </g>
                    <g id="Group-9" transform="translate(94.000000, 13.000000)" fill="#26D0CE">
                        <path d="M8.12903226,16.8387097 C6.79274194,16.8387097 5.70967742,15.7556452 5.70967742,14.4193548 L5.70967742,3.12903226 C5.70967742,1.79274194 6.79274194,0.709677419 8.12903226,0.709677419 C9.46532258,0.709677419 10.5483871,1.79274194 10.5483871,3.12903226 L10.5483871,14.4193548 C10.5483871,15.7556452 9.46532258,16.8387097 8.12903226,16.8387097" id="Fill-15"></path>
                        <path d="M13.7741935,11.1935484 L2.48387097,11.1935484 C1.14758065,11.1935484 0.064516129,10.1104839 0.064516129,8.77419355 C0.064516129,7.43790323 1.14758065,6.35483871 2.48387097,6.35483871 L13.7741935,6.35483871 C15.1104839,6.35483871 16.1935484,7.43790323 16.1935484,8.77419355 C16.1935484,10.1104839 15.1104839,11.1935484 13.7741935,11.1935484" id="Fill-16"></path>
                    </g>
                    <g id="Group-10" transform="translate(78.000000, 104.000000)" fill="#26D0CE">
                        <path d="M8.77419355,16.6774194 C7.43790323,16.6774194 6.35483871,15.5943548 6.35483871,14.2580645 L6.35483871,2.96774194 C6.35483871,1.63145161 7.43790323,0.548387097 8.77419355,0.548387097 C10.1104839,0.548387097 11.1935484,1.63145161 11.1935484,2.96774194 L11.1935484,14.2580645 C11.1935484,15.5943548 10.1104839,16.6774194 8.77419355,16.6774194" id="Fill-17"></path>
                        <path d="M14.4193548,11.0322581 L3.12903226,11.0322581 C1.79274194,11.0322581 0.709677419,9.94919355 0.709677419,8.61290323 C0.709677419,7.2766129 1.79274194,6.19354839 3.12903226,6.19354839 L14.4193548,6.19354839 C15.7556452,6.19354839 16.8387097,7.2766129 16.8387097,8.61290323 C16.8387097,9.94919355 15.7556452,11.0322581 14.4193548,11.0322581" id="Fill-18"></path>
                    </g>
                    <g id="Group-11" transform="translate(39.000000, 0.000000)">
                        <path d="M8.58064516,2.41935484 L8.58064516,13.7096774" id="Fill-19" fill="#E6E6E6"></path>
                        <path d="M8.58064516,16.1290323 C7.24435484,16.1290323 6.16129032,15.0459677 6.16129032,13.7096774 L6.16129032,2.41935484 C6.16129032,1.08306452 7.24435484,0 8.58064516,0 C9.91693548,0 11,1.08306452 11,2.41935484 L11,13.7096774 C11,15.0459677 9.91693548,16.1290323 8.58064516,16.1290323" id="Fill-20" fill="#CCCCCC"></path>
                        <path d="M14.2258065,8.06451613 L2.93548387,8.06451613" id="Fill-21" fill="#E6E6E6"></path>
                        <path d="M14.2258065,10.483871 L2.93548387,10.483871 C1.59919355,10.483871 0.516129032,9.40080645 0.516129032,8.06451613 C0.516129032,6.72822581 1.59919355,5.64516129 2.93548387,5.64516129 L14.2258065,5.64516129 C15.5620968,5.64516129 16.6451613,6.72822581 16.6451613,8.06451613 C16.6451613,9.40080645 15.5620968,10.483871 14.2258065,10.483871" id="Fill-22" fill="#CCCCCC"></path>
                    </g>
                    <g id="Group-12" transform="translate(0.000000, 40.000000)" fill="#26D0CE">
                        <path d="M8.06451613,16.7096774 C6.72822581,16.7096774 5.64516129,15.6266129 5.64516129,14.2903226 L5.64516129,3 C5.64516129,1.66370968 6.72822581,0.580645161 8.06451613,0.580645161 C9.40080645,0.580645161 10.483871,1.66370968 10.483871,3 L10.483871,14.2903226 C10.483871,15.6266129 9.40080645,16.7096774 8.06451613,16.7096774" id="Fill-23"></path>
                        <path d="M13.7096774,11.0645161 L2.41935484,11.0645161 C1.08306452,11.0645161 0,9.98145161 0,8.64516129 C0,7.30887097 1.08306452,6.22580645 2.41935484,6.22580645 L13.7096774,6.22580645 C15.0459677,6.22580645 16.1290323,7.30887097 16.1290323,8.64516129 C16.1290323,9.98145161 15.0459677,11.0645161 13.7096774,11.0645161" id="Fill-24"></path>
                    </g>
                    <g id="Group-7" transform="translate(109.000000, 68.000000)">
                        <path d="M2.5766129,2.75483871 L10.5604839,10.7379032" id="Fill-25" fill="#F2F2F2"></path>
                        <path d="M10.5604839,13.1572581 C9.94112903,13.1572581 9.32258065,12.9209677 8.85,12.4483871 L0.866129032,4.46532258 C-0.0790322581,3.52096774 -0.0790322581,1.98870968 0.866129032,1.04435484 C1.81129032,0.0991935484 3.34193548,0.0991935484 4.28709677,1.04435484 L12.2709677,9.02741935 C13.216129,9.97177419 13.216129,11.5040323 12.2709677,12.4483871 C11.7983871,12.9209677 11.1790323,13.1572581 10.5604839,13.1572581" id="Fill-26" fill="#E6E6E6"></path>
                        <path d="M10.5604839,2.75483871 L2.5766129,10.7379032" id="Fill-27" fill="#F2F2F2"></path>
                        <path d="M2.5766129,13.1572581 C1.95806452,13.1572581 1.33870968,12.9209677 0.866129032,12.4483871 C-0.0790322581,11.5040323 -0.0790322581,9.97177419 0.866129032,9.02741935 L8.85,1.04435484 C9.79435484,0.0991935484 11.3258065,0.0991935484 12.2709677,1.04435484 C13.216129,1.98870968 13.216129,3.52096774 12.2709677,4.46532258 L4.28709677,12.4483871 C3.81451613,12.9209677 3.19596774,13.1572581 2.5766129,13.1572581" id="Fill-28" fill="#E6E6E6"></path>
                    </g>
                </g>
                <g id="run2" filter="url(#filter-2)" transform="translate(15.000000, 39.000000)" fill-rule="nonzero" fill="#54698D">
                    <g id="Group">
                        <path d="M81.2672326,12.4481358 C80.9201628,12.7458437 80.5910814,13.0931695 80.2948023,13.5080602 C78.4335349,16.0839723 76.3881512,17.9599541 74.2020349,19.1993478 C73.9597209,19.3365891 73.7131744,19.4590504 73.467686,19.5804561 C73.4211279,19.6036816 73.3735116,19.6247956 73.3269535,19.648021 C72.9756512,19.8169333 72.6222326,19.9752885 72.2645814,20.1125298 C67.8923488,21.7837055 63.0291395,21.0753297 57.9490116,18.2692747 C57.7077558,18.1362563 57.4686163,18.0159063 57.2263023,17.8733866 C56.6305698,17.4764427 54.0444767,15.8876118 53.4487442,15.6891399 C46.4904186,11.5835161 39.5342093,10.2776132 33.1483372,11.5940732 C29.3104651,12.3847937 25.6789302,14.1256457 22.3775349,16.7796797 C21.7257209,17.3033077 21.0866047,17.8596624 20.4612442,18.4540225 C19.4253256,19.4389921 18.4285581,20.5231977 17.4730581,21.7013607 C17.2508488,21.9758432 17.0286395,22.2513813 16.8117209,22.5364208 C16.4921628,22.9544786 16.1757791,23.3820378 15.8668023,23.8222654 C11.8913721,29.3784231 21.2368605,34.7350533 25.0165349,29.1820626 C29.9845,22.2376572 36.1513372,20.2529381 42.913907,22.4350734 C39.5331512,28.5855912 36.3513256,34.5355257 32.1737907,42.8702902 C27.7973256,51.4003596 18.4539535,58.1452374 9.30316279,52.9860234 C2.74481395,49.0197523 -3.02310465,58.5421812 3.34054651,62.3120918 C15.8657442,69.4528578 30.3834186,65.0896428 37.7396047,55.7646302 C37.9385349,55.7646302 38.3353372,55.9609907 38.5342674,55.9609907 C44.6989884,58.1452374 52.6540814,63.6982281 55.0412442,65.6861143 C57.4252326,67.6676663 61.6006512,77.7865666 63.9888721,82.9426134 C64.8512558,84.610622 66.1834535,85.4995228 67.6045349,85.7908965 C67.6722558,85.8046206 67.7389186,85.8204561 67.8066395,85.8320689 C67.871186,85.8426259 67.9367907,85.8479044 68.0013372,85.85635 C68.1357209,85.8732412 68.2711628,85.8859096 68.4066047,85.8932995 C68.4383488,85.8954109 68.470093,85.8954109 68.5028953,85.8964667 C68.6721977,85.9017452 68.8415,85.8996338 69.0108023,85.8901324 C69.0245581,85.8890767 69.038314,85.8890767 69.0531279,85.888021 C69.2298372,85.8764083 69.4065465,85.8574057 69.5821977,85.8289017 C69.6012442,85.8257346 69.6202907,85.8236232 69.6382791,85.8204561 C69.7737209,85.7972307 69.9070465,85.7687268 70.039314,85.7370557 C71.0128023,85.5037456 71.9249186,85.0276242 72.6550349,84.3635879 C74.1607674,82.9953985 74.8877093,80.8386 73.7332791,78.3798709 C70.9471977,72.6273526 66.1760465,61.1202046 62.5974186,58.1452374 C60.4134186,56.5458494 56.7363837,53.7809668 53.0508837,51.4014153 C52.6540814,51.1448798 52.2572791,50.8915114 51.8615349,50.6465886 C50.9134419,50.0585628 49.9759302,49.5074865 49.0733372,49.0197523 C52.454093,42.6707626 55.835907,36.5223562 59.4145349,30.3718384 C60.0282558,30.5544748 60.6409186,30.7054401 61.2514651,30.8447927 C61.5456279,30.9123576 61.8387326,30.9672541 62.1328953,31.024262 C62.4429302,31.084437 62.7529651,31.1403892 63.0619419,31.1900072 C63.4090116,31.2459594 63.7560814,31.296633 64.102093,31.3378054 C64.3264186,31.3652536 64.549686,31.3821449 64.7729535,31.4032589 C66.1485349,31.5331102 67.5103605,31.5510571 68.8552558,31.4602668 C68.9462558,31.4539326 69.0372558,31.4497098 69.1271977,31.4423199 C69.6033605,31.4043146 70.077407,31.3525852 70.5493372,31.2871317 C70.5821395,31.2829089 70.616,31.2765747 70.6488023,31.2723519 C74.150186,30.7708936 77.5066047,29.5051073 80.6270581,27.4876615 C80.7053605,27.4369878 80.7857791,27.3894812 80.8640814,27.3377519 C81.1899884,27.1223887 81.5127209,26.8964686 81.8343953,26.6642142 C82.1148023,26.4615195 82.393093,26.2556577 82.6682093,26.0402945 C82.8512674,25.8967191 83.0364419,25.7594779 83.2184419,25.610624 C83.4046744,25.4575472 83.5856163,25.288635 83.7697326,25.1302797 C85.7960698,23.3862606 87.7017791,21.3096954 89.4403023,18.8636347 C93.1183953,13.7244791 85.5675116,8.76056993 81.2672326,12.4481358 Z" id="Shape"></path>
                        <path d="M61.2015988,15.1908487 C63.16064,15.1908487 64.9524276,14.4433092 66.2927058,13.2056412 C67.7499864,11.8602198 68.6732558,9.93562363 68.6732558,7.73790244 C68.6732558,3.66123065 65.2899347,0.286452785 61.2015988,0.286452785 C59.3888107,0.286452785 57.7177756,0.953177192 56.4157482,2.04792221 C56.0917414,2.32104724 55.7909851,2.62036235 55.5164793,2.94362267 C54.409456,4.2456434 53.7344419,5.92105973 53.7344419,7.73865073 C53.7344419,11.9582455 57.1155129,15.1908487 61.2015988,15.1908487 Z" id="Shape"></path>
                    </g>
                </g>
            </g>
        </g>
    </g>
</svg>