<?xml version="1.0" encoding="UTF-8"?>
<svg width="12px" height="12px" viewBox="0 0 12 12" version="1.1" xmlns="http://www.w3.org/2000/svg" xmlns:xlink="http://www.w3.org/1999/xlink">
    <!-- Generator: Sketch 46.2 (44496) - http://www.bohemiancoding.com/sketch -->
    <title>Fill 213</title>
    <desc>Created with Sketch.</desc>
    <defs></defs>
    <g id="Symbols" stroke="none" stroke-width="1" fill="none" fill-rule="evenodd">
        <g id="tab_diary" transform="translate(-635.000000, -13.000000)" fill="#FFFFFF">
            <g id="Group-9">
                <path d="M641.502928,15.6570372 L638.875732,15.6570372 L638.875732,13.9055731 C638.862158,13.4729614 638.884927,13.4536953 639.313598,13.4677071 L641.065062,13.4677071 C641.494171,13.4707721 641.50468,13.4532575 641.502928,13.9055731 L641.502928,15.6570372 L641.502928,15.6570372 Z M641.502928,22.2250276 C640.603551,22.2245898 639.13057,22.2250276 638.875732,22.2250276 L638.875732,16.5327693 L641.502928,16.5327693 L641.502928,22.2250276 L641.502928,22.2250276 Z M640.18933,25.4026214 L638.875732,23.1007597 L641.502928,23.1007597 L640.18933,25.4026214 L640.18933,25.4026214 Z M641.502928,12.591975 L638.875732,12.591975 C638.345914,12.591975 638,12.9330726 638,13.4677071 L638,23.1940252 L639.751464,26.286235 C640.015935,26.6938883 640.362725,26.6938883 640.627196,26.286235 L642.37866,23.1940252 L642.37866,13.4677071 C642.37866,12.9330726 642.032746,12.5924129 641.502928,12.591975 L641.502928,12.591975 Z" id="Fill-213" transform="translate(640.189330, 19.591975) rotate(-315.000000) translate(-640.189330, -19.591975) "></path>
            </g>
        </g>
    </g>
</svg>