<?xml version="1.0" encoding="UTF-8"?>
<svg width="210px" height="235px" viewBox="0 0 210 235" version="1.1" xmlns="http://www.w3.org/2000/svg" xmlns:xlink="http://www.w3.org/1999/xlink">
    <!-- Generator: Sketch 47 (45396) - http://www.bohemiancoding.com/sketch -->
    <title>Imported Layers</title>
    <desc>Created with Sketch.</desc>
    <defs>
        <filter x="-2.2%" y="-1.4%" width="104.4%" height="104.4%" filterUnits="objectBoundingBox" id="filter-1">
            <feOffset dx="0" dy="4" in="SourceAlpha" result="shadowOffsetOuter1"></feOffset>
            <feGaussianBlur stdDeviation="3" in="shadowOffsetOuter1" result="shadowBlurOuter1"></feGaussianBlur>
            <feColorMatrix values="0 0 0 0 0   0 0 0 0 0   0 0 0 0 0  0 0 0 0.1 0" type="matrix" in="shadowBlurOuter1" result="shadowMatrixOuter1"></feColorMatrix>
            <feMerge>
                <feMergeNode in="shadowMatrixOuter1"></feMergeNode>
                <feMergeNode in="SourceGraphic"></feMergeNode>
            </feMerge>
        </filter>
        <linearGradient x1="50%" y1="0%" x2="50%" y2="100%" id="linearGradient-2">
            <stop stop-color="#26D0CE" offset="0%"></stop>
            <stop stop-color="#1A2980" offset="100%"></stop>
        </linearGradient>
    </defs>
    <g id="Page-1" stroke="none" stroke-width="1" fill="none" fill-rule="evenodd">
        <g id="messages" transform="translate(-330.000000, -150.000000)">
            <g id="new-msg" filter="url(#filter-1)" transform="translate(187.000000, 103.500000)">
                <g id="Imported-Layers" transform="translate(149.000000, 48.000000)">
                    <path d="M162.894776,208.663869 C162.894776,213.333333 162.423134,220.847739 109.935821,220.847739 C56.9761194,220.847739 56.9761194,213.333333 56.9761194,208.663869 C56.9761194,203.995152 80.6873134,200.21035 109.935821,200.21035 C139.184328,200.21035 162.894776,203.995152 162.894776,208.663869" id="Fill-1" fill="#F2F2F2"></path>
                    <path d="M162.894776,208.663869 L160.65597,208.663869 C160.657463,209.229277 160.64403,209.71338 160.56791,210.138555 C160.5,210.512261 160.396269,210.838228 160.201493,211.186573 C160.029851,211.491655 159.782836,211.820606 159.376119,212.193566 C158.668657,212.843263 157.444776,213.617529 155.412687,214.373893 C152.369403,215.512914 147.551493,216.594499 140.227612,217.363543 C132.901493,218.136317 123.067164,218.609977 109.935821,218.609977 C96.7492537,218.609977 86.8873134,218.140793 79.5507463,217.374732 C74.05,216.801119 69.969403,216.058182 66.9940299,215.242145 C64.7619403,214.631235 63.1559701,213.978555 62.038806,213.357949 C61.1992537,212.892494 60.6365672,212.449417 60.2567164,212.060047 C59.6910448,211.468531 59.4940299,211.020979 59.358209,210.510769 C59.2283582,210.001305 59.2119403,209.403823 59.2149254,208.663869 L58.4164179,208.663869 L59.1791045,208.906294 C59.1992537,208.845128 59.2156716,208.755618 59.2149254,208.663869 L58.4164179,208.663869 L59.1791045,208.906294 L58.791791,208.783217 L59.138806,209.00028 L59.1791045,208.906294 L58.791791,208.783217 L59.138806,209.00028 L59.191791,208.936876 C59.3395522,208.763823 59.880597,208.359534 60.7455224,207.961958 C62.2604478,207.247366 64.7126866,206.491748 67.8291045,205.823403 C72.5119403,204.814172 78.7179104,203.964569 85.9044776,203.3738 C93.0925373,202.78303 101.26791,202.448112 109.935821,202.448112 C124.460448,202.44662 137.616418,203.391702 147.030597,204.896224 C151.730597,205.643636 155.508209,206.544709 157.942537,207.467413 C159.155224,207.920186 160.027612,208.393846 160.441791,208.724289 C160.545522,208.805594 160.620149,208.874219 160.667164,208.92345 L160.729104,208.995804 L160.73209,209.00028 L161.269403,208.663869 L160.65597,208.663869 C160.652985,208.849604 160.728358,209.00028 160.73209,209.00028 L161.269403,208.663869 L160.65597,208.663869 L165.133582,208.663869 C165.137313,207.891841 164.873881,207.162331 164.510448,206.599161 C164.168657,206.064336 163.748507,205.641399 163.289552,205.26993 C162.424627,204.579207 161.397761,204.04289 160.176866,203.537156 C158.042537,202.662191 155.297015,201.911795 151.976119,201.238228 C146.999254,200.231981 140.745522,199.42042 133.6,198.854266 C126.45597,198.289604 118.426866,197.972587 109.935821,197.972587 C95.211194,197.974079 81.8880597,198.921399 72.1343284,200.476643 C67.2507463,201.259114 63.2723881,202.17958 60.3470149,203.279814 C58.880597,203.838508 57.6716418,204.426294 56.6746269,205.196084 C56.1783582,205.585455 55.7261194,206.028531 55.3604478,206.599161 C54.9970149,207.162331 54.7343284,207.891841 54.7373134,208.663869 C54.738806,209.247925 54.7313433,210.006527 54.8686567,210.878508 C54.9880597,211.640093 55.2298507,212.492681 55.6843284,213.338555 C56.0798507,214.079254 56.6328358,214.805781 57.3477612,215.475618 C58.6044776,216.652681 60.3276119,217.666387 62.7104478,218.564476 C66.2902985,219.908625 71.4022388,221.015571 78.9753731,221.814452 C86.5470149,222.61035 96.5776119,223.084755 109.935821,223.085501 C123.111194,223.084755 133.050746,222.614825 140.587313,221.826387 C146.240299,221.23338 150.541045,220.464336 153.862687,219.558788 C156.353731,218.879254 158.297015,218.123636 159.846269,217.278508 C161.006716,216.645221 161.947761,215.956737 162.7,215.208578 C163.832836,214.091935 164.50597,212.812681 164.816418,211.637855 C165.132836,210.46303 165.131343,209.425455 165.133582,208.663869 L162.894776,208.663869" id="Fill-2" fill="#E6E6E6"></path>
                    <path d="M195.258955,200.58331 C195.258955,206.556643 157.058209,211.399161 109.935821,211.399161 C62.8126866,211.399161 24.6119403,206.556643 24.6119403,200.58331 C24.6119403,194.609977 62.8126866,189.767459 109.935821,189.767459 C157.058209,189.767459 195.258955,194.609977 195.258955,200.58331" id="Fill-3" fill="#E6E6E6"></path>
                    <path d="M195.258955,200.58331 L193.020149,200.58331 L193.754478,200.58331 L193.069403,200.309557 C193.046269,200.363263 193.019403,200.470676 193.020149,200.58331 L193.754478,200.58331 L193.069403,200.309557 L193.364925,200.427413 L193.090299,200.264802 L193.069403,200.309557 L193.364925,200.427413 L193.090299,200.264802 L193.08806,200.267786 C193.071642,200.297622 192.908955,200.48634 192.570896,200.714592 C191.940299,201.154685 190.746269,201.721585 189.128358,202.263124 C186.289552,203.224615 182.15,204.164476 177.021642,204.999907 C169.323134,206.258275 159.377612,207.301818 147.950746,208.026853 C136.521642,208.752634 123.60597,209.161399 109.935821,209.161399 C86.4537313,209.162145 65.188806,207.952261 49.8843284,206.011375 C42.2395522,205.044662 36.0701493,203.884009 31.9604478,202.650256 C29.9119403,202.040093 28.3746269,201.394126 27.5253731,200.860793 C27.1,200.601212 26.8597015,200.370723 26.8,200.290163 L26.780597,200.264056 L26.2485075,200.58331 L26.8507463,200.58331 C26.8537313,200.410256 26.7865672,200.266294 26.780597,200.264056 L26.2485075,200.58331 L26.8507463,200.58331 L26.1164179,200.58331 L26.8022388,200.857063 C26.8246269,200.804103 26.8522388,200.695944 26.8507463,200.58331 L26.1164179,200.58331 L26.8022388,200.857063 L26.5059701,200.739207 L26.7813433,200.902564 L26.8022388,200.857063 L26.5059701,200.739207 L26.7813433,200.902564 L26.7671642,200.894359 L26.780597,200.902564 L26.7813433,200.902564 L26.7671642,200.894359 L26.780597,200.902564 C26.7813433,200.893613 26.9223881,200.716084 27.2425373,200.492308 C27.8395522,200.061911 29.0104478,199.492028 30.6104478,198.948998 C33.4186567,197.983776 37.5440299,197.037949 42.6679104,196.19655 C50.361194,194.929977 60.3253731,193.878974 71.7858209,193.148718 C83.2477612,192.417716 96.211194,192.005221 109.935821,192.005221 C133.41791,192.004476 154.682836,193.214359 169.986567,195.155245 C177.63209,196.122704 183.801493,197.282611 187.911194,198.51711 C189.959701,199.126527 191.496269,199.77324 192.346269,200.305828 C192.771642,200.566154 193.011194,200.795897 193.070896,200.876457 L193.090299,200.902564 L193.622388,200.58331 L193.020149,200.58331 C193.017164,200.756364 193.085075,200.900326 193.090299,200.902564 L193.622388,200.58331 L193.020149,200.58331 L197.497761,200.58331 C197.498507,200.097716 197.397015,199.618089 197.226866,199.195897 C196.891791,198.371655 196.354478,197.767459 195.763433,197.263217 C194.64403,196.327832 193.235075,195.646807 191.458955,194.980699 C188.359701,193.836457 184.126866,192.837669 178.862687,191.936597 C170.973881,190.59021 160.797761,189.492214 149.057463,188.726154 C137.319403,187.960839 124.024627,187.529697 109.935821,187.529697 C86.2947761,187.530443 64.8977612,188.741818 49.3208955,190.715524 C41.5261194,191.705361 35.2,192.876457 30.6746269,194.230303 C28.4052239,194.914312 26.5895522,195.625921 25.1664179,196.501632 C24.4552239,196.945455 23.8283582,197.431795 23.3052239,198.078508 C23.0455224,198.402984 22.8141791,198.772214 22.6440299,199.195897 C22.4746269,199.618089 22.3723881,200.097716 22.3731343,200.58331 C22.3723881,201.068904 22.4746269,201.548531 22.6440299,201.970723 C22.9798507,202.794965 23.5164179,203.399161 24.1074627,203.904149 C25.2276119,204.838788 26.6365672,205.519814 28.4119403,206.185921 C31.511194,207.330163 35.7447761,208.328951 41.0089552,209.230769 C48.8970149,210.57641 59.0731343,211.674406 70.8134328,212.440466 C82.5514925,213.205781 95.8470149,213.636923 109.935821,213.636923 C133.576119,213.636177 154.973134,212.424802 170.55,210.451096 C178.345522,209.461259 184.671642,208.290163 189.197015,206.937063 C191.465672,206.252308 193.281343,205.540699 194.705224,204.664988 C195.416418,204.221166 196.043284,203.734825 196.565672,203.088112 C196.825373,202.763636 197.057463,202.394406 197.226866,201.970723 C197.397015,201.548531 197.498507,201.068904 197.497761,200.58331 L195.258955,200.58331" id="Fill-4" fill="#CCCCCC"></path>
                    <path d="M30.7865672,15.9179487 C28.5559701,11.5058275 30.3261194,6.12177156 34.7410448,3.89221445 C39.1552239,1.66265734 44.541791,3.43272727 46.7723881,7.84484848" id="Fill-15" fill="#F2F2F2"></path>
                    <path d="M32.7843284,14.9087179 C32.2910448,13.9315618 32.061194,12.9059207 32.061194,11.8884848 C32.0604478,10.6644289 32.3992537,9.45454545 33.0291045,8.40951049 C33.661194,7.3637296 34.5738806,6.48428904 35.7507463,5.88979021 C36.7283582,5.3967366 37.7544776,5.16699301 38.7723881,5.16624709 C39.9970149,5.16624709 41.2074627,5.50414918 42.2529851,6.13445221 C43.2992537,6.76550117 44.1791045,7.67850816 44.7738806,8.85407925 C45.3313433,9.95729604 46.6783582,10.399627 47.7820896,9.84242424 C48.8850746,9.28522145 49.3283582,7.9388345 48.7701493,6.83561772 C47.7895522,4.89324009 46.3052239,3.34843823 44.5634328,2.30041958 C42.8208955,1.25165501 40.8186567,0.691468531 38.7723881,0.690722611 C37.0738806,0.68997669 35.3432836,1.08009324 33.7313433,1.89538462 C31.7880597,2.87552448 30.241791,4.35916084 29.1940299,6.10013986 C28.1447761,7.8418648 27.5835821,9.84317016 27.5835821,11.8884848 C27.5828358,13.5862005 27.9731343,15.3159907 28.7880597,16.9271795 C29.3455224,18.0303963 30.6925373,18.4727273 31.7962687,17.9155245 C32.8992537,17.3583217 33.341791,16.0119347 32.7843284,14.9087179" id="Fill-16" fill="#E6E6E6"></path>
                    <path d="M12.0358209,94.070303 C9.14402985,94.7901166 6.19626866,93.1117949 5.32014925,90.2638695 C-4.05597015,59.7922611 9.68208955,26.7793007 38.861194,12.0436364 C68.2402985,-2.79272727 103.25597,5.957669 122.145522,31.9917949 C123.809701,34.2855012 123.547761,37.4280653 121.51194,39.3987879 C116.820149,43.9414452 104.376866,52.7328671 71.6268657,68.6799068 C34.9067164,86.560373 18.9544776,92.3494639 12.0358209,94.070303" id="Fill-17" fill="#E6E6E6"></path>
                    <path d="M12.0358209,94.070303 L11.4955224,91.8989277 C11.2216418,91.9668065 10.9507463,91.9988811 10.6843284,91.9988811 C9.96641791,91.999627 9.27014925,91.764662 8.69701493,91.3454545 C8.12462687,90.9247552 7.68507463,90.3354779 7.45970149,89.6067133 C5.55522388,83.4170629 4.63880597,77.1244755 4.63880597,70.9102098 C4.63880597,59.2313287 7.87761194,47.8254545 13.9007463,37.9352914 C19.9238806,28.0451282 28.7238806,19.6714219 39.8708955,14.0412121 C49.2208955,9.32027972 59.1440299,7.07356643 68.911194,7.07282051 C88.8343284,7.07505828 108.085821,16.4266667 120.333582,33.3053613 C120.783582,33.9274592 120.996269,34.6308625 120.997761,35.3372494 C120.995522,36.2383217 120.65,37.1162704 119.954478,37.7913287 C117.8,39.8813986 113.629104,43.1500233 105.923881,47.8530536 C98.2179104,52.5605594 86.9761194,58.7173893 70.6470149,66.6681585 C52.3156716,75.5938462 39.1843284,81.4940793 29.8014925,85.3668998 C20.4208955,89.2397203 14.7783582,91.0836364 11.4955224,91.8989277 L12.5768657,96.2424242 C16.211194,95.3361305 22.0044776,93.4258275 31.5104478,89.5030303 C41.0126866,85.580979 54.2179104,79.6456876 72.6074627,70.691655 C89.0283582,62.6953846 100.382836,56.4826107 108.258955,51.6721678 C116.135821,46.8579953 120.53209,43.4588345 123.069403,41.0062471 C124.655224,39.472634 125.477612,37.4049417 125.475373,35.3372494 C125.476119,33.7141259 124.970896,32.0731002 123.958209,30.6782284 C110.853731,12.6179953 90.2320896,2.59505828 68.911194,2.59729604 C58.4574627,2.59655012 47.8313433,5.00662005 37.8514925,10.0468065 C25.9522388,16.0551981 16.5208955,25.0219114 10.0753731,35.6087646 C3.62910448,46.1948718 0.16119403,58.4033566 0.16119403,70.9102098 C0.16119403,77.5645688 1.14328358,84.3039627 3.17985075,90.9217716 C3.69402985,92.5948718 4.73134328,93.9919814 6.05298507,94.9572028 C7.37462687,95.9239161 8.99029851,96.4744056 10.6843284,96.4744056 C11.3104478,96.4744056 11.9470149,96.3990676 12.5768657,96.2424242 L12.0358209,94.070303" id="Fill-18" fill="#CCCCCC"></path>
                    <g id="Group-3" transform="translate(93.000000, 91.500000)" fill="url(#linearGradient-2)">
                        <path d="M14.3267897,41.17794 C12.5197858,40.8822202 11.4038325,39.3289128 11.4629764,37.4829984 L11.783599,30.5997299 C11.8162838,28.4269672 13.3306807,27.0612085 15.4902138,27.1732707 C22.9898247,27.6752163 27.5369064,25.5156832 28.3470231,20.5670451 L28.3727041,20.4098466 C29.0925484,16.0106248 26.2155056,12.3950606 20.5602527,11.4689906 C16.3968286,10.7880567 12.7750387,11.7273563 9.17114764,14.040975 C8.28165347,14.5405859 7.18437721,14.8448661 6.0839881,14.6643213 C3.64974686,14.2658777 2.00616709,11.9810528 2.39215931,9.6246326 C2.58515542,8.44642249 3.26219822,7.26665595 4.51589472,6.50323182 C9.3221204,3.25809564 15.0092799,1.52657813 22.2365173,2.7094575 C33.2326262,4.5094575 39.6925484,11.8588738 38.0855445,21.6767727 L38.0598636,21.8339711 C36.4396301,31.7312474 28.5586963,35.0386404 19.5952722,35.10401 L18.6902138,38.6658777 C18.0933266,40.3429205 16.6046107,41.5507026 14.7976068,41.2549828 L14.3267897,41.17794 L14.3267897,41.17794 Z M13.3882683,46.9125703 C16.6085017,47.4394186 18.5789297,50.181831 18.0777624,53.2456443 L17.9493578,54.0308583 C17.4481904,57.0946715 14.705778,59.0658777 11.4855445,58.5382513 C8.26453285,58.011403 6.29410484,55.2689906 6.79527215,52.2051773 L6.92367682,51.4199633 C7.42562235,48.3561501 10.1680348,46.3857221 13.3882683,46.9125703 L13.3882683,46.9125703 Z" id="Fill-19" opacity="0.489696558"></path>
                        <path d="M12.5166729,60.9577065 C12.0513033,60.9577065 11.5804862,60.918796 11.1081126,60.8425314 C8.95169238,60.4900023 7.08865736,59.3748272 5.86219822,57.70401 C4.63262624,56.0277454 4.1454667,53.9413641 4.49177021,51.8285237 L4.62017487,51.0433096 C4.96647838,48.929691 6.09254842,47.1063447 7.79293752,45.9102357 C9.48787915,44.7180178 11.6116146,44.2588738 13.7657002,44.6082902 C15.9221204,44.9615976 17.7851554,46.0759945 19.0108364,47.7468116 C20.2411865,49.422298 20.7283461,51.5094575 20.3820426,53.622298 L20.2536379,54.407512 C19.9073344,56.5211307 18.7812644,58.344477 17.0800971,59.5405859 C15.7571399,60.4713252 14.1734823,60.9577065 12.5166729,60.9577065 L12.5166729,60.9577065 Z M12.3633655,49.163154 C11.66142,49.163154 11.0085017,49.3569283 10.4800971,49.7289128 C9.81394919,50.1973952 9.36959122,50.9320256 9.22873519,51.7973952 L9.09955231,52.581831 C8.95791807,53.4479789 9.1454667,54.285333 9.62640056,54.9421423 C10.1252332,55.6207416 10.9190076,56.0798855 11.8621982,56.2339711 C12.8053889,56.3903914 13.7049998,56.2067338 14.3937157,55.7219089 C15.0590854,55.2534264 15.5042216,54.518796 15.6458558,53.6534264 L15.7742605,52.8682124 C15.9158947,52.0028427 15.7283461,51.1654886 15.246634,50.5086793 C14.7478013,49.8300801 13.9548052,49.3709361 13.0116146,49.2168505 C12.7913811,49.1802746 12.5750387,49.163154 12.3633655,49.163154 L12.3633655,49.163154 Z M15.3228986,43.6324147 C15.0248441,43.6324147 14.7236768,43.6082902 14.4201749,43.559263 L13.9509142,43.4822202 L13.950136,43.4822202 C11.0116146,43.0012863 9.03029161,40.50401 9.12912429,37.407512 L9.45052507,30.4907805 C9.47387137,28.8900023 10.1042216,27.3911696 11.2232877,26.344477 C12.3524706,25.2876676 13.9104472,24.7584847 15.6108364,24.8417532 C21.9657002,25.2674342 25.4684239,23.7008972 26.042743,20.1896131 L26.0692021,20.0308583 C26.5976068,16.8028427 24.3976068,14.4627649 20.183599,13.7732707 C16.7283461,13.2067338 13.7197858,13.8962279 10.4310698,16.0051773 L10.3143383,16.0759945 C8.85208149,16.8985626 7.21784024,17.2168505 5.7065562,16.9686015 C3.92289861,16.6767727 2.35558343,15.7117921 1.29332663,14.2526482 C0.227178766,12.7896131 -0.200836799,11.011403 0.0878791547,9.2472007 C0.405388882,7.30401003 1.55713986,5.59194778 3.25208149,4.54058591 C9.12834608,0.588056726 15.4629764,-0.763694246 22.6139492,0.405955559 C28.6077235,1.38650031 33.4676457,3.90089719 36.6676457,7.67599447 C39.9991632,11.6059556 41.2855445,16.5771618 40.3890465,22.0534264 L40.3633655,22.211403 C38.8544161,31.4355275 32.1555834,36.7748272 21.4256223,37.381831 L20.9524706,39.2417532 C20.9345718,39.3125703 20.9135601,39.381831 20.8894356,39.4495353 C19.9765951,42.011403 17.7641437,43.6324147 15.3228986,43.6324147 L15.3228986,43.6324147 Z M14.7034434,38.8736598 L15.1734823,38.9507026 C15.9120037,39.074438 16.3439103,38.2425314 16.4598636,37.9615976 L17.3330153,34.5289128 C17.5944939,33.500119 18.5174511,32.7771618 19.5781515,32.7693797 C29.0956613,32.700119 34.5384628,28.8938933 35.7548052,21.4573174 L35.7812644,21.2993408 C36.4497469,17.2152941 35.5252332,13.548368 33.1065562,10.6954497 C30.6326262,7.77793999 26.7439103,5.81295945 21.8598636,5.01373766 C15.920564,4.04253143 10.6769842,5.16159758 5.8225095,8.43864038 L5.7299025,8.49778435 C4.96881301,8.96159758 4.75558343,9.63864038 4.69643947,10.0012863 C4.61083635,10.5242435 4.74235386,11.0580956 5.06764569,11.50401 C5.40227604,11.9639322 5.89721768,12.2682124 6.4606418,12.3600412 C6.90733441,12.4355275 7.45675075,12.3141268 7.9758169,12.0339711 C12.1672566,9.36081937 16.4053889,8.4246326 20.9369064,9.16471042 C27.7182293,10.2752163 31.631848,14.9452552 30.6769842,20.7865003 L30.6505251,20.9452552 C30.0715367,24.485333 27.3018869,30.3016754 15.3345718,29.5024536 C14.93535,29.4829984 14.6077235,29.5717143 14.413171,29.7538155 C14.1765951,29.9756054 14.1221204,30.3553719 14.1182293,30.6339711 L13.7952722,37.5919478 C13.78749,37.8300801 13.8271788,38.7304692 14.7034434,38.8736598 L14.7034434,38.8736598 Z" id="Fill-20"></path>
                    </g>
                    <g transform="translate(48.000000, 57.000000)">
                        <g id="Group-8" transform="translate(13.000000, 97.000000)">
                            <path d="M3.18951613,2.49677419 L11.1733871,10.4798387" id="Fill-11" fill="#E6E6E6"></path>
                            <path d="M11.1733871,12.8991935 C10.5540323,12.8991935 9.93548387,12.6629032 9.46290323,12.1903226 L1.47903226,4.20725806 C0.533870968,3.26290323 0.533870968,1.73064516 1.47903226,0.786290323 C2.42419355,-0.158870968 3.95483871,-0.158870968 4.9,0.786290323 L12.883871,8.76935484 C13.8290323,9.71370968 13.8290323,11.2459677 12.883871,12.1903226 C12.4112903,12.6629032 11.7919355,12.8991935 11.1733871,12.8991935" id="Fill-12" fill="#CCCCCC"></path>
                            <path d="M11.1733871,2.49677419 L3.18951613,10.4798387" id="Fill-13" fill="#E6E6E6"></path>
                            <path d="M3.18951613,12.8991935 C2.57096774,12.8991935 1.9516129,12.6629032 1.47903226,12.1903226 C0.533870968,11.2459677 0.533870968,9.71370968 1.47903226,8.76935484 L9.46290323,0.786290323 C10.4072581,-0.158870968 11.9387097,-0.158870968 12.883871,0.786290323 C13.8290323,1.73064516 13.8290323,3.26290323 12.883871,4.20725806 L4.9,12.1903226 C4.42741935,12.6629032 3.80887097,12.8991935 3.18951613,12.8991935" id="Fill-14" fill="#CCCCCC"></path>
                        </g>
                        <g id="Group-9" transform="translate(94.000000, 13.000000)" fill="#26D0CE">
                            <path d="M8.12903226,16.8387097 C6.79274194,16.8387097 5.70967742,15.7556452 5.70967742,14.4193548 L5.70967742,3.12903226 C5.70967742,1.79274194 6.79274194,0.709677419 8.12903226,0.709677419 C9.46532258,0.709677419 10.5483871,1.79274194 10.5483871,3.12903226 L10.5483871,14.4193548 C10.5483871,15.7556452 9.46532258,16.8387097 8.12903226,16.8387097" id="Fill-15"></path>
                            <path d="M13.7741935,11.1935484 L2.48387097,11.1935484 C1.14758065,11.1935484 0.064516129,10.1104839 0.064516129,8.77419355 C0.064516129,7.43790323 1.14758065,6.35483871 2.48387097,6.35483871 L13.7741935,6.35483871 C15.1104839,6.35483871 16.1935484,7.43790323 16.1935484,8.77419355 C16.1935484,10.1104839 15.1104839,11.1935484 13.7741935,11.1935484" id="Fill-16"></path>
                        </g>
                        <g id="Group-10" transform="translate(78.000000, 104.000000)" fill="#26D0CE">
                            <path d="M8.77419355,16.6774194 C7.43790323,16.6774194 6.35483871,15.5943548 6.35483871,14.2580645 L6.35483871,2.96774194 C6.35483871,1.63145161 7.43790323,0.548387097 8.77419355,0.548387097 C10.1104839,0.548387097 11.1935484,1.63145161 11.1935484,2.96774194 L11.1935484,14.2580645 C11.1935484,15.5943548 10.1104839,16.6774194 8.77419355,16.6774194" id="Fill-17"></path>
                            <path d="M14.4193548,11.0322581 L3.12903226,11.0322581 C1.79274194,11.0322581 0.709677419,9.94919355 0.709677419,8.61290323 C0.709677419,7.2766129 1.79274194,6.19354839 3.12903226,6.19354839 L14.4193548,6.19354839 C15.7556452,6.19354839 16.8387097,7.2766129 16.8387097,8.61290323 C16.8387097,9.94919355 15.7556452,11.0322581 14.4193548,11.0322581" id="Fill-18"></path>
                        </g>
                        <g id="Group-11" transform="translate(39.000000, 0.000000)">
                            <path d="M8.58064516,2.41935484 L8.58064516,13.7096774" id="Fill-19" fill="#E6E6E6"></path>
                            <path d="M8.58064516,16.1290323 C7.24435484,16.1290323 6.16129032,15.0459677 6.16129032,13.7096774 L6.16129032,2.41935484 C6.16129032,1.08306452 7.24435484,0 8.58064516,0 C9.91693548,0 11,1.08306452 11,2.41935484 L11,13.7096774 C11,15.0459677 9.91693548,16.1290323 8.58064516,16.1290323" id="Fill-20" fill="#CCCCCC"></path>
                            <path d="M14.2258065,8.06451613 L2.93548387,8.06451613" id="Fill-21" fill="#E6E6E6"></path>
                            <path d="M14.2258065,10.483871 L2.93548387,10.483871 C1.59919355,10.483871 0.516129032,9.40080645 0.516129032,8.06451613 C0.516129032,6.72822581 1.59919355,5.64516129 2.93548387,5.64516129 L14.2258065,5.64516129 C15.5620968,5.64516129 16.6451613,6.72822581 16.6451613,8.06451613 C16.6451613,9.40080645 15.5620968,10.483871 14.2258065,10.483871" id="Fill-22" fill="#CCCCCC"></path>
                        </g>
                        <g id="Group-12" transform="translate(0.000000, 40.000000)" fill="#26D0CE">
                            <path d="M8.06451613,16.7096774 C6.72822581,16.7096774 5.64516129,15.6266129 5.64516129,14.2903226 L5.64516129,3 C5.64516129,1.66370968 6.72822581,0.580645161 8.06451613,0.580645161 C9.40080645,0.580645161 10.483871,1.66370968 10.483871,3 L10.483871,14.2903226 C10.483871,15.6266129 9.40080645,16.7096774 8.06451613,16.7096774" id="Fill-23"></path>
                            <path d="M13.7096774,11.0645161 L2.41935484,11.0645161 C1.08306452,11.0645161 0,9.98145161 0,8.64516129 C0,7.30887097 1.08306452,6.22580645 2.41935484,6.22580645 L13.7096774,6.22580645 C15.0459677,6.22580645 16.1290323,7.30887097 16.1290323,8.64516129 C16.1290323,9.98145161 15.0459677,11.0645161 13.7096774,11.0645161" id="Fill-24"></path>
                        </g>
                        <g id="Group-7" transform="translate(109.000000, 68.000000)">
                            <path d="M2.5766129,2.75483871 L10.5604839,10.7379032" id="Fill-25" fill="#F2F2F2"></path>
                            <path d="M10.5604839,13.1572581 C9.94112903,13.1572581 9.32258065,12.9209677 8.85,12.4483871 L0.866129032,4.46532258 C-0.0790322581,3.52096774 -0.0790322581,1.98870968 0.866129032,1.04435484 C1.81129032,0.0991935484 3.34193548,0.0991935484 4.28709677,1.04435484 L12.2709677,9.02741935 C13.216129,9.97177419 13.216129,11.5040323 12.2709677,12.4483871 C11.7983871,12.9209677 11.1790323,13.1572581 10.5604839,13.1572581" id="Fill-26" fill="#E6E6E6"></path>
                            <path d="M10.5604839,2.75483871 L2.5766129,10.7379032" id="Fill-27" fill="#F2F2F2"></path>
                            <path d="M2.5766129,13.1572581 C1.95806452,13.1572581 1.33870968,12.9209677 0.866129032,12.4483871 C-0.0790322581,11.5040323 -0.0790322581,9.97177419 0.866129032,9.02741935 L8.85,1.04435484 C9.79435484,0.0991935484 11.3258065,0.0991935484 12.2709677,1.04435484 C13.216129,1.98870968 13.216129,3.52096774 12.2709677,4.46532258 L4.28709677,12.4483871 C3.81451613,12.9209677 3.19596774,13.1572581 2.5766129,13.1572581" id="Fill-28" fill="#E6E6E6"></path>
                        </g>
                    </g>
                </g>
            </g>
        </g>
    </g>
</svg>