<?xml version="1.0" encoding="UTF-8"?>
<svg width="12px" height="14px" viewBox="0 0 12 14" version="1.1" xmlns="http://www.w3.org/2000/svg" xmlns:xlink="http://www.w3.org/1999/xlink">
    <!-- Generator: Sketch 46.2 (44496) - http://www.bohemiancoding.com/sketch -->
    <title>Group 2</title>
    <desc>Created with Sketch.</desc>
    <defs></defs>
    <g id="Symbols" stroke="none" stroke-width="1" fill="none" fill-rule="evenodd">
        <g id="tab_diary" transform="translate(-47.000000, -11.000000)" fill="#16325C">
            <g id="Group-9">
                <g id="Group-2" transform="translate(47.000000, 11.000000)">
                    <path d="M9,1 C9,1 10.9035,4.08907692 11,7 L9,7 L9,1 L9,1 Z M9,0 L8.5,0 C8.224,0 8,0.196 8,0.4375 L8,13.5625 C8,13.8044375 8.224,14 8.5,14 C8.776,14 9,13.8044375 9,13.5625 L9,7.875 L12,7.875 C12,2.72125 9,0 9,0 L9,0 Z" id="Fill-151"></path>
                    <path d="M4.5,0 C4.224,0 4,0.196 4,0.4375 L4,3.5 C4,4.1155625 3.5815,4.53075 3,4.725875 L3,0.4375 C3,0.196 2.776,0 2.5,0 C2.224,0 2,0.196 2,0.4375 L2,4.725875 C1.4185,4.53075 1,4.1155625 1,3.5 L1,0.4375 C1,0.196 0.776,0 0.5,0 C0.224,0 0,0.196 0,0.4375 L0,3.5 C0,4.5583125 0.859,5.4411875 2,5.6433125 L2,13.5625 C2,13.8044375 2.224,14 2.5,14 C2.776,14 3,13.8044375 3,13.5625 L3,5.6433125 C4.141,5.4411875 5,4.5583125 5,3.5 L5,0.4375 C5,0.196 4.776,0 4.5,0" id="Fill-152"></path>
                </g>
            </g>
        </g>
    </g>
</svg>