<?xml version="1.0" encoding="UTF-8"?>
<svg width="12px" height="15px" viewBox="0 0 12 15" version="1.1" xmlns="http://www.w3.org/2000/svg" xmlns:xlink="http://www.w3.org/1999/xlink">
    <!-- Generator: Sketch 46.2 (44496) - http://www.bohemiancoding.com/sketch -->
    <title>trash-2</title>
    <desc>Created with Sketch.</desc>
    <defs></defs>
    <g id="design" stroke="none" stroke-width="1" fill="none" fill-rule="evenodd" stroke-linecap="round" stroke-linejoin="round">
        <g id="food_card" transform="translate(-184.000000, -12.000000)" stroke="#A8B7C7">
            <g id="Group-3">
                <g id="trash-2" transform="translate(184.000000, 13.000000)">
                    <polyline id="Shape" points="0 2.6 1.33333333 2.6 12 2.6"></polyline>
                    <path d="M10.6666667,2.6 L10.6666667,11.7 C10.6666667,12.4179702 10.069713,13 9.33333333,13 L2.66666667,13 C1.930287,13 1.33333333,12.4179702 1.33333333,11.7 L1.33333333,2.6 M3.33333333,2.6 L3.33333333,1.3 C3.33333333,0.582029825 3.930287,0 4.66666667,0 L7.33333333,0 C8.069713,0 8.66666667,0.582029825 8.66666667,1.3 L8.66666667,2.6" id="Shape"></path>
                    <path d="M4.66666667,5.85 L4.66666667,9.75" id="Shape"></path>
                    <path d="M7.33333333,5.85 L7.33333333,9.75" id="Shape"></path>
                </g>
            </g>
        </g>
    </g>
</svg>