<?xml version="1.0" encoding="UTF-8"?>
<svg width="11px" height="14px" viewBox="0 0 11 14" version="1.1" xmlns="http://www.w3.org/2000/svg" xmlns:xlink="http://www.w3.org/1999/xlink">
    <!-- Generator: Sketch 46.2 (44496) - http://www.bohemiancoding.com/sketch -->
    <title>Group 2</title>
    <desc>Created with Sketch.</desc>
    <defs></defs>
    <g id="design" stroke="none" stroke-width="1" fill="none" fill-rule="evenodd">
        <g id="1.1_식단다이어리_food" transform="translate(-182.000000, -141.000000)" fill="#FFFFFE">
            <g id="Group-2" transform="translate(182.000000, 141.000000)">
                <path d="M8.75,1.3125 C8.75,1.3125 10.177625,4.2406875 10.25,7 L8.75,7 L8.75,1.3125 L8.75,1.3125 Z M8.75,0 L8.375,0 C8.168,0 8,0.196 8,0.4375 L8,13.5625 C8,13.8044375 8.168,14 8.375,14 C8.582,14 8.75,13.8044375 8.75,13.5625 L8.75,7.875 L11,7.875 C11,2.72125 8.75,0 8.75,0 L8.75,0 Z" id="Fill-151"></path>
                <path d="M4.5,0 C4.224,0 4,0.196 4,0.4375 L4,3.5 C4,4.1155625 3.5815,4.53075 3,4.725875 L3,0.4375 C3,0.196 2.776,0 2.5,0 C2.224,0 2,0.196 2,0.4375 L2,4.725875 C1.4185,4.53075 1,4.1155625 1,3.5 L1,0.4375 C1,0.196 0.776,0 0.5,0 C0.224,0 0,0.196 0,0.4375 L0,3.5 C0,4.5583125 0.859,5.4411875 2,5.6433125 L2,13.5625 C2,13.8044375 2.224,14 2.5,14 C2.776,14 3,13.8044375 3,13.5625 L3,5.6433125 C4.141,5.4411875 5,4.5583125 5,3.5 L5,0.4375 C5,0.196 4.776,0 4.5,0" id="Fill-152"></path>
            </g>
        </g>
    </g>
</svg>