<?xml version="1.0" encoding="UTF-8"?>
<svg width="129px" height="129px" viewBox="0 0 129 129" version="1.1" xmlns="http://www.w3.org/2000/svg" xmlns:xlink="http://www.w3.org/1999/xlink">
    <!-- Generator: Sketch 46.2 (44496) - http://www.bohemiancoding.com/sketch -->
    <title>graph_4</title>
    <desc>Created with Sketch.</desc>
    <defs>
        <circle id="path-1" cx="64.5" cy="64.5" r="64.5"></circle>
        <linearGradient x1="101.499999%" y1="-0.499999523%" x2="0.499999523%" y2="101.499999%" id="linearGradient-3">
            <stop stop-color="#26D0CE" offset="0%"></stop>
            <stop stop-color="#1A2980" offset="100%"></stop>
        </linearGradient>
    </defs>
    <g id="design" stroke="none" stroke-width="1" fill="none" fill-rule="evenodd">
        <g id="summary" transform="translate(-86.000000, -441.000000)">
            <g id="graph_4" transform="translate(86.000000, 441.000000)">
                <g id="pie" style="mix-blend-mode: multiply;">
                    <mask id="mask-2" fill="white">
                        <use xlink:href="#path-1"></use>
                    </mask>
                    <use id="Oval" fill="#F5F4F0" xlink:href="#path-1"></use>
                    <path d="M6.38196799,100.766333 C17.3035965,119.09224 37.2605758,131.360514 60.0701147,131.360514 C94.6035877,131.360514 122.598499,103.2395 122.598499,68.5504708 C122.598499,33.8614416 94.6035877,5.74042714 60.0701147,5.74042714 C53.2457696,5.74042714 46.6767674,6.83860433 40.5286919,8.86862898 L72.3760569,57.9092705 L6.38196799,100.766333 Z" id="Oval" fill-opacity="0.74000001" fill="#A8B7C7" mask="url(#mask-2)" transform="translate(64.490233, 68.550471) rotate(-303.000000) translate(-64.490233, -68.550471) "></path>
                    <path d="M33.0623656,120.793193 C42.4256466,126.01625 53.2406558,129 64.7816594,129 C100.122366,129 129,100.122366 129,64.7816594 C129,28.8776336 100.122366,1.42108547e-14 64.7816594,1.42108547e-14 C64.4053332,1.42108547e-14 64.029779,0.00317251829 63.6550218,0.00949239318 L63.6550218,74.8650655 L33.0623656,120.793193 Z" id="Oval" fill="url(#linearGradient-3)" mask="url(#mask-2)"></path>
                    <circle id="Oval" fill="#FFFFFF" mask="url(#mask-2)" cx="64.4535262" cy="64.4535262" r="37.0875"></circle>
                </g>
            </g>
        </g>
    </g>
</svg>