<?xml version="1.0" encoding="UTF-8"?>
<svg width="20px" height="20px" viewBox="0 0 20 20" version="1.1" xmlns="http://www.w3.org/2000/svg" xmlns:xlink="http://www.w3.org/1999/xlink">
    <!-- Generator: Sketch 46.2 (44496) - http://www.bohemiancoding.com/sketch -->
    <title>Shape</title>
    <desc>Created with Sketch.</desc>
    <defs></defs>
    <g id="design" stroke="none" stroke-width="1" fill="none" fill-rule="evenodd" opacity="0.7">
        <g id="summary" transform="translate(-190.000000, -616.000000)" fill-rule="nonzero" fill="#16325C">
            <g id="Group-8" transform="translate(190.000000, 616.000000)">
                <g id="소셜공유">
                    <g id="8:16:8:16-copy-3">
                        <g id="facebook">
                            <path d="M17.6417819,0 L2.20522273,0 C0.99235023,0 0,1 0,2.22222222 L0,17.7777778 C0,19.0011111 0.99235023,20 2.20522273,20 L9.9235023,20 L9.9235023,12.2222222 L7.71827957,12.2222222 L7.71827957,9.47222222 L9.9235023,9.47222222 L9.9235023,7.19444444 C9.9235023,4.79 11.2598673,3.10111111 14.0759367,3.10111111 L16.063945,3.10333333 L16.063945,5.99777778 L14.7441192,5.99777778 C13.6481235,5.99777778 13.2313364,6.82666667 13.2313364,7.59555556 L13.2313364,9.47333333 L16.0628424,9.47333333 L15.4365591,12.2222222 L13.2313364,12.2222222 L13.2313364,20 L17.6417819,20 C18.8546544,20 19.8470046,19.0011111 19.8470046,17.7777778 L19.8470046,2.22222222 C19.8470046,1 18.8546544,0 17.6417819,0 Z" id="Shape"></path>
                        </g>
                    </g>
                </g>
            </g>
        </g>
    </g>
</svg>