<?xml version="1.0" encoding="UTF-8"?>
<svg width="180px" height="185px" viewBox="0 0 180 185" version="1.1" xmlns="http://www.w3.org/2000/svg" xmlns:xlink="http://www.w3.org/1999/xlink">
    <!-- Generator: Sketch 47 (45396) - http://www.bohemiancoding.com/sketch -->
    <title>Imported Layers</title>
    <desc>Created with Sketch.</desc>
    <defs></defs>
    <g id="design" stroke="none" stroke-width="1" fill="none" fill-rule="evenodd">
        <g id="Artboard-2" transform="translate(-10.000000, 0.000000)">
            <g id="Imported-Layers" transform="translate(10.000000, 0.000000)">
                <path d="M78.4352332,51.4883938 L63.7181347,51.4883938 C58.5671503,51.4883938 54.3917098,47.3129534 54.3917098,42.1610363 L54.3917098,40.6660104 C54.3917098,35.5150259 58.5671503,31.3395855 63.7181347,31.3395855 L78.4352332,31.3395855 C83.5862176,31.3395855 87.761658,35.5150259 87.761658,40.6660104 L87.761658,42.1610363 C87.761658,47.3129534 83.5862176,51.4883938 78.4352332,51.4883938" id="Fill-1" fill="#54698D"></path>
                <path d="M78.4352332,54.2863212 L63.7172021,54.2863212 C57.0320207,54.2863212 51.5928497,48.8471503 51.5928497,42.1619689 L51.5928497,40.6660104 C51.5928497,33.9817617 57.0320207,28.5425907 63.7172021,28.5425907 L78.4352332,28.5425907 C85.1213472,28.5425907 90.5595855,33.9817617 90.5595855,40.6660104 L90.5595855,42.1619689 C90.5595855,48.8471503 85.1213472,54.2863212 78.4352332,54.2863212 L78.4352332,54.2863212 Z M63.7172021,34.1384456 C60.1181347,34.1384456 57.1887047,37.066943 57.1887047,40.6660104 L57.1887047,42.1619689 C57.1887047,45.7610363 60.1181347,48.6904663 63.7172021,48.6904663 L78.4352332,48.6904663 C82.0352332,48.6904663 84.9637306,45.7610363 84.9637306,42.1619689 L84.9637306,40.6660104 C84.9637306,37.066943 82.0352332,34.1384456 78.4352332,34.1384456 L63.7172021,34.1384456 L63.7172021,34.1384456 Z" id="Fill-2" fill="#16325C"></path>
                <path d="M46.3989637,142.694301 C41.2479793,142.694301 37.0725389,138.51886 37.0725389,133.367876 L37.0725389,53.1606218 C37.0725389,48.0096373 41.2479793,43.8341969 46.3989637,43.8341969 L151.321244,43.8341969 C156.472228,43.8341969 160.647668,48.0096373 160.647668,53.1606218 L160.647668,133.367876 C160.647668,138.51886 156.472228,142.694301 151.321244,142.694301 L46.3989637,142.694301 Z" id="Fill-3" fill="#54698D"></path>
                <path d="M151.321244,145.492228 L46.3989637,145.492228 C39.7137824,145.492228 34.2746114,140.053057 34.2746114,133.367876 L34.2746114,53.1606218 C34.2746114,46.4754404 39.7137824,41.0362694 46.3989637,41.0362694 L151.321244,41.0362694 C158.006425,41.0362694 163.445596,46.4754404 163.445596,53.1606218 L163.445596,133.367876 C163.445596,140.053057 158.006425,145.492228 151.321244,145.492228 L151.321244,145.492228 Z M46.3989637,46.6321244 C42.7989637,46.6321244 39.8704663,49.5615544 39.8704663,53.1606218 L39.8704663,133.367876 C39.8704663,136.966943 42.7989637,139.896373 46.3989637,139.896373 L151.321244,139.896373 C154.920311,139.896373 157.849741,136.966943 157.849741,133.367876 L157.849741,53.1606218 C157.849741,49.5615544 154.920311,46.6321244 151.321244,46.6321244 L46.3989637,46.6321244 L46.3989637,46.6321244 Z" id="Fill-4" fill="#16325C"></path>
                <path d="M122.735751,83.4248705 C122.735751,96.8427979 111.858342,107.720207 98.4404145,107.720207 C85.022487,107.720207 74.1450777,96.8427979 74.1450777,83.4248705 C74.1450777,70.006943 85.022487,59.1295337 98.4404145,59.1295337 C111.858342,59.1295337 122.735751,70.006943 122.735751,83.4248705" id="Fill-5" fill="#A8B7C7"></path>
                <path d="M98.4404145,110.518135 C83.5013472,110.518135 71.3471503,98.3648705 71.3471503,83.4248705 C71.3471503,68.4858031 83.5013472,56.3316062 98.4404145,56.3316062 C113.379482,56.3316062 125.533679,68.4858031 125.533679,83.4248705 C125.533679,98.3648705 113.379482,110.518135 98.4404145,110.518135 L98.4404145,110.518135 Z M98.4404145,61.9274611 C86.5865285,61.9274611 76.9430052,71.5709845 76.9430052,83.4248705 C76.9430052,95.2787565 86.5865285,104.92228 98.4404145,104.92228 C110.294301,104.92228 119.937824,95.2787565 119.937824,83.4248705 C119.937824,71.5709845 110.294301,61.9274611 98.4404145,61.9274611 L98.4404145,61.9274611 Z" id="Fill-6" fill="#16325C"></path>
                <path d="M110.170259,83.4248705 C110.170259,89.9030052 104.918549,95.154715 98.4404145,95.154715 C91.9622798,95.154715 86.7105699,89.9030052 86.7105699,83.4248705 C86.7105699,76.9467358 91.9622798,71.6950259 98.4404145,71.6950259 C104.918549,71.6950259 110.170259,76.9467358 110.170259,83.4248705" id="Fill-7" fill="#D8DDE6"></path>
                <path d="M98.4404145,97.9526425 C90.4299482,97.9526425 83.9126425,91.4353368 83.9126425,83.4248705 C83.9126425,75.4144041 90.4299482,68.8970984 98.4404145,68.8970984 C106.450881,68.8970984 112.968187,75.4144041 112.968187,83.4248705 C112.968187,91.4353368 106.450881,97.9526425 98.4404145,97.9526425 L98.4404145,97.9526425 Z M98.4404145,74.4929534 C93.5151295,74.4929534 89.5084974,78.4995855 89.5084974,83.4248705 C89.5084974,88.3501554 93.5151295,92.3567876 98.4404145,92.3567876 C103.365699,92.3567876 107.372332,88.3501554 107.372332,83.4248705 C107.372332,78.4995855 103.365699,74.4929534 98.4404145,74.4929534 L98.4404145,74.4929534 Z" id="Fill-8" fill="#16325C"></path>
                <path d="M149.689119,61.9274611 C149.689119,65.533057 146.766218,68.4559585 143.160622,68.4559585 C139.555026,68.4559585 136.632124,65.533057 136.632124,61.9274611 C136.632124,58.3218653 139.555026,55.3989637 143.160622,55.3989637 C146.766218,55.3989637 149.689119,58.3218653 149.689119,61.9274611" id="Fill-9" fill="#E0E5EE"></path>
                <path d="M143.160622,71.253886 C138.018031,71.253886 133.834197,67.0700518 133.834197,61.9274611 C133.834197,56.7858031 138.018031,52.6010363 143.160622,52.6010363 C148.303212,52.6010363 152.487047,56.7858031 152.487047,61.9274611 C152.487047,67.0700518 148.303212,71.253886 143.160622,71.253886 L143.160622,71.253886 Z M143.160622,58.1968912 C141.103212,58.1968912 139.430052,59.8700518 139.430052,61.9274611 C139.430052,63.9848705 141.103212,65.6580311 143.160622,65.6580311 C145.218031,65.6580311 146.891192,63.9848705 146.891192,61.9274611 C146.891192,59.8700518 145.218031,58.1968912 143.160622,58.1968912 L143.160622,58.1968912 Z" id="Fill-10" fill="#16325C"></path>
                <path d="M126.88601,177.202073 L70.8341969,177.202073 C68.7739896,177.202073 67.1036269,175.53171 67.1036269,173.471503 L67.1036269,124.974093 L130.61658,124.974093 L130.61658,173.471503 C130.61658,175.53171 128.946218,177.202073 126.88601,177.202073" id="Fill-11" fill="#FFFFFF"></path>
                <path d="M126.88601,180 L70.8341969,180 C67.2341969,180 64.3056995,177.07057 64.3056995,173.471503 L64.3056995,122.176166 L133.414508,122.176166 L133.414508,173.471503 C133.414508,177.07057 130.485078,180 126.88601,180 L126.88601,180 Z M69.9015544,127.772021 L69.9015544,173.471503 C69.9015544,173.986321 70.3203109,174.404145 70.8341969,174.404145 L126.88601,174.404145 C127.400829,174.404145 127.818653,173.986321 127.818653,173.471503 L127.818653,127.772021 L69.9015544,127.772021 L69.9015544,127.772021 Z" id="Fill-12" fill="#A8B7C7"></path>
                <polygon id="Fill-13" fill="#E0E5EE" points="76.4766839 125.467461 121.243523 125.467461 121.243523 161.03658 76.4766839 161.03658"></polygon>
                <path d="M121.243523,163.834508 L76.4766839,163.834508 C74.9312953,163.834508 73.6787565,162.581969 73.6787565,161.03658 L73.6787565,125.466528 C73.6787565,123.92114 74.9312953,122.668601 76.4766839,122.668601 L121.243523,122.668601 C122.788912,122.668601 124.041451,123.92114 124.041451,125.466528 L124.041451,161.03658 C124.041451,162.581969 122.788912,163.834508 121.243523,163.834508 L121.243523,163.834508 Z M79.2746114,158.238653 L118.445596,158.238653 L118.445596,128.264456 L79.2746114,128.264456 L79.2746114,158.238653 Z" id="Fill-14" fill="#A8B7C7"></path>
                <path d="M53.1606218,124.974093 L142.694301,124.974093" id="Fill-15" fill="#54E2CE"></path>
                <path d="M142.694301,127.772021 L53.1606218,127.772021 C51.6152332,127.772021 50.3626943,126.519482 50.3626943,124.974093 C50.3626943,123.428705 51.6152332,122.176166 53.1606218,122.176166 L142.694301,122.176166 C144.239689,122.176166 145.492228,123.428705 145.492228,124.974093 C145.492228,126.519482 144.239689,127.772021 142.694301,127.772021" id="Fill-16" fill="#16325C"></path>
                <path d="M90.2620725,135.959689 C90.2620725,137.239275 89.2249741,138.276373 87.9463212,138.276373 C86.6667358,138.276373 85.6296373,137.239275 85.6296373,135.959689 C85.6296373,134.680104 86.6667358,133.643005 87.9463212,133.643005 C89.2249741,133.643005 90.2620725,134.680104 90.2620725,135.959689" id="Fill-17" fill="#54698D"></path>
                <path d="M111.743627,135.959689 C111.743627,137.239275 110.706528,138.276373 109.426943,138.276373 C108.147358,138.276373 107.110259,137.239275 107.110259,135.959689 C107.110259,134.680104 108.147358,133.643005 109.426943,133.643005 C110.706528,133.643005 111.743627,134.680104 111.743627,135.959689" id="Fill-18" fill="#54698D"></path>
                <path d="M99.5288083,153.166943 C95.9297409,153.166943 93.2409326,149.847668 93.2409326,146.879067 C93.2409326,145.84943 94.0765803,145.013782 95.1062176,145.013782 C96.1367876,145.013782 96.9715026,145.84943 96.9715026,146.879067 C96.9715026,148.006632 98.175544,149.437306 99.5288083,149.437306 C100.882073,149.437306 102.086114,148.006632 102.086114,146.879067 C102.086114,145.84943 102.921762,145.013782 103.951399,145.013782 C104.981969,145.013782 105.816684,145.84943 105.816684,146.879067 C105.816684,149.847668 103.127876,153.166943 99.5288083,153.166943" id="Fill-20" fill="#54698D"></path>
                <path d="M9.32642487,41.9689119 L9.32642487,55.0259067" id="Fill-21" fill="#E6E6E6"></path>
                <path d="M15.8549223,48.4974093 L2.79792746,48.4974093" id="Fill-23" fill="#E6E6E6"></path>
                <g id="Group-13" transform="translate(0.000000, 109.000000)" fill="#CCCCCC">
                    <path d="M9.32642487,18.8238342 C7.78103627,18.8238342 6.52849741,17.5712953 6.52849741,16.0259067 L6.52849741,2.96891192 C6.52849741,1.42352332 7.78103627,0.170984456 9.32642487,0.170984456 C10.8718135,0.170984456 12.1243523,1.42352332 12.1243523,2.96891192 L12.1243523,16.0259067 C12.1243523,17.5712953 10.8718135,18.8238342 9.32642487,18.8238342" id="Fill-22"></path>
                    <path d="M15.8549223,12.2953368 L2.79792746,12.2953368 C1.25253886,12.2953368 0,11.0427979 0,9.49740933 C0,7.95202073 1.25253886,6.69948187 2.79792746,6.69948187 L15.8549223,6.69948187 C17.4003109,6.69948187 18.6528497,7.95202073 18.6528497,9.49740933 C18.6528497,11.0427979 17.4003109,12.2953368 15.8549223,12.2953368" id="Fill-24"></path>
                </g>
                <path d="M170.673575,2.79792746 L170.673575,15.8549223" id="Fill-25" fill="#F2F2F2"></path>
                <path d="M177.202073,9.32642487 L164.145078,9.32642487" id="Fill-27" fill="#F2F2F2"></path>
                <g id="Group-14" transform="translate(161.000000, 0.000000)" fill="#E6E6E6">
                    <path d="M9.67357513,18.6528497 C8.12818653,18.6528497 6.87564767,17.4003109 6.87564767,15.8549223 L6.87564767,2.79792746 C6.87564767,1.25253886 8.12818653,0 9.67357513,0 C11.2189637,0 12.4715026,1.25253886 12.4715026,2.79792746 L12.4715026,15.8549223 C12.4715026,17.4003109 11.2189637,18.6528497 9.67357513,18.6528497" id="Fill-26"></path>
                    <path d="M16.2020725,12.1243523 L3.14507772,12.1243523 C1.59968912,12.1243523 0.347150259,10.8718135 0.347150259,9.32642487 C0.347150259,7.78103627 1.59968912,6.52849741 3.14507772,6.52849741 L16.2020725,6.52849741 C17.7474611,6.52849741 19,7.78103627 19,9.32642487 C19,10.8718135 17.7474611,12.1243523 16.2020725,12.1243523" id="Fill-28"></path>
                </g>
                <path d="M155.751295,166.010363 L155.751295,179.067358" id="Fill-29" fill="#E6E6E6"></path>
                <path d="M162.279793,172.53886 L149.222798,172.53886" id="Fill-31" fill="#E6E6E6"></path>
                <g id="Group-5" transform="translate(157.000000, 166.000000)" fill="#26D0CE">
                    <path d="M9.75129534,18.865285 C8.20590674,18.865285 6.95336788,17.6127461 6.95336788,16.0673575 L6.95336788,3.01036269 C6.95336788,1.46497409 8.20590674,0.212435233 9.75129534,0.212435233 C11.2966839,0.212435233 12.5492228,1.46497409 12.5492228,3.01036269 L12.5492228,16.0673575 C12.5492228,17.6127461 11.2966839,18.865285 9.75129534,18.865285" id="Fill-30"></path>
                    <path d="M16.2797927,12.3367876 L3.22279793,12.3367876 C1.67740933,12.3367876 0.424870466,11.0842487 0.424870466,9.5388601 C0.424870466,7.9934715 1.67740933,6.74093264 3.22279793,6.74093264 L16.2797927,6.74093264 C17.8251813,6.74093264 19.0777202,7.9934715 19.0777202,9.5388601 C19.0777202,11.0842487 17.8251813,12.3367876 16.2797927,12.3367876" id="Fill-32"></path>
                </g>
                <g id="Group-5" transform="translate(24.000000, 10.000000)" fill="#26D0CE">
                    <path d="M9.75129534,18.865285 C8.20590674,18.865285 6.95336788,17.6127461 6.95336788,16.0673575 L6.95336788,3.01036269 C6.95336788,1.46497409 8.20590674,0.212435233 9.75129534,0.212435233 C11.2966839,0.212435233 12.5492228,1.46497409 12.5492228,3.01036269 L12.5492228,16.0673575 C12.5492228,17.6127461 11.2966839,18.865285 9.75129534,18.865285" id="Fill-30"></path>
                    <path d="M16.2797927,12.3367876 L3.22279793,12.3367876 C1.67740933,12.3367876 0.424870466,11.0842487 0.424870466,9.5388601 C0.424870466,7.9934715 1.67740933,6.74093264 3.22279793,6.74093264 L16.2797927,6.74093264 C17.8251813,6.74093264 19.0777202,7.9934715 19.0777202,9.5388601 C19.0777202,11.0842487 17.8251813,12.3367876 16.2797927,12.3367876" id="Fill-32"></path>
                </g>
            </g>
        </g>
    </g>
</svg>