<?xml version="1.0" encoding="UTF-8"?>
<svg width="21px" height="20px" viewBox="0 0 21 20" version="1.1" xmlns="http://www.w3.org/2000/svg" xmlns:xlink="http://www.w3.org/1999/xlink">
    <!-- Generator: Sketch 46.2 (44496) - http://www.bohemiancoding.com/sketch -->
    <title>Combined Shape</title>
    <desc>Created with Sketch.</desc>
    <defs></defs>
    <g id="design" stroke="none" stroke-width="1" fill="none" fill-rule="evenodd" opacity="0.7">
        <g id="summary" transform="translate(-240.000000, -616.000000)" fill="#16325C">
            <g id="Group-8" transform="translate(190.000000, 616.000000)">
                <g id="소셜공유">
                    <g id="8:16:8:16-copy-4" transform="translate(50.857949, 0.000000)">
                        <path d="M0,2 L0,2 C-1.3527075e-16,0.8954305 0.8954305,2.02906125e-16 2,0 L2,0 L18,0 C19.1045695,-2.02906125e-16 20,0.8954305 20,2 L20,2 L20,18 C20,19.1045695 19.1045695,20 18,20 L2,20 C0.8954305,20 1.3527075e-16,19.1045695 0,18 L0,2 Z M11.5912993,5.41998291 L11.5912993,10.0429302 L8.42534111,5.41998291 L5.0020513,5.41998291 L5.0020513,14.5822409 L8.41356777,14.5822409 L8.41356777,9.95929363 L11.5801376,14.5822409 L15.0020513,14.5822409 L15.0020513,5.41998291 L11.5912993,5.41998291 Z" id="Combined-Shape"></path>
                    </g>
                </g>
            </g>
        </g>
    </g>
</svg>