<?xml version="1.0" encoding="UTF-8"?>
<svg width="26px" height="22px" viewBox="0 0 26 22" version="1.1" xmlns="http://www.w3.org/2000/svg" xmlns:xlink="http://www.w3.org/1999/xlink">
    <!-- Generator: Sketch 47 (45396) - http://www.bohemiancoding.com/sketch -->
    <title>Mask</title>
    <desc>Created with Sketch.</desc>
    <defs>
        <path d="M13,7.7 C10.6166667,7.7 8.66666667,9.68 8.66666667,12.1 C8.66666667,14.52 10.6166667,16.5 13,16.5 C15.3833333,16.5 17.3333333,14.52 17.3333333,12.1 C17.3333333,9.68 15.3833333,7.7 13,7.7 Z M23.8333333,4.4 L21.0166667,4.4 C20.2583333,4.4 19.6083333,4.015 19.175,3.41 L17.9291667,1.485 C17.55,0.55 16.6291667,0 15.6541667,0 L10.3458333,0 C9.37083333,0 8.45,0.55 8.01666667,1.485 L6.77083333,3.41 C6.39166667,4.015 5.6875,4.4 4.92916667,4.4 L2.16666667,4.4 C0.975,4.4 0,5.39 0,6.6 L0,19.8 C0,21.01 0.975,22 2.16666667,22 L23.8333333,22 C25.025,22 26,21.01 26,19.8 L26,6.6 C26,5.39 25.025,4.4 23.8333333,4.4 Z M13,18.7 C9.425,18.7 6.5,15.73 6.5,12.1 C6.5,8.47 9.425,5.5 13,5.5 C16.575,5.5 19.5,8.47 19.5,12.1 C19.5,15.73 16.575,18.7 13,18.7 Z" id="path-1"></path>
    </defs>
    <g id="design" stroke="none" stroke-width="1" fill="none" fill-rule="evenodd">
        <g id="4_레시피-검색" transform="translate(-1026.000000, -399.000000)">
            <g id="Group-2" transform="translate(430.000000, 389.000000)">
                <g id="icons/utility/photo-copy" transform="translate(596.000000, 10.000000)">
                    <mask id="mask-2" fill="white">
                        <use xlink:href="#path-1"></use>
                    </mask>
                    <use id="Mask" fill-opacity="0.811594203" fill="#FFFFFF" xlink:href="#path-1"></use>
                </g>
            </g>
        </g>
    </g>
</svg>