<?xml version="1.0" encoding="UTF-8"?>
<svg width="92px" height="83px" viewBox="0 0 92 83" version="1.1" xmlns="http://www.w3.org/2000/svg" xmlns:xlink="http://www.w3.org/1999/xlink">
    <!-- Generator: Sketch 47 (45396) - http://www.bohemiancoding.com/sketch -->
    <title>Imported Layers</title>
    <desc>Created with Sketch.</desc>
    <defs>
        <filter x="-1.7%" y="-3.7%" width="103.4%" height="111.6%" filterUnits="objectBoundingBox" id="filter-1">
            <feOffset dx="0" dy="4" in="SourceAlpha" result="shadowOffsetOuter1"></feOffset>
            <feGaussianBlur stdDeviation="3" in="shadowOffsetOuter1" result="shadowBlurOuter1"></feGaussianBlur>
            <feColorMatrix values="0 0 0 0 0   0 0 0 0 0   0 0 0 0 0  0 0 0 0.1 0" type="matrix" in="shadowBlurOuter1" result="shadowMatrixOuter1"></feColorMatrix>
            <feMerge>
                <feMergeNode in="shadowMatrixOuter1"></feMergeNode>
                <feMergeNode in="SourceGraphic"></feMergeNode>
            </feMerge>
        </filter>
    </defs>
    <g id="Page-1" stroke="none" stroke-width="1" fill="none" fill-rule="evenodd">
        <g id="messages" transform="translate(-2484.000000, -584.000000)">
            <g id="error" filter="url(#filter-1)" transform="translate(1970.000000, 553.500000)">
                <g id="Imported-Layers" transform="translate(520.000000, 33.000000)">
                    <path d="M69.2313333,53.2806667 L40.4686667,53.2806667 C40.0953333,53.2806667 39.7326667,53.4046667 39.4373333,53.6333333 L21.494,68.0906667 C20.3893333,68.9486667 18.7813333,68.1613333 18.7813333,66.7626667 L18.7813333,54.962 C18.7813333,54.0333333 18.0286667,53.2806667 17.1,53.2806667 L10.7686667,53.2806667 C6.26333333,53.2806667 2.61066667,49.628 2.61066667,45.1226667 L2.61066667,2.21933333 L77.3886667,2.21933333 L77.3886667,45.1226667 C77.3886667,49.628 73.7366667,53.2806667 69.2313333,53.2806667" id="Fill-1" fill="#FFABB9"></path>
                    <path d="M20.46,70.4466667 C19.9106667,70.4473333 19.3593333,70.3213333 18.844,70.0693333 C17.5713333,69.446 16.7813333,68.1793333 16.7813333,66.7626667 L16.7813333,55.2806667 L10.7686667,55.2806667 C5.168,55.2806667 0.611333333,50.724 0.611333333,45.1233333 L0.611333333,2.21933333 C0.611333333,1.11466667 1.50666667,0.219333333 2.61133333,0.219333333 L77.3886667,0.219333333 C78.4933333,0.219333333 79.3886667,1.11466667 79.3886667,2.21933333 L79.3886667,45.1233333 C79.3886667,50.724 74.832,55.2806667 69.2313333,55.2806667 L40.58,55.2806667 L22.7486667,69.6486667 C22.0673333,70.1786667 21.2646667,70.4466667 20.46,70.4466667 L20.46,70.4466667 Z M4.61133333,4.21933333 L4.61133333,45.1233333 C4.61133333,48.518 7.37333333,51.2806667 10.7686667,51.2806667 L17.0993333,51.2806667 C19.1293333,51.2806667 20.7813333,52.932 20.7813333,54.9613333 L20.7813333,66.0973333 L38.1826667,52.076 C38.8546667,51.5546667 39.656,51.2806667 40.4686667,51.2806667 L69.2313333,51.2806667 C72.626,51.2806667 75.3886667,48.518 75.3886667,45.1233333 L75.3886667,4.21933333 L4.61133333,4.21933333 L4.61133333,4.21933333 Z" id="Fill-2" fill="#FF6470"></path>
                    <path d="M22.7166667,13.3706667 L29.3166667,19.97" id="Fill-3" fill="#FFABB9"></path>
                    <path d="M29.3166667,21.97 C28.8046667,21.97 28.2926667,21.7746667 27.9026667,21.384 L21.3026667,14.7846667 C20.5213333,14.004 20.5213333,12.7373333 21.3026667,11.9566667 C22.084,11.1753333 23.3493333,11.1753333 24.1306667,11.9566667 L30.7306667,18.556 C31.512,19.3366667 31.512,20.6033333 30.7306667,21.384 C30.34,21.7746667 29.828,21.97 29.3166667,21.97" id="Fill-4" fill="#FF6470"></path>
                    <path d="M29.3166667,13.3706667 L22.7166667,19.97" id="Fill-5" fill="#FFABB9"></path>
                    <path d="M22.7166667,21.97 C22.2053333,21.97 21.6933333,21.7746667 21.3026667,21.384 C20.5213333,20.6033333 20.5213333,19.3366667 21.3026667,18.556 L27.9026667,11.9566667 C28.6833333,11.1753333 29.9493333,11.1753333 30.7306667,11.9566667 C31.512,12.7373333 31.512,14.004 30.7306667,14.7846667 L24.1306667,21.384 C23.74,21.7746667 23.2286667,21.97 22.7166667,21.97" id="Fill-6" fill="#FF6470"></path>
                    <path d="M50.05,13.3706667 L56.65,19.97" id="Fill-7" fill="#FFABB9"></path>
                    <path d="M56.65,21.97 C56.138,21.97 55.626,21.7746667 55.2353333,21.384 L48.636,14.7846667 C47.8546667,14.004 47.8546667,12.7373333 48.636,11.9566667 C49.4173333,11.1753333 50.6826667,11.1753333 51.464,11.9566667 L58.064,18.556 C58.8453333,19.3366667 58.8453333,20.6033333 58.064,21.384 C57.6733333,21.7746667 57.1613333,21.97 56.65,21.97" id="Fill-8" fill="#FF6470"></path>
                    <path d="M56.65,13.3706667 L50.05,19.97" id="Fill-9" fill="#FFABB9"></path>
                    <path d="M50.05,21.97 C49.538,21.97 49.0266667,21.7746667 48.636,21.384 C47.8546667,20.6033333 47.8546667,19.3366667 48.636,18.556 L55.2353333,11.9566667 C56.0166667,11.1753333 57.2826667,11.1753333 58.064,11.9566667 C58.8453333,12.7373333 58.8453333,14.004 58.064,14.7846667 L51.464,21.384 C51.0733333,21.7746667 50.562,21.97 50.05,21.97" id="Fill-10" fill="#FF6470"></path>
                    <path d="M53.0333333,32.9686667 L53.0333333,38.732 C53.0333333,40.0726667 51.422,41.16 49.4333333,41.16 C47.4453333,41.16 45.8333333,40.0726667 45.8333333,38.732 L45.8333333,32.9686667" id="Fill-11" fill="#FFABB9"></path>
                    <path d="M49.4333333,43.1593333 C46.2926667,43.1593333 43.8333333,41.2146667 43.8333333,38.7326667 L43.8333333,32.9686667 C43.8333333,31.864 44.7286667,30.9686667 45.8333333,30.9686667 C46.938,30.9686667 47.8333333,31.864 47.8333333,32.9686667 L47.8333333,38.6466667 C47.9686667,38.8086667 48.51,39.1593333 49.4333333,39.1593333 C50.356,39.1593333 50.8973333,38.8086667 51.0333333,38.6466667 L51.0333333,32.9686667 C51.0333333,31.864 51.928,30.9686667 53.0333333,30.9686667 C54.138,30.9686667 55.0333333,31.864 55.0333333,32.9686667 L55.0333333,38.7326667 C55.0333333,41.2146667 52.5733333,43.1593333 49.4333333,43.1593333" id="Fill-12" fill="#FF6470"></path>
                    <path d="M24.6666667,32.6666667 L55.3333333,32.6666667" id="Fill-13" fill="#FFABB9"></path>
                    <path d="M55.3333333,34.6666667 L24.6666667,34.6666667 C23.562,34.6666667 22.6666667,33.7713333 22.6666667,32.6666667 C22.6666667,31.562 23.562,30.6666667 24.6666667,30.6666667 L55.3333333,30.6666667 C56.438,30.6666667 57.3333333,31.562 57.3333333,32.6666667 C57.3333333,33.7713333 56.438,34.6666667 55.3333333,34.6666667" id="Fill-14" fill="#FF6470"></path>
                </g>
            </g>
        </g>
    </g>
</svg>