<?xml version="1.0" encoding="UTF-8"?>
<svg width="21px" height="20px" viewBox="0 0 21 20" version="1.1" xmlns="http://www.w3.org/2000/svg" xmlns:xlink="http://www.w3.org/1999/xlink">
    <!-- Generator: Sketch 46.2 (44496) - http://www.bohemiancoding.com/sketch -->
    <title>Page 1</title>
    <desc>Created with Sketch.</desc>
    <defs></defs>
    <g id="design" stroke="none" stroke-width="1" fill="none" fill-rule="evenodd" opacity="0.7">
        <g id="summary" transform="translate(-266.000000, -616.000000)" fill="#16325C">
            <g id="Group-8" transform="translate(190.000000, 616.000000)">
                <g id="소셜공유">
                    <g id="8:16:8:16-copy-5" transform="translate(75.286924, 0.000000)">
                        <g id="Page-1" transform="translate(1.000000, 0.000000)">
                            <path d="M10,15.625 C9.507496,15.625 9.025232,15.590544 8.556872,15.524216 C8.088048,15.854608 5.379376,17.757264 5.123752,17.792968 C5.123752,17.792968 5.018904,17.833752 4.929768,17.781248 C4.840624,17.728752 4.8568,17.591096 4.8568,17.591096 C4.883672,17.407888 5.558984,15.075856 5.68344,14.64664 C3.395784,13.51328 1.875,11.506168 1.875,9.218752 C1.875,5.680704 5.512656,2.812496 10,2.812496 C14.487344,2.812496 18.125,5.680704 18.125,9.218752 C18.125,12.756872 14.487344,15.625 10,15.625 M18.437504,0 L1.562496,0 C0.699528,0 0,0.699528 0,1.562496 L0,18.437496 C0,19.300472 0.699528,20 1.562496,20 L18.437504,20 C19.300472,20 20,19.300472 20,18.437496 L20,1.562496 C20,0.699528 19.300472,0 18.437504,0" id="Fill-1"></path>
                            <path d="M13.3854688,11.448984 C13.1269568,11.448984 12.9167168,11.238752 12.9167168,10.980232 L12.9167168,7.77344 C12.9167168,7.51492 13.1269568,7.304688 13.3854688,7.304688 C13.6439808,7.304688 13.8542208,7.51492 13.8542208,7.77344 L13.8542208,8.780936 L15.1620288,7.473128 C15.2293008,7.405856 15.3217168,7.368824 15.4220288,7.368824 C15.5390608,7.368824 15.6565648,7.419296 15.7446128,7.507264 C15.8267168,7.589296 15.8757008,7.69484 15.8824208,7.804456 C15.8892208,7.915 15.8524208,8.016328 15.7789808,8.08984 L14.7107808,9.157888 L15.8646128,10.68648 C15.9398608,10.785536 15.9722768,10.910616 15.9546128,11.033752 C15.9377328,11.15696 15.8722368,11.268288 15.7727328,11.342888 C15.6916688,11.404504 15.5926048,11.437752 15.4907808,11.437496 C15.3435008,11.438184 15.2046048,11.369072 15.1163248,11.251168 L14.0170288,9.794608 L13.8543728,9.957264 L13.8543728,10.98 C13.8540688,11.238856 13.6443248,11.44864 13.3854688,11.448984 L13.3854688,11.448984 Z M10.7812528,11.38672 C10.5335168,11.38672 10.3320288,11.193904 10.3320288,10.957032 L10.3320288,7.77344 C10.3320288,7.51492 10.5467168,7.304688 10.8105488,7.304688 C11.0743728,7.304688 11.2890608,7.51492 11.2890608,7.77344 L11.2890608,10.527344 L12.2851568,10.527344 C12.5328928,10.527344 12.7343728,10.720152 12.7343728,10.957032 C12.7343728,11.193904 12.5328928,11.38672 12.2851568,11.38672 L10.7812528,11.38672 Z M8.7494528,9.803984 L8.2812528,8.473904 L7.8130448,9.803984 L8.7494528,9.803984 Z M9.6181248,11.448984 C9.4226528,11.448984 9.2731248,11.369608 9.2280448,11.241952 L8.9959408,10.634296 L7.5665648,10.634216 L7.3343008,11.242264 C7.2893728,11.369688 7.1399248,11.448984 6.9444528,11.448984 C6.8416368,11.449088 6.7400048,11.427024 6.6464848,11.384296 C6.5172688,11.324688 6.3930448,11.160784 6.5353888,10.718672 L7.6566368,7.767424 C7.7356288,7.542968 7.9755488,7.31172 8.2808608,7.304768 C8.5870288,7.31164 8.8269568,7.542968 8.9060928,7.767888 L10.0268768,10.717816 C10.1695328,11.160936 10.0453088,11.32492 9.9160928,11.384376 C9.8225488,11.427024 9.7209328,11.449064 9.6181248,11.448984 C9.6180448,11.448984 9.6181248,11.448984 9.6181248,11.448984 L9.6181248,11.448984 Z M5.5078128,11.45508 C5.2493008,11.45508 5.0390608,11.254296 5.0390608,11.007424 L5.0390608,8.222656 L4.3076528,8.222656 C4.0539808,8.222656 3.8476528,8.01672 3.8476528,7.763672 C3.8476528,7.510624 4.0540608,7.304688 4.3076528,7.304688 L6.7079728,7.304688 C6.9616368,7.304688 7.1679728,7.510624 7.1679728,7.763672 C7.1679728,8.01672 6.9615648,8.222656 6.7079728,8.222656 L5.9765648,8.222656 L5.9765648,11.007424 C5.9765648,11.254296 5.7663248,11.45508 5.5078128,11.45508 L5.5078128,11.45508 Z" id="Fill-3"></path>
                        </g>
                    </g>
                </g>
            </g>
        </g>
    </g>
</svg>