<?xml version="1.0" encoding="UTF-8"?>
<svg width="274px" height="323px" viewBox="0 0 274 323" version="1.1" xmlns="http://www.w3.org/2000/svg" xmlns:xlink="http://www.w3.org/1999/xlink">
    <!-- Generator: Sketch 47 (45396) - http://www.bohemiancoding.com/sketch -->
    <title>Group 5</title>
    <desc>Created with Sketch.</desc>
    <defs>
        <path d="M8,0 L236,0 C240.418278,-8.11624501e-16 244,3.581722 244,8 L244,291 C244,295.418278 240.418278,299 236,299 L8,299 C3.581722,299 5.41083001e-16,295.418278 0,291 L0,8 L0,8 C-5.41083001e-16,3.581722 3.581722,8.11624501e-16 8,0 L8,0 Z M31,22 C26.581722,22 23,25.581722 23,30 L23,213 C23,217.418278 26.581722,221 31,221 L214,221 C218.418278,221 222,217.418278 222,213 L222,30 C222,25.581722 218.418278,22 214,22 L31,22 Z" id="path-1"></path>
        <linearGradient x1="50%" y1="0%" x2="50%" y2="100%" id="linearGradient-2">
            <stop stop-color="#26D0CE" offset="0%"></stop>
            <stop stop-color="#1A2980" offset="100%"></stop>
        </linearGradient>
    </defs>
    <g id="Page-1" stroke="none" stroke-width="1" fill="none" fill-rule="evenodd">
        <g id="Artboard" transform="translate(-176.000000, -147.000000)">
            <g id="Group-5" transform="translate(313.000000, 308.500000) rotate(-6.000000) translate(-313.000000, -308.500000) translate(191.000000, 159.000000)">
                <g id="Group-4" transform="translate(50.000000, 49.000000)">
                    <path d="M117,136.963567 C117,140.810026 116.608148,147 73.00031,147 C29,147 29,140.810026 29,136.963567 C29,133.117721 48.6998823,130 73.00031,130 C97.3007377,130 117,133.117721 117,136.963567" id="Fill-1" fill="#F2F2F2"></path>
                    <path d="M116.154514,136.940298 L114.30906,136.940298 C114.31029,137.413105 114.299218,137.817923 114.236472,138.173464 C114.180493,138.485965 114.094987,138.758547 113.934433,139.049841 C113.792948,139.304957 113.589333,139.580034 113.254075,139.891912 C112.670912,140.435204 111.662064,141.082663 109.987007,141.715151 C107.47842,142.667627 103.507003,143.572074 97.4699082,144.215166 C91.4309679,144.861378 83.3245041,145.257463 72.5003018,145.257463 C61.6305784,145.257463 53.5013539,144.86512 47.4538015,144.224523 C42.9195213,143.744854 39.5558739,143.123593 37.1032657,142.441204 C35.2633482,141.930347 33.9395426,141.384561 33.0186611,140.865595 C32.3266159,140.476372 31.8627918,140.10586 31.5496798,139.78026 C31.0833951,139.285621 30.9209951,138.911367 30.8090376,138.484718 C30.7020013,138.058692 30.688468,137.559064 30.6909286,136.940298 L30.0327167,136.940298 L30.6614013,137.143018 C30.6780104,137.09187 30.6915437,137.01702 30.6909286,136.940298 L30.0327167,136.940298 L30.6614013,137.143018 L30.3421378,137.040099 L30.6281831,137.221612 L30.6614013,137.143018 L30.3421378,137.040099 L30.6281831,137.221612 L30.6718589,137.168592 C30.7936588,137.023881 31.2396435,136.685805 31.9526039,136.353343 C33.201361,135.755785 35.2227482,135.12392 37.79162,134.565034 C41.6516944,133.721092 46.7672926,133.010634 52.6911997,132.516619 C58.616337,132.022604 65.3553195,131.742537 72.5003018,131.742537 C84.4729916,131.74129 95.3174938,132.531589 103.077627,133.789705 C106.95185,134.414709 110.065746,135.168206 112.07237,135.939793 C113.071991,136.318413 113.791103,136.714498 114.132512,136.990822 C114.218018,137.058811 114.279533,137.116197 114.318287,137.157365 L114.369345,137.217869 L114.371805,137.221612 L114.814714,136.940298 L114.30906,136.940298 C114.306599,137.095613 114.36873,137.221612 114.371805,137.221612 L114.814714,136.940298 L114.30906,136.940298 L117.999968,136.940298 C118.003043,136.29471 117.785895,135.684676 117.486316,135.21374 C117.204577,134.766507 116.858247,134.412837 116.479929,134.102207 C115.766969,133.524609 114.92052,133.076128 113.914133,132.653221 C112.1548,131.921555 109.891658,131.294056 107.154235,130.730805 C103.051791,129.889358 97.8968232,129.210711 92.0067495,128.73728 C86.1179062,128.265096 79.4994933,128 72.5003018,128 C60.3627515,128.001248 49.3804554,128.793418 41.3404279,130.09395 C37.3148778,130.74827 34.0355062,131.517985 31.6241131,132.438025 C30.4153408,132.905219 29.4187957,133.396739 28.5969535,134.040455 C28.1878779,134.366056 27.8150962,134.736567 27.5136721,135.21374 C27.2140934,135.684676 26.9975602,136.29471 27.0000208,136.940298 C27.0012511,137.428699 26.9950995,138.063059 27.1082874,138.79223 C27.2067116,139.429085 27.4060206,140.142038 27.7806478,140.849378 C28.1066779,141.468768 28.5625051,142.076306 29.15182,142.636439 C30.1877348,143.620727 31.6081191,144.468411 33.5722972,145.219414 C36.523178,146.343422 40.7369644,147.269077 46.9795198,147.937119 C53.2208449,148.602667 61.4890936,148.999376 72.5003018,149 C83.360798,148.999376 91.5539982,148.60641 97.7664112,147.9471 C102.426182,147.451213 105.971299,146.808121 108.709338,146.050881 C110.762713,145.482639 112.364567,144.850774 113.641621,144.144058 C114.598181,143.614489 115.373887,143.038762 115.993959,142.413135 C116.927759,141.479371 117.482625,140.40963 117.738528,139.427214 C117.999353,138.444798 117.998122,137.577153 117.999968,136.940298 L116.154514,136.940298" id="Fill-2" fill="#E6E6E6"></path>
                    <path d="M143,130 C143,134.970483 111.435983,139 72.5003083,139 C33.5640167,139 2,134.970483 2,130 C2,125.029517 33.5640167,121 72.5003083,121 C111.435983,121 143,125.029517 143,130" id="Fill-3" fill="#E6E6E6"></path>
                    <path d="M143.146306,130.5 L141.292616,130.5 L141.900626,130.5 L141.333397,130.2798 C141.314242,130.323 141.291998,130.4094 141.292616,130.5 L141.900626,130.5 L141.333397,130.2798 L141.578084,130.3746 L141.350698,130.2438 L141.333397,130.2798 L141.578084,130.3746 L141.350698,130.2438 L141.348844,130.2462 C141.335251,130.2702 141.200549,130.422 140.920642,130.6056 C140.398519,130.9596 139.409884,131.4156 138.070284,131.8512 C135.719804,132.6246 132.292331,133.3806 128.046144,134.0526 C121.67192,135.0648 113.437209,135.9042 103.975973,136.4874 C94.5128832,137.0712 83.8189429,137.4 72.5003089,137.4 C53.0575676,137.4006 35.4505977,136.4274 22.7787697,134.8662 C16.4490346,134.0886 11.3408816,133.155 7.93812382,132.1626 C6.24199704,131.6718 4.96912959,131.1522 4.26596301,130.7232 C3.91376182,130.5144 3.71479905,130.329 3.6653673,130.2642 L3.64930198,130.2432 L3.20874155,130.5 L3.70738428,130.5 C3.70985587,130.3608 3.65424516,130.245 3.64930198,130.2432 L3.20874155,130.5 L3.70738428,130.5 L3.09937381,130.5 L3.66722099,130.7202 C3.6857579,130.6776 3.70862008,130.5906 3.70738428,130.5 L3.09937381,130.5 L3.66722099,130.7202 L3.42191595,130.6254 L3.64991988,130.7568 L3.66722099,130.7202 L3.42191595,130.6254 L3.64991988,130.7568 L3.63817984,130.7502 L3.64930198,130.7568 L3.64991988,130.7568 L3.63817984,130.7502 L3.64930198,130.7568 C3.64991988,130.7496 3.76670238,130.6068 4.03178012,130.4268 C4.52609757,130.0806 5.49557768,129.6222 6.82034847,129.1854 C9.1454942,128.409 12.5612278,127.6482 16.8037074,126.9714 C23.1736057,125.9526 31.4237641,125.1072 40.9128056,124.5198 C50.4030828,123.9318 61.1365685,123.6 72.5003089,123.6 C91.9430503,123.5994 109.55002,124.5726 122.22123,126.1338 C128.551583,126.912 133.659736,127.845 137.062494,128.838 C138.758621,129.3282 140.03087,129.8484 140.734655,130.2768 C141.086856,130.4862 141.285201,130.671 141.334633,130.7358 L141.350698,130.7568 L141.791258,130.5 L141.292616,130.5 C141.290144,130.6392 141.346373,130.755 141.350698,130.7568 L141.791258,130.5 L141.292616,130.5 L144.999997,130.5 C145.000615,130.1094 144.916581,129.7236 144.7757,129.384 C144.498264,128.721 144.053379,128.235 143.564004,127.8294 C142.637159,127.077 141.47057,126.5292 139.999976,125.9934 C137.43385,125.073 133.929139,124.2696 129.570495,123.5448 C123.038708,122.4618 114.613067,121.5786 104.892314,120.9624 C95.1734149,120.3468 84.165583,120 72.5003089,120 C52.9259555,120.0006 35.2096179,120.975 22.3122576,122.5626 C15.8583253,123.3588 10.6204139,124.3008 6.87348759,125.3898 C4.99446336,125.94 3.4911204,126.5124 2.31279116,127.2168 C1.72393549,127.5738 1.20490216,127.965 0.771756489,128.4852 C0.556728395,128.7462 0.365180381,129.0432 0.224299906,129.384 C0.0840373272,129.7236 -0.000614537274,130.1094 3.35954692e-06,130.5 C-0.000614537274,130.8906 0.0840373272,131.2764 0.224299906,131.616 C0.502353475,132.279 0.946621289,132.765 1.43599557,133.1712 C2.3634587,133.923 3.5300479,134.4708 5.00002443,135.0066 C7.56614993,135.927 11.0714786,136.7304 15.4301228,137.4558 C21.9612922,138.5382 30.3869332,139.4214 40.107686,140.0376 C49.8265851,140.6532 60.8350349,141 72.5003089,141 C92.0740444,140.9994 109.790382,140.025 122.687742,138.4374 C129.142293,137.6412 134.380204,136.6992 138.12713,135.6108 C140.005537,135.06 141.50888,134.4876 142.687827,133.7832 C143.276682,133.4262 143.795716,133.035 144.228243,132.5148 C144.443272,132.2538 144.635437,131.9568 144.7757,131.616 C144.916581,131.2764 145.000615,130.8906 144.999997,130.5 L143.146306,130.5" id="Fill-4" fill="#CCCCCC"></path>
                    <g id="Group" transform="translate(3.000000, 0.000000)">
                        <path d="M25.6554726,13.1282051 C23.7966418,9.48934227 25.2717662,5.04888376 28.9508706,3.21007378 C32.6293532,1.37126379 37.1181592,2.83111528 38.97699,6.46997813" id="Fill-15" fill="#F2F2F2"></path>
                        <path d="M27.3202736,12.2958499 C26.909204,11.4899479 26.7176617,10.6440583 26.7176617,9.80493596 C26.7170398,8.79540528 26.9993781,7.79756326 27.5242537,6.93567875 C28.050995,6.07317905 28.8115672,5.34786725 29.7922886,4.85755894 C30.6069652,4.45091678 31.4620647,4.26143753 32.3103234,4.26082234 C33.3308458,4.26082234 34.3395522,4.53950448 35.2108209,5.05934203 C36.0827114,5.57979478 36.8159204,6.33279023 37.3115672,7.30233341 C37.7761194,8.21220292 38.8986318,8.57701199 39.818408,8.11746329 C40.7375622,7.65791459 41.1069652,6.54749237 40.641791,5.63762286 C39.8246269,4.03566193 38.5876866,2.76159854 37.136194,1.89725326 C35.6840796,1.03229279 34.0155473,0.570283325 32.3103234,0.569668133 C30.8949005,0.56905294 29.4527363,0.890798549 28.1094527,1.56320381 C26.4900498,2.37156658 25.2014925,3.5951842 24.3283582,5.03104318 C23.4539801,6.46751736 22.9863184,8.11807849 22.9863184,9.80493596 C22.9856965,11.2051138 23.3109453,12.6317449 23.9900498,13.9605604 C24.454602,14.8704299 25.5771144,15.235239 26.4968905,14.7756903 C27.4160448,14.3161416 27.7848259,13.2057194 27.3202736,12.2958499" id="Fill-16" fill="#E6E6E6"></path>
                        <path d="M10.0298507,77.5837551 C7.62002488,78.1774157 5.16355721,76.7932329 4.43345771,74.4444284 C-3.37997512,49.313205 8.06840796,22.0860212 32.3843284,9.93289597 C56.8669154,-2.30328022 86.0466418,4.91354144 101.787935,26.3849855 C103.174751,28.276702 102.956468,30.8685074 101.25995,32.4938457 C97.3501244,36.2403672 86.9807214,43.4910244 59.6890547,56.6432221 C29.0889303,71.3899983 15.795398,76.1645063 10.0298507,77.5837551" id="Fill-17" fill="#E6E6E6"></path>
                        <path d="M10.0298507,77.5837551 L9.57960199,75.7929301 C9.35136816,75.8489126 9.12562189,75.8753659 8.90360697,75.8753659 C8.30534826,75.8759811 7.72512438,75.6821955 7.24751244,75.3364574 C6.77052239,74.9894889 6.40422886,74.5034869 6.21641791,73.9024439 C4.62935323,68.7975777 3.86567164,63.6078149 3.86567164,58.4826472 C3.86567164,48.8505803 6.56467662,39.4436739 11.5839552,31.2868382 C16.6032338,23.1300026 23.9365672,16.2238531 33.2257463,11.5803811 C41.0174129,7.68682864 49.2866915,5.83386922 57.425995,5.83325403 C74.028607,5.83509961 90.0715174,13.5477663 100.277985,27.4683392 C100.652985,27.9814097 100.830224,28.5615361 100.831468,29.1441232 C100.829602,29.8872756 100.541667,30.611357 99.9620647,31.1681061 C98.1666667,32.8918751 94.6909204,35.5876481 88.2699005,39.466436 C81.8482587,43.348915 72.4800995,48.4267128 58.8725124,54.9840483 C43.596393,62.3454401 32.653607,67.2116118 24.8345771,70.4056905 C17.0174129,73.5997693 12.3152985,75.1205248 9.57960199,75.7929301 L10.4807214,79.3751953 C13.5093284,78.6277365 18.3370647,77.0522289 26.2587065,73.8169322 C34.1772388,70.5822507 45.181592,65.6871651 60.5062189,58.3023959 C74.1902985,51.7075337 83.6523632,46.5835965 90.215796,42.6162209 C96.7798507,38.6457694 100.443408,35.8423377 102.557836,33.8195852 C103.879353,32.5547497 104.564677,30.8494365 104.562811,29.1441232 C104.563433,27.8054646 104.142413,26.4520414 103.298507,25.3016317 C92.3781095,10.4065941 75.193408,2.14025425 57.425995,2.14209982 C48.7145522,2.14148463 39.8594527,4.12917117 31.5429104,8.286026 C21.6268657,13.2414005 13.7674129,20.636628 8.39614428,29.3680533 C3.02425373,38.0988633 0.134328358,48.1677168 0.134328358,58.4826472 C0.134328358,63.9707784 0.952736318,69.5290414 2.64987562,74.9870281 C3.07835821,76.3669046 3.94278607,77.5191599 5.04415423,78.3152188 C6.14552239,79.1125081 7.49191542,79.5665201 8.90360697,79.5665201 C9.42537313,79.5665201 9.95584577,79.5043856 10.4807214,79.3751953 L10.0298507,77.5837551" id="Fill-18" fill="#CCCCCC"></path>
                    </g>
                </g>
                <g id="Combined-Shape">
                    <use fill-opacity="0.533118207" fill="#E6E6E6" fill-rule="evenodd" xlink:href="#path-1"></use>
                    <path stroke-opacity="0.511407382" stroke="#CCCCCC" stroke-width="4" d="M8,2 C4.6862915,2 2,4.6862915 2,8 L2,291 C2,294.313708 4.6862915,297 8,297 L236,297 C239.313708,297 242,294.313708 242,291 L242,8 C242,4.6862915 239.313708,2 236,2 L8,2 Z M31,20 L214,20 C219.522847,20 224,24.4771525 224,30 L224,213 C224,218.522847 219.522847,223 214,223 L31,223 C25.4771525,223 21,218.522847 21,213 L21,30 C21,24.4771525 25.4771525,20 31,20 Z"></path>
                </g>
                <g id="Group-3" transform="translate(155.241487, 134.080322) rotate(15.000000) translate(-155.241487, -134.080322) translate(130.741487, 97.080322)" fill="url(#linearGradient-2)">
                    <path d="M17.3250279,49.9240021 C15.1662581,49.5667435 13.8330644,47.6901956 13.9037218,45.4601498 L14.2867593,37.1444858 C14.3258069,34.5195752 16.1350084,32.8696045 18.7149335,33.0049867 C27.6744789,33.6113862 33.1067321,31.0024582 34.0745526,25.0240176 L34.1052328,24.8341064 C34.9652079,19.5194146 31.5280968,15.1514581 24.7719469,14.0326746 C19.7980372,13.2100397 15.4712006,14.3448058 11.1657472,17.1398843 C10.103097,17.7434633 8.79221611,18.1110636 7.47761642,17.8929478 C4.56950622,17.4115889 2.60597402,14.6512961 3.06710658,11.8045091 C3.29767286,10.3811156 4.10651425,8.95584182 5.60426538,8.03355053 C11.3461096,4.11310743 18.1403772,2.0212643 26.7745267,3.45029871 C39.9112265,5.62487542 47.628689,14.5036919 45.7088528,26.3646775 L45.6781726,26.5545886 C43.7425315,38.51147 34.3274318,42.5071254 23.6191155,42.5860984 L22.5378712,46.8891842 C21.8247892,48.9152166 20.0462679,50.3743359 17.8874981,50.0170773 L17.3250279,49.9240021 L17.3250279,49.9240021 Z M16.2038064,56.8519985 C20.0509164,57.4884829 22.4049237,60.8015864 21.8061952,64.5029735 L21.6527942,65.4515891 C21.0540657,69.1529763 17.7777932,71.5343869 13.9306832,70.8969624 C10.0826435,70.260478 7.72863616,66.9473745 8.32736473,63.2459873 L8.48076568,62.2973717 C9.08042396,58.5959846 12.3566964,56.2155141 16.2038064,56.8519985 L16.2038064,56.8519985 Z" id="Fill-19" opacity="0.489696558"></path>
                    <path d="M15.081667,74 C14.5209309,74 13.953631,73.9527643 13.3844558,73.8601824 C10.7861286,73.4322274 8.54130888,72.0784534 7.06351614,70.0501542 C5.58197266,68.015242 4.99498138,65.482466 5.41225154,62.9175697 L5.56696969,61.9643541 C5.98423985,59.3985131 7.34107112,57.1850502 9.38991448,55.733026 C11.432194,54.2857254 13.9911384,53.7283446 16.5866526,54.1525209 C19.1849798,54.5814206 21.4297995,55.9342499 22.9066545,57.9625491 C24.3891357,59.9965166 24.976127,62.5302373 24.5588568,65.0951336 L24.4041387,66.0483492 C23.9868685,68.6141902 22.6300372,70.8276531 20.5802562,72.2796773 C18.9861904,73.4095543 17.0779999,74 15.081667,74 L15.081667,74 Z M14.8969429,59.6819271 C14.0511503,59.6819271 13.264432,59.9171607 12.6277434,60.3687336 C11.8250844,60.9374509 11.2896658,61.8292601 11.1199447,62.8797812 L10.9642888,63.8320521 C10.79363,64.8835178 11.0196123,65.9000292 11.5991021,66.6973671 C12.2001587,67.521157 13.1565981,68.0785378 14.2930733,68.265591 C15.4295484,68.4554784 16.5135131,68.2325261 17.343365,67.6439697 C18.1450863,67.0752524 18.6814426,66.1834432 18.8521014,65.1329221 L19.0068195,64.1797065 C19.1774783,63.1291855 18.951496,62.1126741 18.3710686,61.3153362 C17.770012,60.4915463 16.8145102,59.9341655 15.6780351,59.7471123 C15.41267,59.7027108 15.1519934,59.6819271 14.8969429,59.6819271 L14.8969429,59.6819271 Z M18.4629618,52.9678505 C18.1038281,52.9678505 17.7409437,52.9385644 17.3752463,52.8790475 L16.8098218,52.7855209 L16.8088841,52.7855209 C13.2681827,52.2016881 10.8808348,49.1701036 10.9999209,45.4110898 L11.3871851,37.0144791 C11.4153157,35.0712041 12.1748411,33.2516865 13.5232333,31.9810473 C14.8838153,30.6981268 16.7610621,30.0557218 18.8099055,30.1568061 C26.4670473,30.6735642 30.6875709,28.7718566 31.3795829,24.5093108 L31.4114643,24.3165893 C32.0481529,20.397919 29.3973153,17.5571665 24.319747,16.7201506 C20.1564222,16.0323994 16.5313291,16.8694153 12.5686692,19.429588 L12.4280163,19.5155569 C10.6661048,20.5141187 8.69696471,20.9005064 6.87597899,20.5991429 C4.72680326,20.2448755 2.83830416,19.0734311 1.55836312,17.3020939 C0.273733643,15.5260332 -0.241993518,13.3673635 0.105887895,11.2256988 C0.48846368,8.86674997 1.87623859,6.78838098 3.91851814,5.51207348 C10.9989832,0.713875246 18.6317452,-0.927091543 27.2481395,0.492812363 C34.4701952,1.68315097 40.3260427,4.73551924 44.1818065,9.31832287 C48.1960391,14.0891244 49.7460337,20.1239522 48.6658197,26.7718988 L48.6348761,26.9636756 C46.8167034,38.1613609 38.7451045,44.643038 25.8162934,45.3799143 L25.2461805,47.6377788 C25.2246137,47.7237477 25.1992962,47.8078272 25.1702279,47.8900172 C24.0703225,51.000013 21.404482,52.9678505 18.4629618,52.9678505 L18.4629618,52.9678505 Z M17.7165639,47.1909294 L18.2829261,47.2844561 C19.1727899,47.4346654 19.6932055,46.4247671 19.8329206,46.0837256 L20.8850041,41.9165958 C21.2000665,40.667685 22.3121618,39.7900464 23.5902274,39.7805993 C35.0581241,39.6965198 41.6162982,35.0759277 43.0819011,26.0482485 L43.1137824,25.8564718 C43.9192544,20.898617 42.8052838,16.4471285 39.8909565,12.98381 C36.9100535,9.44208029 32.2244378,7.05667952 26.3395221,6.08645909 C19.1831044,4.90745704 12.8649779,6.26595459 7.01569417,10.2441418 L6.90410956,10.31594 C5.9870529,10.878989 5.73012701,11.7008895 5.65886289,12.1411258 C5.55571746,12.7759731 5.71418635,13.4240463 6.10613899,13.965367 C6.50934386,14.5236925 7.105712,14.8930753 7.78459648,15.0045515 C8.3228281,15.0961887 8.98483424,14.9488134 9.61027063,14.6087167 C14.6606461,11.3636269 19.7672826,10.2271369 25.2274268,11.1255592 C33.3984204,12.4736649 38.114042,18.1428887 36.9635016,25.2339058 L36.9316203,25.4266273 C36.2339821,29.7241275 32.8967585,36.7849138 18.4770271,35.8146934 C17.9959943,35.7910755 17.6012286,35.8987728 17.3668071,36.1198357 C17.0817507,36.389079 17.0161127,36.850099 17.0114242,37.1883063 L16.6222846,45.6349868 C16.6129078,45.9240691 16.6607298,47.0171022 17.7165639,47.1909294 L17.7165639,47.1909294 Z" id="Fill-20"></path>
                </g>
            </g>
        </g>
    </g>
</svg>