<?xml version="1.0" encoding="UTF-8"?>
<svg width="14px" height="14px" viewBox="0 0 14 14" version="1.1" xmlns="http://www.w3.org/2000/svg" xmlns:xlink="http://www.w3.org/1999/xlink">
    <!-- Generator: Sketch 46.2 (44496) - http://www.bohemiancoding.com/sketch -->
    <title>Group 2</title>
    <desc>Created with Sketch.</desc>
    <defs></defs>
    <g id="Symbols" stroke="none" stroke-width="1" fill="none" fill-rule="evenodd">
        <g id="tab_diary" transform="translate(-340.000000, -11.000000)" fill="#FFFFFF">
            <g id="Group-9">
                <g id="Group-2" transform="translate(340.000000, 11.000000)">
                    <path d="M12.9911282,5.60695026 C12.8990573,5.69903836 12.775717,5.74638555 12.6471651,5.74681993 C12.5181789,5.74638555 12.3948386,5.69903836 12.3027676,5.60695026 C12.3014647,5.60564713 12.2997275,5.60564713 12.2988589,5.60434399 C12.2589036,5.56524999 12.2119996,5.53397478 12.1607525,5.51269027 C12.0552184,5.46925249 11.9357867,5.46925249 11.8298183,5.51269027 C11.7772683,5.53440916 11.7290614,5.56655312 11.6882375,5.60695026 C11.6478478,5.6473474 11.6161442,5.69599772 11.5944293,5.74855744 C11.5505653,5.85454563 11.5505653,5.97356516 11.5944293,6.07955335 C11.6161442,6.13211307 11.6478478,6.18076339 11.6882375,6.22116053 L11.6886718,6.22116053 L12.5568313,7.08991621 C12.6493366,7.18200432 12.6966749,7.30536762 12.6971092,7.43437784 C12.6966749,7.56338806 12.6493366,7.68675137 12.5568313,7.77883947 C12.4647604,7.87092757 12.34142,7.91827476 12.2128682,7.91870914 C12.083882,7.91827476 11.9605416,7.87092757 11.8684707,7.77883947 L9.66224231,5.57220003 C9.49243221,5.4023583 9.21752225,5.4023583 9.04771216,5.57220003 L5.57333675,9.04722277 C5.49255752,9.12801705 5.44652205,9.24008653 5.44652205,9.3543279 C5.44652205,9.46856928 5.49255752,9.58063876 5.57333675,9.66143304 L7.77956513,11.8680725 C7.87207038,11.9601606 7.91940874,12.0835239 7.91984304,12.2125341 C7.91940874,12.3415443 7.87207038,12.4649076 7.77956513,12.5569957 C7.68749418,12.6490838 7.56415386,12.696431 7.43560197,12.6968654 C7.30661578,12.696431 7.18327545,12.6490838 7.0912045,12.5569957 L6.22261065,11.68824 C6.18178674,11.6474085 6.13314549,11.6156989 6.08059556,11.5939801 C6.02804563,11.5722612 5.97245562,11.5614017 5.91599702,11.5609673 L5.91512843,11.5609673 C5.85910413,11.5609673 5.80264553,11.5722612 5.7496613,11.5939801 C5.69711137,11.6156989 5.64890441,11.6478429 5.6080805,11.68824 C5.56769089,11.7286372 5.53598721,11.7772875 5.51427237,11.8298472 C5.49255752,11.8828413 5.4808315,11.9388761 5.4808315,11.9953452 C5.4808315,11.9957796 5.4812658,11.9957796 5.4812658,11.9962139 C5.4812658,12.0522487 5.49255752,12.1082834 5.51427237,12.1608431 C5.53511862,12.2120997 5.56682229,12.2590125 5.60590902,12.2989753 C5.60677761,12.299844 5.60721191,12.3015816 5.6080805,12.3024503 C5.70058575,12.3945384 5.74792411,12.5179017 5.74835841,12.6469119 C5.74792411,12.7759222 5.70058575,12.8992855 5.6080805,12.9913736 C5.51600955,13.0834617 5.39266923,13.1308089 5.26411734,13.1312432 C5.13513115,13.1308089 5.01179082,13.0834617 4.91971988,12.9913736 L1.01104754,9.081973 C0.912896438,8.98293485 0.869901042,8.86565283 0.868598151,8.73751137 C0.869901042,8.6093699 0.912896438,8.49208789 1.01104754,8.39304974 C1.10311849,8.30096164 1.22645882,8.25361445 1.35544501,8.25318007 C1.4839969,8.25361445 1.60733722,8.30096164 1.69940817,8.39304974 C1.70071106,8.39435287 1.70244825,8.39478725 1.70331684,8.39565601 C1.74327216,8.43475001 1.79017623,8.46602522 1.84098897,8.48730973 C1.89223601,8.50815987 1.94695742,8.51858494 2.00124453,8.51945369 C2.00298172,8.51945369 2.00471891,8.52032245 2.0064561,8.52032245 C2.00775899,8.52032245 2.00906188,8.51945369 2.01036477,8.51945369 C2.06552048,8.51901931 2.12024189,8.50859424 2.17192323,8.48730973 C2.22447315,8.46559084 2.27311441,8.43388126 2.31393832,8.39304974 C2.35432793,8.3526526 2.38603161,8.30400228 2.40774646,8.25144256 C2.45117615,8.14545437 2.45117615,8.02643484 2.40774646,7.92044665 C2.38603161,7.86788693 2.35432793,7.81923661 2.31393832,7.77883947 L1.44534447,6.91008379 C1.34719336,6.81104564 1.30419797,6.69376362 1.30289508,6.56562216 C1.30419797,6.43748069 1.34719336,6.32019868 1.44534447,6.22116053 C1.53741542,6.12907243 1.66075574,6.08172524 1.78974193,6.08129086 C1.91829382,6.08172524 2.04163415,6.12907243 2.1337051,6.22116053 L4.34861942,8.43648752 C4.42983294,8.5172818 4.54144725,8.56376023 4.65566734,8.56376023 C4.77032173,8.56376023 4.88193604,8.5172818 4.96314957,8.43648752 L8.43752497,4.96146479 C8.5183042,4.88067051 8.56433968,4.76860103 8.56433968,4.65435965 C8.56433968,4.54011828 8.5183042,4.4280488 8.43752497,4.34725452 L6.22261065,2.13192753 C6.12445955,2.03288938 6.08146415,1.91560736 6.08016126,1.7874659 C6.08146415,1.65932443 6.12445955,1.54204242 6.22261065,1.44300427 C6.3146816,1.35091617 6.43802193,1.30356898 6.56700811,1.3031346 C6.69556,1.30356898 6.81890033,1.35091617 6.91097128,1.44300427 L7.77956513,2.31175995 C7.78217091,2.31436622 7.78564529,2.3148006 7.78781677,2.31740686 C7.8269035,2.35476336 7.87163608,2.38560419 7.92114593,2.40601994 C7.97413015,2.42773884 8.02972016,2.43859828 8.08574446,2.43903266 L8.08661306,2.43903266 C8.14307166,2.43903266 8.19909596,2.42773884 8.25208019,2.40601994 C8.30463012,2.38430105 8.35327137,2.35259147 8.39409528,2.31175995 C8.4344849,2.27136281 8.46618857,2.2227125 8.48790342,2.17015278 C8.50961826,2.11715868 8.52090998,2.06112394 8.52090998,2.00465482 L8.52090998,2.00378606 C8.52090998,1.94775132 8.50961826,1.89171658 8.48790342,1.83915686 C8.46749146,1.78920341 8.43622208,1.74402811 8.39887255,1.70493411 C8.39670106,1.70276222 8.39626677,1.69972157 8.39409528,1.69754968 C8.29594418,1.59851154 8.25294878,1.48122952 8.25164589,1.35308806 C8.25294878,1.22494659 8.29594418,1.10766458 8.39409528,1.00862643 C8.48616623,0.916538325 8.60950656,0.86919114 8.73849274,0.868756762 C8.86704463,0.86919114 8.99038496,0.916538325 9.08245591,1.00862643 L10.4226962,2.34911645 C10.5034755,2.42991073 10.6155241,2.47638916 10.7297441,2.47638916 C10.8443985,2.47638916 10.9560128,2.42991073 11.0367921,2.34911645 L11.471089,1.91473861 C11.5570798,1.82916617 11.665654,1.78790028 11.7781369,1.7874659 C11.8910541,1.78790028 11.9996284,1.82916617 12.0851849,1.91473861 L12.0856192,1.91473861 C12.1711756,2.00074542 12.2119996,2.10933988 12.2124339,2.22184374 C12.2119996,2.3343476 12.1711756,2.44294206 12.0856192,2.52894887 L11.6513222,2.96332672 C11.5701087,3.04412099 11.5240732,3.15619048 11.5240732,3.27043185 C11.5240732,3.3851076 11.5701087,3.49674271 11.6513222,3.57753698 L12.9911282,4.918027 C13.0836335,5.01011511 13.1309719,5.13347841 13.1314061,5.26248863 C13.1309719,5.39149885 13.0836335,5.51486216 12.9911282,5.60695026 L12.9911282,5.60695026 Z M2.52196655,12.0943833 C2.43597576,12.1799558 2.32740153,12.2212217 2.21491862,12.221656 C2.12936213,12.2212217 2.04988579,12.1895121 1.97692391,12.1404274 L2.00819328,12.0943833 C1.92263679,12.0083765 1.83100014,11.8997821 1.83056584,11.7872782 C1.83100014,11.6747743 1.84706913,11.5661799 1.93262562,11.4801731 L1.92003101,11.4801731 L1.91395085,11.4740918 L2.04119985,11.3468191 L2.6552957,11.9610293 L2.52196655,12.0943833 L2.52196655,12.0943833 Z M1.80146795,11.9923045 C1.77714732,11.9771013 1.74891802,11.9671106 1.70114536,11.9671106 L1.80146795,11.9671106 L1.80146795,11.9923045 L1.80146795,11.9923045 Z M12.572466,3.27043185 L12.699715,3.14315914 C12.9533444,2.88991686 13.0818963,2.55370841 13.0810277,2.22184374 C13.0818963,1.88997907 12.9533444,1.55377062 12.699715,1.30052834 C12.4465199,1.04685168 12.1103741,0.918275836 11.7781369,0.918710214 C11.4463341,0.918275836 11.1101883,1.04685168 10.8569931,1.30052834 L10.7297441,1.42780104 L9.69698606,0.394416159 C9.43293353,0.130314431 9.08289021,-0.000433299099 8.73849274,1.07874309e-06 C8.39366098,-0.000433299099 8.04361766,0.130314431 7.77956513,0.394416159 C7.6566591,0.516910711 7.56589104,0.658952265 7.50031221,0.808378242 C7.23929976,0.559914117 6.90141675,0.433944543 6.56700811,0.434378921 C6.22217636,0.433944543 5.87213303,0.564692273 5.6080805,0.828794001 C5.34142219,1.09463324 5.21069882,1.44647929 5.21156741,1.7874659 C5.21069882,2.1284525 5.34142219,2.48029856 5.6080805,2.74613779 L7.5159469,4.65435965 L4.65566734,7.51517212 L2.74823525,5.60695026 C2.48418272,5.34284853 2.13413939,5.2121008 1.78974193,5.21253518 C1.44491017,5.2121008 1.09486685,5.34284853 0.830814319,5.60695026 C0.564156006,5.8727895 0.433432632,6.22463555 0.434301226,6.56562216 C0.433432632,6.89705245 0.55937874,7.2371703 0.811270957,7.50040327 C0.661004221,7.56555995 0.518989126,7.65634492 0.396517393,7.77883947 C0.129859081,8.04467871 -0.000864294038,8.39652476 4.29981346e-06,8.73751137 C-0.000864294038,9.07849797 0.129859081,9.43034403 0.396517393,9.69618326 L1.43014408,10.7295682 L1.29377484,10.8659628 L1.29334054,10.8659628 C1.03971114,11.1192051 0.911593547,11.4549791 0.912027844,11.7872782 C0.911593547,12.1191429 1.03971114,12.4553513 1.29334054,12.7085936 C1.33850743,12.7537689 1.42406392,12.7867816 1.5113576,12.8085005 C1.73502052,12.9922423 1.98256977,13.0908461 2.26486277,13.0904117 C2.59709992,13.0908461 2.90805651,12.9622703 3.16125162,12.7085936 L3.14865701,12.7085936 L3.2776432,12.5778459 L4.30518973,13.6055838 C4.56924226,13.8696856 4.91928558,14.0004333 5.26411734,13.9999989 C5.6085148,14.0004333 5.95855812,13.8696856 6.22261065,13.6055838 C6.34464809,13.4830893 6.43541615,13.3410477 6.50099498,13.190753 C6.76200743,13.4400859 7.10032474,13.5660555 7.43560197,13.5656211 C7.77999943,13.5660555 8.13004275,13.4353077 8.39409528,13.171206 C8.65771352,12.9071043 8.78843689,12.5569957 8.78843689,12.2125341 C8.78843689,11.8680725 8.65771352,11.5179639 8.39366098,11.2538622 L8.39409528,11.2538622 L6.49491483,9.3543279 L9.35519438,6.49351544 L11.2539405,8.39304974 C11.5179931,8.65715147 11.8680364,8.7878992 12.2128682,8.78746482 C12.5572656,8.7878992 12.9073089,8.65715147 13.1713615,8.39304974 C13.4349797,8.12894801 13.5657031,7.77883947 13.5657031,7.43437784 C13.5657031,7.09947253 13.439757,6.76109219 13.1904705,6.49959673 C13.3407373,6.43444005 13.4831867,6.34365508 13.6056584,6.22116053 C13.8692766,5.9570588 14,5.60695026 14,5.26248863 C14,4.918027 13.8692766,4.56791846 13.6052241,4.30381674 L12.572466,3.27043185 L12.572466,3.27043185 Z" id="Fill-116"></path>
                    <g id="Group-3">
                        <path d="M1.63201449,8.35042745 L6.54215942,13.2604087 C6.71669275,13.4349362 6.99924928,13.4349362 7.17378261,13.2604087 C7.34786957,13.0863276 7.34786957,12.8037805 7.17378261,12.6292529 L1.37088406,6.82654781 C1.19635072,6.65202029 0.913794203,6.65202029 0.73926087,6.82654781 C0.565173913,7.00107533 0.565173913,7.28362243 0.73926087,7.45770358 L1.63201449,8.35042745" id="Fill-33"></path>
                        <path d="M4.74007905,13.2614921 C4.91272727,13.0888517 4.91272727,12.8086431 4.74007905,12.63556 L0.755889328,8.65155141 C0.582798419,8.47846837 0.302577075,8.47846837 0.129486166,8.65155141 C-0.0431620553,8.82463445 -0.0431620553,9.10484306 0.129486166,9.27748343 L4.11367589,13.2614921 C4.2867668,13.4345751 4.56698814,13.4345751 4.74007905,13.2614921" id="Fill-34"></path>
                        <path d="M7.71897101,2.26347093 L12.6291159,7.17345219 C12.8036493,7.34797971 13.0862058,7.34797971 13.2607391,7.17345219 C13.4348261,6.99937104 13.4348261,6.71682393 13.2607391,6.54229642 L7.45784058,0.739591289 C7.28330725,0.565063773 7.00075072,0.565063773 6.82621739,0.739591289 C6.65213043,0.914118805 6.65213043,1.19666591 6.82621739,1.37074706 L7.71897101,2.26347093" id="Fill-35"></path>
                        <path d="M12.635415,4.73975294 C12.8085059,4.91283598 13.0887273,4.91283598 13.2618182,4.73975294 C13.4344664,4.56711256 13.4344664,4.28690395 13.2618182,4.11382091 L9.27762846,0.129812281 C9.10453755,-0.0432707604 8.82431621,-0.0432707604 8.6512253,0.129812281 C8.47857708,0.302895323 8.47857708,0.58310393 8.6512253,0.755744304 L12.635415,4.73975294" id="Fill-37"></path>
                    </g>
                </g>
            </g>
        </g>
    </g>
</svg>