<?xml version="1.0" encoding="UTF-8"?>
<svg width="213px" height="277px" viewBox="0 0 213 277" version="1.1" xmlns="http://www.w3.org/2000/svg" xmlns:xlink="http://www.w3.org/1999/xlink">
    <!-- Generator: Sketch 47 (45396) - http://www.bohemiancoding.com/sketch -->
    <title>Group 2</title>
    <desc>Created with Sketch.</desc>
    <defs>
        <linearGradient x1="50%" y1="-94.7691609%" x2="50%" y2="100%" id="linearGradient-1">
            <stop stop-color="#FFFFFF" offset="0%"></stop>
            <stop stop-color="#FFFFFF" stop-opacity="0" offset="100%"></stop>
        </linearGradient>
        <linearGradient x1="101.499999%" y1="-0.499999523%" x2="0.499999523%" y2="101.499999%" id="linearGradient-2">
            <stop stop-color="#26D0CE" offset="0%"></stop>
            <stop stop-color="#1A2980" offset="100%"></stop>
        </linearGradient>
    </defs>
    <g id="design" stroke="none" stroke-width="1" fill="none" fill-rule="evenodd">
        <g id="0.-first_intro" transform="translate(-931.000000, -347.000000)">
            <g id="Group-2" transform="translate(931.000000, 331.000000)">
                <path d="M36.5,123.5 L172.5,123.5 L172.5,123.5 C174.709139,123.5 176.5,125.290861 176.5,127.5 L176.5,206.5 L176.5,206.5 C176.5,208.709139 174.709139,210.5 172.5,210.5 L36.5,210.5" id="Rectangle-15" fill="#FFFFFF" transform="translate(106.500000, 167.000000) rotate(-90.000000) translate(-106.500000, -167.000000) "></path>
                <polygon id="Rectangle-15-Copy" fill="url(#linearGradient-1)" points="63 237 150 237 213 293 0 293"></polygon>
                <g id="Page-1" transform="translate(92.000000, 123.000000)" fill="url(#linearGradient-2)">
                    <g id="Group-3" transform="translate(0.000000, 0.070000)">
                        <path d="M56.2627,85.2051 C37.6807,83.1231 23.6327,76.2071 14.5077,64.6501 C4.6537,52.1701 0.8157,34.4391 3.4087,13.3741 C3.4807,12.7891 4.2197,12.3661 4.8727,12.4041 C5.5297,12.4301 5.5467,12.8431 5.5557,13.0421 C5.5557,13.0441 5.5567,13.0451 5.5567,13.0471 C5.5507,13.2281 5.5447,13.4081 5.5387,13.5891 C5.4587,16.0491 5.3837,18.3741 5.3837,19.2431 C5.3837,19.7951 5.8317,20.2431 6.3837,20.2431 C6.9357,20.2431 7.3837,19.7951 7.3837,19.2431 C7.3837,18.4061 7.4587,16.0971 7.5377,13.6541 C7.6227,11.0051 7.7117,8.2661 7.7117,7.1681 C7.7117,6.0801 8.3897,5.6931 8.9697,5.6931 C9.5667,5.6931 10.2057,6.0931 10.2057,7.2151 L10.2057,17.5651 C10.2057,18.1171 10.6537,18.5651 11.2057,18.5651 C11.7577,18.5651 12.2057,18.1171 12.2057,17.5651 L12.2057,7.2151 L12.2057,5.4541 C12.2057,5.3761 12.1787,5.3071 12.1607,5.2351 C12.1787,5.1621 12.2057,5.0931 12.2057,5.0151 C12.2057,4.0811 12.4587,3.5761 12.6717,3.3161 C13.3517,2.4841 14.7637,3.0411 14.7647,4.9041 L14.7647,16.5331 C14.7647,17.0851 15.2127,17.5331 15.7647,17.5331 C16.3167,17.5331 16.7647,17.0851 16.7647,16.5331 L16.7647,7.9541 C16.7647,7.3841 16.9017,6.9361 17.1587,6.6581 C17.4017,6.3981 17.6967,6.3431 17.9017,6.3431 C18.5537,6.3431 19.2127,6.8791 19.2127,7.9051 C19.2127,9.0511 19.2027,10.2891 19.1937,11.6351 C19.1727,14.4771 19.1487,17.9711 19.2017,22.1181 C16.0877,22.1081 12.8547,24.1031 9.5587,28.0971 C9.2067,28.5231 9.2677,29.1531 9.6937,29.5051 C9.8797,29.6591 10.1057,29.7341 10.3297,29.7341 C10.6167,29.7341 10.9037,29.6101 11.1017,29.3701 C14.7887,24.9021 18.2147,23.2801 21.2837,24.5431 C21.3247,24.5601 21.3667,24.5561 21.4077,24.5671 C21.4907,24.5891 21.5737,24.6151 21.6587,24.6161 C21.7297,24.6161 21.7967,24.5941 21.8657,24.5791 C21.9227,24.5671 21.9797,24.5661 22.0337,24.5441 C22.1267,24.5071 22.2057,24.4481 22.2837,24.3861 C22.3067,24.3661 22.3367,24.3591 22.3587,24.3381 C22.3617,24.3361 22.3637,24.3331 22.3667,24.3311 L22.3687,24.3281 C25.5697,21.2421 27.4387,20.6131 28.4327,20.6641 C28.6557,20.6711 28.8597,20.7101 29.0497,20.7831 L19.8927,30.5601 C19.8847,30.5681 19.8827,30.5801 19.8747,30.5881 C19.8257,30.6431 19.7957,30.7091 19.7607,30.7741 C19.7327,30.8251 19.6977,30.8711 19.6797,30.9251 C19.6597,30.9791 19.6597,31.0371 19.6527,31.0941 C19.6407,31.1671 19.6257,31.2371 19.6307,31.3101 C19.6317,31.3221 19.6267,31.3321 19.6277,31.3441 C21.8837,53.8001 33.7887,66.1161 56.0217,68.9961 C56.0657,69.0011 56.1087,69.0041 56.1517,69.0041 C56.6467,69.0041 57.0767,68.6371 57.1427,68.1331 C57.2127,67.5851 56.8257,67.0831 56.2797,67.0121 C35.2547,64.2891 23.9327,52.6981 21.6707,31.5901 L31.2777,21.3321 C31.6337,20.9511 31.6387,20.3601 31.2867,19.9751 C30.5277,19.1421 29.5897,18.7011 28.4987,18.6661 C26.5527,18.6041 24.2387,19.8631 21.4317,22.4751 C21.3577,22.4511 21.2827,22.4271 21.2077,22.4051 C21.1487,18.1411 21.1737,14.5541 21.1947,11.6511 C21.2047,10.2991 21.2137,9.0571 21.2137,7.9061 C21.2137,5.5931 19.5077,4.3441 17.9027,4.3441 C17.4917,4.3441 17.1007,4.4271 16.7377,4.5761 C16.5937,2.2131 14.9747,0.9301 13.4317,0.9301 C12.5347,0.9301 11.7157,1.3271 11.1247,2.0501 C10.7027,2.5641 10.4317,3.2271 10.2997,3.9891 C9.8887,3.8011 9.4407,3.6941 8.9697,3.6941 C7.3897,3.6941 5.7117,4.9121 5.7117,7.1691 C5.7117,7.8111 5.6797,9.0571 5.6357,10.5191 C5.4197,10.4601 5.1947,10.4171 4.9517,10.4071 C3.4267,10.3531 1.6387,11.3691 1.4227,13.1311 C-1.2373,34.7371 2.7437,52.9811 12.9377,65.8901 C22.4057,77.8821 36.9077,85.0491 56.0397,87.1941 C56.0767,87.1981 56.1147,87.2001 56.1517,87.2001 C56.6547,87.2001 57.0877,86.8221 57.1447,86.3101 C57.2077,85.7611 56.8117,85.2661 56.2627,85.2051" id="Fill-1"></path>
                    </g>
                </g>
                <path d="M69.978,16.186 L72.61,16.186 L69.292,26 L66.66,26 L64.798,19.322 L62.908,26 L60.276,26 L56.972,16.186 L59.73,16.186 L61.662,23.354 L63.594,16.186 L66.1,16.186 L68.06,23.354 L69.978,16.186 Z M73.534,16.186 L81.276,16.186 L81.276,18.23 L76.096,18.23 L76.096,20.064 L80.772,20.064 L80.772,22.094 L76.096,22.108 L76.096,23.956 L81.416,23.956 L81.416,26 L73.534,26 L73.534,16.186 Z M82.984,16.186 L85.546,16.186 L85.546,23.816 L89.704,23.816 L89.704,26 L82.984,26 L82.984,16.186 Z M96.83,18.559 C96.3913311,18.3209988 95.9573355,18.202 95.528,18.202 C95.0333309,18.202 94.583002,18.3256654 94.177,18.573 C93.770998,18.8203346 93.4513345,19.1609978 93.218,19.595 C92.9846655,20.0290022 92.868,20.5119973 92.868,21.044 C92.868,21.5760027 92.9846655,22.0589978 93.218,22.493 C93.4513345,22.9270022 93.770998,23.2676654 94.177,23.515 C94.583002,23.7623346 95.0333309,23.886 95.528,23.886 C95.9293353,23.886 96.3493311,23.7833344 96.788,23.578 C97.2266689,23.3726656 97.6186649,23.0926684 97.964,22.738 L99.462,24.348 C98.9299973,24.9080028 98.2976703,25.353665 97.565,25.685 C96.8323297,26.016335 96.1066703,26.182 95.388,26.182 C94.4173285,26.182 93.5400039,25.9580022 92.756,25.51 C91.9719961,25.0619978 91.3560022,24.4506705 90.908,23.676 C90.4599978,22.9013295 90.236,22.0333381 90.236,21.072 C90.236,20.1199952 90.4646644,19.2613372 90.922,18.496 C91.3793356,17.7306628 92.006996,17.1286689 92.805,16.69 C93.603004,16.2513311 94.4966617,16.032 95.486,16.032 C96.2140036,16.032 96.9326631,16.1836651 97.642,16.487 C98.3513369,16.7903349 98.9533309,17.2033307 99.448,17.726 L97.964,19.518 C97.6466651,19.1166647 97.2686689,18.7970012 96.83,18.559 Z M107.939,16.69 C108.746337,17.1286689 109.380998,17.7306628 109.843,18.496 C110.305002,19.2613372 110.536,20.1199952 110.536,21.072 C110.536,22.0333381 110.305002,22.9013295 109.843,23.676 C109.380998,24.4506705 108.746337,25.0619978 107.939,25.51 C107.131663,25.9580022 106.228672,26.182 105.23,26.182 C104.231328,26.182 103.328337,25.9603356 102.521,25.517 C101.713663,25.0736645 101.079002,24.4623372 100.617,23.683 C100.154998,22.9036628 99.924,22.0333381 99.924,21.072 C99.924,20.1199952 100.154998,19.2613372 100.617,18.496 C101.079002,17.7306628 101.713663,17.1286689 102.521,16.69 C103.328337,16.2513311 104.231328,16.032 105.23,16.032 C106.228672,16.032 107.131663,16.2513311 107.939,16.69 Z M103.907,18.58 C103.491665,18.8320013 103.162668,19.1796644 102.92,19.623 C102.677332,20.0663355 102.556,20.5539973 102.556,21.086 C102.556,21.627336 102.679665,22.1196644 102.927,22.563 C103.174335,23.0063356 103.503331,23.356332 103.914,23.613 C104.324669,23.869668 104.772664,23.998 105.258,23.998 C105.743336,23.998 106.188998,23.869668 106.595,23.613 C107.001002,23.356332 107.320666,23.0063356 107.554,22.563 C107.787335,22.1196644 107.904,21.627336 107.904,21.086 C107.904,20.5539973 107.787335,20.0663355 107.554,19.623 C107.320666,19.1796644 107.001002,18.8320013 106.595,18.58 C106.188998,18.3279987 105.743336,18.202 105.258,18.202 C104.772664,18.202 104.322335,18.3279987 103.907,18.58 Z M111.81,16.186 L114.596,16.186 L117.438,21.926 L120.266,16.186 L123.052,16.186 L123.052,26 L120.784,26 L120.77,19.784 L118.264,25.02 L116.612,25.02 L114.092,19.784 L114.092,26 L111.81,26 L111.81,16.186 Z M124.956,16.186 L132.698,16.186 L132.698,18.23 L127.518,18.23 L127.518,20.064 L132.194,20.064 L132.194,22.094 L127.518,22.108 L127.518,23.956 L132.838,23.956 L132.838,26 L124.956,26 L124.956,16.186 Z M136.66,16.186 L145.074,16.186 L145.074,18.3 L142.134,18.3 L142.134,26 L139.572,26 L139.572,18.3 L136.66,18.3 L136.66,16.186 Z M153.495,16.69 C154.302337,17.1286689 154.936998,17.7306628 155.399,18.496 C155.861002,19.2613372 156.092,20.1199952 156.092,21.072 C156.092,22.0333381 155.861002,22.9013295 155.399,23.676 C154.936998,24.4506705 154.302337,25.0619978 153.495,25.51 C152.687663,25.9580022 151.784672,26.182 150.786,26.182 C149.787328,26.182 148.884337,25.9603356 148.077,25.517 C147.269663,25.0736645 146.635002,24.4623372 146.173,23.683 C145.710998,22.9036628 145.48,22.0333381 145.48,21.072 C145.48,20.1199952 145.710998,19.2613372 146.173,18.496 C146.635002,17.7306628 147.269663,17.1286689 148.077,16.69 C148.884337,16.2513311 149.787328,16.032 150.786,16.032 C151.784672,16.032 152.687663,16.2513311 153.495,16.69 Z M149.463,18.58 C149.047665,18.8320013 148.718668,19.1796644 148.476,19.623 C148.233332,20.0663355 148.112,20.5539973 148.112,21.086 C148.112,21.627336 148.235665,22.1196644 148.483,22.563 C148.730335,23.0063356 149.059331,23.356332 149.47,23.613 C149.880669,23.869668 150.328664,23.998 150.814,23.998 C151.299336,23.998 151.744998,23.869668 152.151,23.613 C152.557002,23.356332 152.876666,23.0063356 153.11,22.563 C153.343335,22.1196644 153.46,21.627336 153.46,21.086 C153.46,20.5539973 153.343335,20.0663355 153.11,19.623 C152.876666,19.1796644 152.557002,18.8320013 152.151,18.58 C151.744998,18.3279987 151.299336,18.202 150.814,18.202 C150.328664,18.202 149.878335,18.3279987 149.463,18.58 Z M72.806,38.604 C74.3833412,39.4253374 75.6106623,40.5779926 76.488,42.062 C77.3653377,43.5460074 77.804,45.2493237 77.804,47.172 C77.804,49.0946763 77.3606711,50.8026592 76.474,52.296 C75.5873289,53.7893408 74.3366747,54.9466626 72.722,55.768 C71.1073253,56.5893374 69.2546771,57 67.164,57 L58.904,57 L58.904,37.372 L67.36,37.372 C69.4133436,37.372 71.2286588,37.7826626 72.806,38.604 Z M70.132,52.156 C70.8973372,51.689331 71.4946645,51.026671 71.924,50.168 C72.3533355,49.309329 72.568,48.3293388 72.568,47.228 C72.568,46.1079944 72.3393356,45.118671 71.882,44.26 C71.4246644,43.401329 70.7946707,42.7340024 69.992,42.258 C69.1893293,41.7819976 68.2746718,41.544 67.248,41.544 L64.028,41.544 L64.028,52.856 L67.5,52.856 C68.4893383,52.856 69.3666628,52.622669 70.132,52.156 Z M94.772,57 L93.428,53.528 L84.944,53.528 L83.572,57 L78.308,57 L86.736,37.372 L92,37.372 L100.232,57 L94.772,57 Z M86.484,49.608 L91.916,49.608 L89.228,42.608 L86.484,49.608 Z M105.23,53.038 C105.687336,53.4580021 105.916,54.0413296 105.916,54.788 C105.916,55.3480028 105.701335,55.9826631 105.272,56.692 L103.032,60.416 L100.652,60.416 L102.108,56.692 C101.47333,56.2439978 101.156,55.6093374 101.156,54.788 C101.156,54.0973299 101.379998,53.5280022 101.828,53.08 C102.276002,52.6319978 102.84533,52.408 103.536,52.408 C104.208003,52.408 104.772664,52.6179979 105.23,53.038 Z M128.918,38.604 C130.495341,39.4253374 131.722662,40.5779926 132.6,42.062 C133.477338,43.5460074 133.916,45.2493237 133.916,47.172 C133.916,49.0946763 133.472671,50.8026592 132.586,52.296 C131.699329,53.7893408 130.448675,54.9466626 128.834,55.768 C127.219325,56.5893374 125.366677,57 123.276,57 L115.016,57 L115.016,37.372 L123.472,37.372 C125.525344,37.372 127.340659,37.7826626 128.918,38.604 Z M126.244,52.156 C127.009337,51.689331 127.606665,51.026671 128.036,50.168 C128.465335,49.309329 128.68,48.3293388 128.68,47.228 C128.68,46.1079944 128.451336,45.118671 127.994,44.26 C127.536664,43.401329 126.906671,42.7340024 126.104,42.258 C125.301329,41.7819976 124.386672,41.544 123.36,41.544 L120.14,41.544 L120.14,52.856 L123.612,52.856 C124.601338,52.856 125.478663,52.622669 126.244,52.156 Z M150.884,57 L149.54,53.528 L141.056,53.528 L139.684,57 L134.42,57 L142.848,37.372 L148.112,37.372 L156.344,57 L150.884,57 Z M142.596,49.608 L148.028,49.608 L145.34,42.608 L142.596,49.608 Z" id="WELCOME-TO-DA,-DA" fill="#FFFFFF" opacity="0.847939312"></path>
            </g>
        </g>
    </g>
</svg>