<?xml version="1.0" encoding="UTF-8"?>
<svg width="180px" height="179px" viewBox="0 0 180 179" version="1.1" xmlns="http://www.w3.org/2000/svg" xmlns:xlink="http://www.w3.org/1999/xlink">
    <!-- Generator: Sketch 46.2 (44496) - http://www.bohemiancoding.com/sketch -->
    <title>Imported Layers</title>
    <desc>Created with Sketch.</desc>
    <defs>
        <linearGradient x1="101.499999%" y1="-0.499999523%" x2="0.499999523%" y2="101.499999%" id="linearGradient-1">
            <stop stop-color="#26D0CE" offset="0%"></stop>
            <stop stop-color="#1A2980" offset="100%"></stop>
        </linearGradient>
        <linearGradient x1="101.499999%" y1="-0.499999523%" x2="0.499999523%" y2="101.499999%" id="linearGradient-2">
            <stop stop-color="#FF9966" offset="0%"></stop>
            <stop stop-color="#FF5E62" offset="100%"></stop>
        </linearGradient>
    </defs>
    <g id="design" stroke="none" stroke-width="1" fill="none" fill-rule="evenodd">
        <g id="4.1.a_검색결과페이지_noSearch" transform="translate(-630.000000, -329.000000)">
            <g id="Imported-Layers" transform="translate(630.000000, 329.000000)">
                <path d="M91.0646809,167.210043 L91.0646809,167.210043 C88.9437447,170.275404 84.6995745,171.046723 81.6349787,168.925021 L55.1971915,150.624766 C52.1325957,148.503064 51.3605106,144.25966 53.4822128,141.195064 C55.6039149,138.129702 59.8473191,137.358383 62.9119149,139.479319 L89.3497021,157.78034 C92.4150638,159.902043 93.186383,164.145447 91.0646809,167.210043" id="Fill-1" fill="#F2F2F2"></path>
                <path d="M85.4617021,172.423149 C83.6341277,172.423149 81.8555745,171.873191 80.3267234,170.814638 L53.8897021,152.514383 C51.9028085,151.138723 50.5692766,149.064511 50.1334468,146.674723 C49.6991489,144.28417 50.2177021,141.873702 51.5925957,139.886809 C52.9682553,137.899915 55.0417021,136.566383 57.4322553,136.131319 C59.8251064,135.697787 62.2332766,136.214809 64.2209362,137.590468 L90.6571915,155.889957 C94.7726809,158.739319 95.8021277,164.40434 92.9550638,168.517532 L92.9550638,168.518298 C91.5794043,170.505191 89.5051915,171.838723 87.1146383,172.273787 C86.5631489,172.374128 86.0101277,172.423149 85.4617021,172.423149 L85.4617021,172.423149 Z M59.075234,140.578468 C58.8033191,140.578468 58.5283404,140.602979 58.2548936,140.652766 C57.0722553,140.868 56.0489362,141.524426 55.3718298,142.502553 C54.6947234,143.480681 54.4404255,144.670213 54.6548936,145.852085 C54.8708936,147.034723 55.5273191,148.058809 56.5062128,148.735915 L82.9424681,167.035404 C83.9213617,167.712511 85.1131915,167.965277 86.292,167.75234 C87.4746383,167.53634 88.4987234,166.879915 89.1758298,165.901787 C90.5813617,163.871234 90.072766,161.075489 88.0414468,159.669191 L61.6051915,141.368936 C60.8530213,140.849617 59.9775319,140.578468 59.075234,140.578468 L59.075234,140.578468 Z" id="Fill-2" fill="#CCCCCC"></path>
                <path d="M52.8372766,100.577872 C67.4119149,110.667064 71.0486809,130.660851 60.9594894,145.235489 C50.8702979,159.810128 30.8765106,163.446894 16.3018723,153.357702 C1.72723404,143.269277 -1.90953191,123.274723 8.17965957,108.700085 C18.2688511,94.1254468 38.2626383,90.4886809 52.8372766,100.577872" id="Fill-3" fill="#E6E6E6"></path>
                <path d="M34.4971915,161.371149 C27.5691064,161.371149 20.8118298,159.273957 14.994383,155.247319 C7.44051064,150.018128 2.37523404,142.161702 0.731489362,133.122638 C-0.912255319,124.083574 1.06161702,114.945702 6.29004255,107.392596 C11.519234,99.8387234 19.3764255,94.7726809 28.4154894,93.1297021 C37.4553191,91.4836596 46.5908936,93.4605957 54.144766,98.6890213 L54.144766,98.6890213 C61.6986383,103.917447 66.7639149,111.774638 68.4084255,120.813702 C70.0521702,129.852 68.0775319,138.989872 62.8491064,146.542979 C57.6199149,154.097617 49.7627234,159.162894 40.7244255,160.805872 C38.6471489,161.184255 36.5645106,161.371149 34.4971915,161.371149 L34.4971915,161.371149 Z M34.632,97.1624681 C32.8411915,97.1624681 31.0381277,97.3233191 29.2373617,97.6511489 C21.4062128,99.0758298 14.5991489,103.463234 10.0692766,110.007574 C0.717702128,123.518298 4.10093617,142.117277 17.6093617,151.468085 C24.155234,155.997957 32.0729362,157.710638 39.9017872,156.284426 C47.7321702,154.861277 54.54,150.47234 59.0698723,143.928 C63.5997447,137.382894 65.3108936,129.466723 63.8862128,121.635574 C62.4622979,113.804426 58.0733617,106.997362 51.5290213,102.467489 L51.5282553,102.467489 C46.4890213,98.9793191 40.6340426,97.1624681 34.632,97.1624681 L34.632,97.1624681 Z" id="Fill-4" fill="#CCCCCC"></path>
                <path d="M47.5460426,108.221362 C57.9002553,115.38766 60.4830638,129.590809 53.316766,139.945021 C46.1497021,150.298468 31.9465532,152.881277 21.5931064,145.714979 C11.2388936,138.547915 8.65608511,124.344766 15.8231489,113.991319 C22.9894468,103.637872 37.1925957,101.054298 47.5460426,108.221362" id="Fill-5" fill="#FFFFFF"></path>
                <path d="M34.5171064,152.072426 C29.4610213,152.072426 24.5297872,150.542809 20.2848511,147.60383 C8.90655319,139.727489 6.05642553,124.062128 13.932766,112.683064 C17.7495319,107.171234 23.4827234,103.474723 30.0791489,102.274468 C36.6725106,101.077277 43.3417021,102.515745 48.8542979,106.331745 L48.8535319,106.331745 L48.8542979,106.331745 C60.2333617,114.207319 63.0819574,129.873447 55.205617,141.252511 C51.390383,146.76434 45.6564255,150.461617 39.060766,151.661106 C37.5457021,151.936085 36.0252766,152.072426 34.5171064,152.072426 L34.5171064,152.072426 Z M34.5990638,106.472681 C28.0922553,106.472681 21.6880851,109.554894 17.712,115.298809 C11.2779574,124.593702 13.6057021,137.390553 22.9005957,143.824596 C27.4036596,146.942043 32.850383,148.119319 38.2388936,147.13966 C43.6266383,146.159234 48.3097021,143.13983 51.4271489,138.637532 C54.5438298,134.134468 55.7203404,128.686979 54.7406809,123.299234 C53.7610213,117.910723 50.7408511,113.22766 46.2385532,110.110979 L46.2377872,110.110979 C42.6875745,107.652255 38.6226383,106.472681 34.5990638,106.472681 L34.5990638,106.472681 Z" id="Fill-6" fill="#CCCCCC"></path>
                <path d="M40.5957447,136.50817 C39.1794894,136.50817 37.7655319,136.059319 36.6441702,135.134043 C35.6660426,134.325957 35.5274043,132.877532 36.3354894,131.898638 C37.1420426,130.920511 38.5904681,130.781106 39.5701277,131.589957 C40.0702979,132.003574 41.3609362,132.067915 41.9438298,131.363234 C42.5259574,130.658553 42.2180426,129.403915 41.7171064,128.989532 C40.7382128,128.182213 40.6003404,126.733787 41.4091915,125.754894 C42.2157447,124.776 43.6649362,124.637362 44.6438298,125.446979 C47.2228085,127.577872 47.6172766,131.710213 45.4871489,134.289957 C44.2822979,135.74834 42.4371064,136.50817 40.5957447,136.50817" id="Fill-7" fill="#CCCCCC"></path>
                <path d="M23.868766,134.800851 C23.58,134.800851 23.2881702,134.71966 23.0292766,134.549617 C21.2300426,133.366979 20.2871489,130.414213 21.7202553,128.232 C22.3851064,127.220936 23.4497872,126.538468 24.7197447,126.308681 C25.9085106,126.094213 27.1179574,126.318638 28.0386383,126.924511 C28.745617,127.388681 28.9424681,128.339234 28.4775319,129.045447 C28.0125957,129.753957 27.0635745,129.950043 26.3558298,129.48434 C26.0961702,129.314298 25.6695319,129.251489 25.2635745,129.324255 C24.8354043,129.401617 24.4769362,129.616851 24.2808511,129.914043 C23.8274043,130.604936 24.2165106,131.663489 24.7113191,131.988255 C25.4190638,132.453191 25.6151489,133.402979 25.1509787,134.109957 C24.8560851,134.558043 24.3674043,134.800851 23.868766,134.800851" id="Fill-8" fill="#CCCCCC"></path>
                <path d="M33.8721702,121.153787 C33.5834043,121.153787 33.2915745,121.07183 33.0326809,120.902553 C32.111234,120.297447 31.4249362,119.276426 31.1499574,118.100681 C30.8565957,116.843745 31.0603404,115.595234 31.7236596,114.584936 C32.3869787,113.573872 33.4524255,112.891404 34.722383,112.661617 C35.9111489,112.447915 37.1213617,112.670809 38.0420426,113.277447 C38.7490213,113.741617 38.9458723,114.691404 38.4801702,115.398383 C38.016,116.106894 37.0677447,116.302213 36.359234,115.836511 C36.0988085,115.667234 35.6675745,115.604426 35.2669787,115.676426 C34.8372766,115.754553 34.4803404,115.969021 34.2850213,116.266213 C34.0897021,116.56417 34.0345532,116.977787 34.1333617,117.402128 C34.2268085,117.802723 34.4550638,118.171149 34.7139574,118.341191 C35.4217021,118.805362 35.6185532,119.755149 35.154383,120.462128 C34.8602553,120.910213 34.3708085,121.153787 33.8721702,121.153787" id="Fill-9" fill="#CCCCCC"></path>
                <path d="M142.535489,149.434468 L137.80034,170.663745 C137.441106,172.275319 138.459064,173.878468 140.069872,174.238468 C140.286638,174.285957 140.503404,174.308936 140.71634,174.308936 C142.08817,174.308936 143.332085,173.362213 143.64383,171.96817 L148.345277,150.890553 C147.603064,150.787915 146.859319,150.654638 146.114809,150.488426 C144.889277,150.214979 143.693617,149.861872 142.535489,149.434468" id="Fill-10" fill="#F8F8F8"></path>
                <path d="M138.275234,147.426894 L133.314894,169.663404 C132.403404,173.748255 134.985447,177.81166 139.069532,178.723149 C139.623319,178.847234 140.177106,178.906213 140.723234,178.906213 C144.198383,178.906213 147.341872,176.498809 148.129277,172.968511 L153,151.13183 C152.692851,151.142553 152.383404,151.147915 152.074723,151.147915 C150.840766,151.147915 149.595319,151.06366 148.345277,150.890553 L143.64383,171.96817 C143.332085,173.362213 142.08817,174.308936 140.71634,174.308936 C140.503404,174.308936 140.286638,174.285957 140.069872,174.238468 C138.459064,173.878468 137.441106,172.275319 137.80034,170.663745 L142.535489,149.434468 C141.051064,148.886043 139.627149,148.214298 138.275234,147.426894" id="Fill-11" fill="#E5E5E5"></path>
                <path d="M152.110723,143.895064 C150.642383,143.895064 149.163319,143.731915 147.694979,143.404851 C142.455064,142.236 137.98417,139.09634 135.105702,134.565702 C132.226468,130.033532 131.285872,124.651915 132.454723,119.411234 C133.622809,114.172085 136.762468,109.701191 141.293872,106.822723 C144.555319,104.750809 148.257957,103.682298 152.030298,103.681532 C153.498638,103.681532 154.978468,103.843915 156.446809,104.171745 C161.686723,105.33983 166.157617,108.479489 169.036851,113.010894 C171.914553,117.542298 172.856681,122.923915 171.687064,128.16383 C170.518979,133.403745 167.380085,137.874638 162.847915,140.753872 C159.586468,142.825787 155.88383,143.895064 152.110723,143.895064 M152.026468,101.019064 C147.753191,101.019064 143.561106,102.229277 139.866128,104.57617 C134.734979,107.835319 131.18017,112.899064 129.85583,118.832936 C128.532255,124.766043 129.598468,130.860766 132.858383,135.992681 C136.118298,141.12383 141.181277,144.679404 147.115915,146.002979 C148.777277,146.372936 150.45166,146.556 152.114553,146.556 C156.38783,146.556 160.581447,145.347319 164.27566,143.000426 C169.406809,139.741277 172.961617,134.677532 174.285957,128.74366 C175.609532,122.809787 174.543319,116.71583 171.283404,111.583915 C168.023489,106.452 162.960511,102.897191 157.026638,101.572851 C155.364511,101.202128 153.689362,101.019064 152.026468,101.019064" id="Fill-12" fill="#F2F2F2"></path>
                <path d="M152.114553,146.556 C150.45166,146.556 148.777277,146.372936 147.115915,146.002979 C141.181277,144.679404 136.118298,141.12383 132.858383,135.992681 C129.598468,130.860766 128.532255,124.766043 129.85583,118.832936 C131.18017,112.899064 134.734979,107.835319 139.866128,104.57617 C143.561106,102.229277 147.753191,101.019064 152.026468,101.019064 C153.689362,101.019064 155.364511,101.202128 157.026638,101.572851 C162.960511,102.897191 168.023489,106.452 171.283404,111.583915 C174.543319,116.71583 175.609532,122.809787 174.285957,128.74366 C172.961617,134.677532 169.406809,139.741277 164.27566,143.000426 C160.581447,145.347319 156.38783,146.556 152.114553,146.556 M152.014213,96.4217872 C146.88,96.4217872 141.842298,97.8755745 137.402809,100.696596 C131.234553,104.614468 126.961277,110.7 125.371149,117.83183 C123.779489,124.964426 125.060936,132.288511 128.979574,138.456766 C131.360936,142.206128 134.543489,145.255404 138.275234,147.426894 C139.627149,148.214298 141.051064,148.886043 142.535489,149.434468 C143.693617,149.861872 144.889277,150.214979 146.114809,150.488426 C146.859319,150.654638 147.603064,150.787915 148.345277,150.890553 C149.595319,151.06366 150.840766,151.147915 152.074723,151.147915 C152.383404,151.147915 152.692851,151.142553 153,151.13183 C165.157277,150.717447 176.003234,142.154809 178.770638,129.744766 C182.05583,115.021532 172.749447,100.37183 158.027745,97.0881702 C156.02783,96.642383 154.014128,96.4217872 152.014213,96.4217872" id="Fill-13" fill="#E5E5E5"></path>
                <path d="M151.362383,134.551149 C150.844596,134.551149 150.331404,134.473021 149.831234,134.316766 C148.457106,133.884766 147.330383,132.892851 146.659404,131.523319 C146.032851,130.24417 145.90034,128.791149 146.294043,127.536511 C146.603489,126.555319 147.508851,125.928 148.486979,125.928 C148.714468,125.928 148.946553,125.962468 149.175574,126.033702 L155.109447,127.898043 C156.31966,128.278723 156.992936,129.56783 156.613021,130.778043 C156.218553,132.033447 155.279489,133.148681 154.034043,133.839574 C153.18383,134.310638 152.269277,134.551149 151.362383,134.551149 M160.395319,126.097277 C160.179319,126.097277 159.959489,126.065106 159.741957,125.996936 C158.593787,125.63617 157.954979,124.412936 158.315745,123.264 C158.60834,122.333362 159.467745,121.737447 160.394553,121.737447 C160.610553,121.737447 160.831149,121.769617 161.047915,121.837787 C162.196851,122.198553 162.834894,123.421787 162.474894,124.569957 C162.182298,125.501362 161.322128,126.097277 160.395319,126.097277 M145.98383,121.570468 C145.76783,121.570468 145.548,121.538298 145.330468,121.470128 C144.182298,121.109362 143.543489,119.886128 143.904255,118.737957 C144.196851,117.806553 145.056255,117.210638 145.982298,117.210638 C146.199064,117.210638 146.418894,117.243574 146.636426,117.311745 C147.784596,117.671745 148.423404,118.894979 148.062638,120.043915 C147.770043,120.974553 146.910638,121.570468 145.98383,121.570468 M152.039489,108.279574 C149.129617,108.279574 146.274128,109.102979 143.758723,110.701532 C140.262894,112.922043 137.840936,116.369617 136.939404,120.41234 C136.037872,124.454298 136.764766,128.605787 138.984511,132.100851 C141.205021,135.595915 144.653362,138.017872 148.696085,138.919404 C149.827404,139.171404 150.967915,139.296255 152.1,139.296255 C155.010638,139.296255 157.86766,138.472851 160.38383,136.874298 C163.878894,134.653787 166.300851,131.205447 167.202383,127.162723 C168.103915,123.121532 167.377787,118.970809 165.157277,115.475745 C162.936766,111.979915 159.488426,109.557957 155.446468,108.656426 C154.313617,108.404426 153.173106,108.279574 152.039489,108.279574" id="Fill-14" fill="#F8F8F8"></path>
                <path d="M152.1,139.296255 C150.967915,139.296255 149.827404,139.171404 148.696085,138.919404 C144.653362,138.017872 141.205021,135.595915 138.984511,132.100851 C136.764766,128.605787 136.037872,124.454298 136.939404,120.41234 C137.840936,116.369617 140.262894,112.922043 143.758723,110.701532 C146.274128,109.102979 149.129617,108.279574 152.039489,108.279574 C153.173106,108.279574 154.313617,108.404426 155.446468,108.656426 C159.488426,109.557957 162.936766,111.979915 165.157277,115.475745 C167.377787,118.970809 168.103915,123.121532 167.202383,127.162723 C166.300851,131.205447 163.878894,134.653787 160.38383,136.874298 C157.86766,138.472851 155.010638,139.296255 152.1,139.296255 M152.030298,103.681532 C148.257957,103.682298 144.555319,104.750809 141.293872,106.822723 C136.762468,109.701191 133.622809,114.172085 132.454723,119.411234 C131.285872,124.651915 132.226468,130.033532 135.105702,134.565702 C137.98417,139.09634 142.455064,142.236 147.694979,143.404851 C149.163319,143.731915 150.642383,143.895064 152.110723,143.895064 C155.88383,143.895064 159.586468,142.825787 162.847915,140.753872 C167.380085,137.874638 170.518979,133.403745 171.687064,128.16383 C172.856681,122.923915 171.914553,117.542298 169.036851,113.010894 C166.157617,108.479489 161.686723,105.33983 156.446809,104.171745 C154.978468,103.843915 153.498638,103.681532 152.030298,103.681532" id="Fill-15" fill="#E5E5E5"></path>
                <path d="M145.982298,117.210638 C145.056255,117.210638 144.196851,117.806553 143.904255,118.737957 C143.543489,119.886128 144.182298,121.109362 145.330468,121.470128 C145.548,121.538298 145.76783,121.570468 145.98383,121.570468 C146.910638,121.570468 147.770043,120.974553 148.062638,120.043915 C148.423404,118.894979 147.784596,117.671745 146.636426,117.311745 C146.418894,117.243574 146.199064,117.210638 145.982298,117.210638" id="Fill-16" fill="#E5E5E5"></path>
                <path d="M160.394553,121.737447 C159.467745,121.737447 158.60834,122.333362 158.315745,123.264 C157.954979,124.412936 158.593787,125.63617 159.741957,125.996936 C159.959489,126.065106 160.179319,126.097277 160.395319,126.097277 C161.322128,126.097277 162.182298,125.501362 162.474894,124.569957 C162.834894,123.421787 162.196851,122.198553 161.047915,121.837787 C160.831149,121.769617 160.610553,121.737447 160.394553,121.737447" id="Fill-17" fill="#E5E5E5"></path>
                <path d="M148.486979,125.928 C147.508851,125.928 146.603489,126.555319 146.294043,127.536511 C145.90034,128.791149 146.032851,130.24417 146.659404,131.523319 C147.330383,132.892851 148.457106,133.884766 149.831234,134.316766 C150.331404,134.473021 150.844596,134.551149 151.362383,134.551149 C152.269277,134.551149 153.18383,134.310638 154.034043,133.839574 C155.279489,133.148681 156.218553,132.033447 156.613021,130.778043 C156.992936,129.56783 156.31966,128.278723 155.109447,127.898043 L149.175574,126.033702 C148.946553,125.962468 148.714468,125.928 148.486979,125.928" id="Fill-18" fill="#E5E5E5"></path>
                <path d="M104.323404,103.553617 L104.323404,103.553617 C100.820681,105.669191 96.2249362,104.534809 94.1093617,101.032085 L75.8634894,70.8227234 C73.7479149,67.32 74.8830638,62.7242553 78.3850213,60.6086809 C81.8869787,58.4931064 86.4834894,59.6282553 88.5990638,63.1302128 L106.844936,93.3403404 C108.960511,96.8422979 107.825362,101.438809 104.323404,103.553617" id="Fill-19" fill="url(#linearGradient-1)" opacity="0.543478261"></path>
                <path d="M100.493617,106.920766 C97.1931064,106.920766 93.9699574,105.245617 92.142383,102.220085 L73.8965106,72.0107234 C71.1206809,67.4149787 72.6012766,61.4182979 77.1970213,58.6417021 C81.792,55.8651064 87.7909787,57.3464681 90.5660426,61.9422128 L108.812681,92.1523404 C111.587745,96.7473191 110.107149,102.745532 105.511404,105.521362 C103.941191,106.468851 102.207064,106.920766 100.493617,106.920766 L100.493617,106.920766 Z M82.2071489,61.8395745 C81.2834043,61.8395745 80.3780426,62.0900426 79.5730213,62.5756596 C78.4041702,63.2811064 77.579234,64.4070638 77.2491064,65.7467234 C76.9182128,67.085617 77.1242553,68.4666383 77.8304681,69.6347234 L96.0771064,99.8440851 C97.541617,102.269872 100.708085,103.054213 103.134638,101.586638 L103.135404,101.586638 C105.561957,100.121362 106.344,96.9548936 104.877957,94.5275745 L86.6320851,64.3182128 C85.9266383,63.1493617 84.8006809,62.3244255 83.4610213,61.9935319 C83.0451064,61.8908936 82.6238298,61.8395745 82.2071489,61.8395745 L82.2071489,61.8395745 Z" id="Fill-20" fill="url(#linearGradient-1)"></path>
                <path d="M65.9098723,75.402383 C62.891234,75.402383 59.8534468,75.0354894 56.8478298,74.2932766 C47.1163404,71.8904681 38.9029787,65.8424681 33.7197447,57.2622128 C23.022383,39.5502128 28.728766,16.4366809 46.4415319,5.73778723 C64.1535319,-4.95880851 87.2670638,0.747574468 97.9651915,18.4603404 C108.662553,36.1723404 102.955404,59.2851064 85.2434043,69.983234 C79.3133617,73.5648511 72.6640851,75.402383 65.9098723,75.402383 L65.9098723,75.402383 Z" id="Path" fill="#FFFFFF"></path>
                <path d="M95.9982128,19.6475745 C106.056766,36.3017872 100.710383,57.9569362 84.0561702,68.0162553 C67.4019574,78.0748085 45.7460426,72.7284255 35.6874894,56.0742128 C25.6281702,39.42 30.9753191,17.7640851 47.6295319,7.70553191 C64.2837447,-2.35378723 85.9388936,2.9933617 95.9982128,19.6475745" id="Fill-21" fill="url(#linearGradient-1)" opacity="0.543478261"></path>
                <path d="M65.9098723,75.402383 C62.891234,75.402383 59.8534468,75.0354894 56.8478298,74.2932766 C47.1163404,71.8904681 38.9029787,65.8424681 33.7197447,57.2622128 C23.022383,39.5502128 28.728766,16.4366809 46.4415319,5.73778723 C64.1535319,-4.95880851 87.2670638,0.747574468 97.9651915,18.4603404 C108.662553,36.1723404 102.955404,59.2851064 85.2434043,69.983234 C79.3133617,73.5648511 72.6640851,75.402383 65.9098723,75.402383 L65.9098723,75.402383 Z M65.7880851,4.9373617 C59.9928511,4.9373617 54.1286809,6.46391489 48.816766,9.67251064 C41.2874043,14.219234 35.9800851,21.4276596 33.8721702,29.9673191 C31.7634894,38.5069787 33.1069787,47.3568511 37.6544681,54.8862128 C47.0420426,70.4290213 67.3261277,75.4368511 82.8681702,66.0485106 C98.4109787,56.6617021 103.418809,36.378383 94.031234,20.8355745 C87.8514894,10.6046809 76.949617,4.9373617 65.7880851,4.9373617 L65.7880851,4.9373617 Z" id="Fill-22" fill="url(#linearGradient-1)"></path>
                <path d="M87.264,24.9227234 C94.409617,36.7537021 90.612,52.1371915 78.7810213,59.2828085 C66.9500426,66.4284255 51.5665532,62.6300426 44.4209362,50.7990638 C37.2753191,38.9680851 41.0737021,23.5845957 52.9046809,16.4389787 C64.7348936,9.2933617 80.118383,13.0917447 87.264,24.9227234" id="Fill-23" fill="#FFFFFF"></path>
                <path d="M65.8884255,65.178383 C56.6257021,65.1791489 47.5820426,60.4777021 42.4539574,51.9870638 C34.6649362,39.0906383 38.8202553,22.2610213 51.7166809,14.472 C64.6146383,6.68374468 81.4434894,10.8390638 89.2317447,23.7347234 C93.0048511,29.9818723 94.1193191,37.3243404 92.3698723,44.4102128 C90.6204255,51.4953191 86.2161702,57.4759149 79.9682553,61.2497872 C75.5624681,63.9107234 70.6948085,65.177617 65.8884255,65.178383 L65.8884255,65.178383 Z M65.8049362,15.138383 C61.8058723,15.138383 57.7577872,16.1923404 54.0919149,18.4059574 C43.3646809,24.8851915 39.9094468,38.8838298 46.3886809,49.6110638 C52.8679149,60.3382979 66.8657872,63.7942979 77.5930213,57.3150638 C82.7892766,54.1761702 86.4528511,49.2020426 87.9081702,43.308766 C89.3634894,37.4147234 88.4359149,31.3069787 85.2970213,26.1107234 C81.0329362,19.0493617 73.5089362,15.138383 65.8049362,15.138383 L65.8049362,15.138383 Z" id="Fill-24" fill="url(#linearGradient-1)"></path>
                <path d="M80.2761702,41.9246809 C80.2761702,45.8555745 77.0897872,49.0419574 73.1588936,49.0419574 C69.228766,49.0419574 66.042383,45.8555745 66.042383,41.9246809 C66.042383,37.9945532 69.228766,34.8081702 73.1588936,34.8081702 C77.0897872,34.8081702 80.2761702,37.9945532 80.2761702,41.9246809" id="Fill-25" fill="url(#linearGradient-2)"></path>
                <path d="M126.975064,33.4991489 C126.975064,36.1478298 124.828085,38.2940426 122.18017,38.2940426 C119.532255,38.2940426 117.385277,36.1478298 117.385277,33.4991489 C117.385277,30.851234 119.532255,28.7050213 122.18017,28.7050213 C124.828085,28.7050213 126.975064,30.851234 126.975064,33.4991489" id="Fill-26" fill="url(#linearGradient-2)"></path>
                <path d="M69.8886928,33.4308357 C69.3372034,33.4308357 68.7841821,33.2339846 68.3445226,32.8341548 C64.4657141,29.3115165 60.3241821,31.5504101 59.8653736,31.8169633 C58.7723524,32.4504101 57.3675864,32.092708 56.7241821,31.0065804 C56.0823098,29.9204527 56.4269907,28.5241123 57.5077566,27.8722825 C60.0469055,26.3434314 66.2251183,24.6996867 71.4343949,29.4317718 C72.3734587,30.2850484 72.4439268,31.7380697 71.5906502,32.6778995 C71.1372034,33.1773038 70.5137141,33.4308357 69.8886928,33.4308357" id="Fill-27" fill="url(#linearGradient-2)" transform="translate(64.294551, 29.867453) rotate(139.000000) translate(-64.294551, -29.867453) "></path>
                <path d="M122.33566,75.042383 L118.800766,66.0898723 C117.887745,63.7774468 119.032851,61.1379574 121.345277,60.2249362 C123.657702,59.3111489 126.297191,60.4562553 127.210213,62.7694468 L130.745872,71.7211915" id="Fill-28" fill="#FFABB9"></path>
                <path d="M122.337191,77.3410213 C121.421106,77.3410213 120.55634,76.7895319 120.199404,75.8864681 L116.663745,66.9347234 C115.996596,65.2450213 116.028,63.3921702 116.754894,61.7177872 C117.481021,60.0441702 118.811489,58.7550638 120.501191,58.0879149 C122.19166,57.420766 124.043745,57.4537021 125.716596,58.1790638 C127.390979,58.9051915 128.680085,60.2356596 129.347234,61.9253617 L132.882128,70.8771064 C133.348596,72.0574468 132.769532,73.3917447 131.589191,73.8582128 C130.408851,74.3277447 129.074553,73.7448511 128.608085,72.5645106 L125.073191,63.612766 C124.857191,63.0651064 124.435915,62.6331064 123.888255,62.3948936 C123.340596,62.1589787 122.736255,62.1467234 122.188596,62.3619574 C121.641702,62.5779574 121.208936,62.999234 120.971489,63.5476596 C120.733277,64.0953191 120.721021,64.6988936 120.937787,65.2465532 L124.473447,74.1975319 C124.939149,75.3778723 124.360851,76.7129362 123.180511,77.1794043 C122.903234,77.2881702 122.617532,77.3410213 122.337191,77.3410213" id="Fill-29" fill="url(#linearGradient-2)"></path>
                <path d="M113.395404,79.8587234 C109.467574,79.8587234 106.742298,79.2329362 106.66417,79.2145532 C105.430213,78.9173617 104.669617,77.6765106 104.966809,76.4433191 C105.264,75.2108936 106.504085,74.4510638 107.733447,74.7451915 C108.517787,74.9305532 127.024085,79.0889362 134.811574,62.4393191 C135.349277,61.289617 136.718809,60.7917447 137.866213,61.3302128 C139.015915,61.8679149 139.512255,63.2366809 138.975319,64.385617 C132.80783,77.5708085 120.906383,79.8587234 113.395404,79.8587234" id="Fill-30" fill="url(#linearGradient-2)"></path>
                <path d="M145.701191,62.118383 C144.718468,62.118383 143.809277,61.4834043 143.505957,60.4945532 C142.925362,58.608 142.007745,57.3916596 140.701787,56.7773617 C138.295149,55.6429787 135.122553,56.8600851 135.091915,56.8738723 C133.921532,57.3579574 132.574979,56.8034043 132.089362,55.6307234 C131.603745,54.4588085 132.15983,53.1145532 133.332511,52.6281702 C133.534723,52.5446809 138.348766,50.5891915 142.658809,52.6189787 C145.166553,53.7985532 146.929787,55.9945532 147.897957,59.1441702 C148.270979,60.3574468 147.590043,61.6434894 146.377532,62.0157447 C146.15234,62.0854468 145.924851,62.118383 145.701191,62.118383" id="Fill-31" fill="url(#linearGradient-2)"></path>
            </g>
        </g>
    </g>
</svg>