<?xml version="1.0" encoding="UTF-8"?>
<svg width="80px" height="81px" viewBox="0 0 80 81" version="1.1" xmlns="http://www.w3.org/2000/svg" xmlns:xlink="http://www.w3.org/1999/xlink">
    <!-- Generator: Sketch 46.2 (44496) - http://www.bohemiancoding.com/sketch -->
    <title>graph_4 copy 2</title>
    <desc>Created with Sketch.</desc>
    <defs>
        <path d="M40.1746725,80.620155 C17.90861,80.620155 0,62.5727186 0,40.4861041 C0,18.0474364 17.90861,0 40.1746725,0 C62.09139,0 80,18.0474364 80,40.4861041 C80,62.5727186 62.09139,80.620155 40.1746725,80.620155 Z M39.971179,63.4593277 C52.6737283,63.4593277 62.971179,53.0820518 62.971179,40.2810331 C62.971179,27.4800145 52.6737283,17.1027386 39.971179,17.1027386 C27.2686298,17.1027386 16.971179,27.4800145 16.971179,40.2810331 C16.971179,53.0820518 27.2686298,63.4593277 39.971179,63.4593277 Z" id="path-1"></path>
        <linearGradient x1="101.499999%" y1="-0.499999523%" x2="0.499999523%" y2="101.499999%" id="linearGradient-3">
            <stop stop-color="#26D0CE" offset="0%"></stop>
            <stop stop-color="#1A2980" offset="100%"></stop>
        </linearGradient>
    </defs>
    <g id="design" stroke="none" stroke-width="1" fill="none" fill-rule="evenodd">
        <g id="0.c_공유페이지" transform="translate(-1038.000000, -97.000000)">
            <g id="Group" transform="translate(976.000000, 34.000000)">
                <g id="graph_4-copy-2" transform="translate(62.000000, 63.271318)">
                    <g id="pie">
                        <mask id="mask-2" fill="white">
                            <use xlink:href="#path-1"></use>
                        </mask>
                        <use id="Combined-Shape" fill="#F5F4F0" xlink:href="#path-1"></use>
                        <path d="M3.95085851,62.9561725 C10.721994,74.4176068 23.1031151,82.0916138 37.2548335,82.0916138 C58.6709408,82.0916138 76.0321261,64.5170359 76.0321261,42.8376955 C76.0321261,21.1583551 58.6709408,3.58377722 37.2548335,3.58377722 C32.9782948,3.58377722 28.8634474,4.28456841 25.0162436,5.57889587 L44.9759583,36.3141612 L3.95085851,62.9561725 Z" id="Oval" fill-opacity="0.74000001" fill="#A8B7C7" mask="url(#mask-2)" transform="translate(39.991492, 42.837696) rotate(-303.000000) translate(-39.991492, -42.837696) "></path>
                        <path d="M20.5037926,75.4912086 C26.3104785,78.7554232 33.017461,80.620155 40.1746725,80.620155 C62.09139,80.620155 80,62.5727186 80,40.4861041 C80,18.0474364 62.09139,1.42108547e-14 40.1746725,1.42108547e-14 C39.9412919,1.42108547e-14 39.7083901,0.00198270478 39.4759825,0.00593238922 L39.4759825,46.7878542 L20.5037926,75.4912086 Z" id="Oval" fill="url(#linearGradient-3)" mask="url(#mask-2)"></path>
                    </g>
                </g>
            </g>
        </g>
    </g>
</svg>