<?xml version="1.0" encoding="UTF-8"?>
<svg width="16px" height="16px" viewBox="0 0 16 16" version="1.1" xmlns="http://www.w3.org/2000/svg" xmlns:xlink="http://www.w3.org/1999/xlink">
    <!-- Generator: Sketch 46.2 (44496) - http://www.bohemiancoding.com/sketch -->
    <title>PI - Step - Active</title>
    <desc>Created with Sketch.</desc>
    <defs>
        <linearGradient x1="101.499999%" y1="-0.499999523%" x2="0.499999523%" y2="101.499999%" id="linearGradient-1">
            <stop stop-color="#26D0CE" offset="0%"></stop>
            <stop stop-color="#1A2980" offset="100%"></stop>
        </linearGradient>
        <path d="M26,12 C28.209139,12 30,10.209139 30,8 C30,5.790861 28.209139,4 26,4 C23.790861,4 22,5.790861 22,8 C22,10.209139 23.790861,12 26,12 Z" id="path-2"></path>
    </defs>
    <g id="design" stroke="none" stroke-width="1" fill="none" fill-rule="evenodd">
        <g id="3._체중기록" transform="translate(-282.000000, -342.000000)">
            <g id="Group-2" transform="translate(257.000000, 299.000000)">
                <g id="Progress-Indicator---Base" transform="translate(7.000000, 43.000000)">
                    <g id="PI---Step---Active">
                        <use fill="#FFFFFF" fill-rule="evenodd" xlink:href="#path-2"></use>
                        <path stroke="url(#linearGradient-1)" stroke-width="4" d="M26,14 C22.6862915,14 20,11.3137085 20,8 C20,4.6862915 22.6862915,2 26,2 C29.3137085,2 32,4.6862915 32,8 C32,11.3137085 29.3137085,14 26,14 Z"></path>
                    </g>
                </g>
            </g>
        </g>
    </g>
</svg>