<?xml version="1.0" encoding="UTF-8"?>
<svg width="16px" height="16px" viewBox="0 0 16 16" version="1.1" xmlns="http://www.w3.org/2000/svg" xmlns:xlink="http://www.w3.org/1999/xlink">
    <!-- Generator: Sketch 46.2 (44496) - http://www.bohemiancoding.com/sketch -->
    <title>PI - Step - Not Completed</title>
    <desc>Created with Sketch.</desc>
    <defs>
        <path d="M587,12 C589.209139,12 591,10.209139 591,8 C591,5.790861 589.209139,4 587,4 C584.790861,4 583,5.790861 583,8 C583,10.209139 584.790861,12 587,12 Z" id="path-1"></path>
    </defs>
    <g id="design" stroke="none" stroke-width="1" fill="none" fill-rule="evenodd">
        <g id="3._체중기록" transform="translate(-843.000000, -342.000000)">
            <g id="Group-2" transform="translate(257.000000, 299.000000)">
                <g id="Progress-Indicator---Base" transform="translate(7.000000, 43.000000)">
                    <g id="PI---Step---Not-Completed">
                        <use fill="#FFFFFF" fill-rule="evenodd" xlink:href="#path-1"></use>
                        <path stroke="#D8DDE6" stroke-width="4" d="M587,14 C583.686292,14 581,11.3137085 581,8 C581,4.6862915 583.686292,2 587,2 C590.313708,2 593,4.6862915 593,8 C593,11.3137085 590.313708,14 587,14 Z"></path>
                    </g>
                </g>
            </g>
        </g>
    </g>
</svg>