<?xml version="1.0" encoding="UTF-8"?>
<svg width="10px" height="12px" viewBox="0 0 10 12" version="1.1" xmlns="http://www.w3.org/2000/svg" xmlns:xlink="http://www.w3.org/1999/xlink">
    <!-- Generator: Sketch 46.2 (44496) - http://www.bohemiancoding.com/sketch -->
    <title>Mask</title>
    <desc>Created with Sketch.</desc>
    <defs>
        <path d="M0.807692308,4.81538462 L4.96153846,0.6 C5.14615385,0.415384615 5.45384615,0.415384615 5.63846154,0.6 L9.79230769,4.81538462 C9.97692308,5 9.97692308,5.30769231 9.79230769,5.49230769 L9.11538462,6.16923077 C8.93076923,6.35384615 8.62307692,6.35384615 8.43846154,6.16923077 L5.63846154,3.27692308 C5.45384615,3.09230769 5.14615385,3.09230769 4.96153846,3.27692308 L2.16153846,6.13846154 C1.97692308,6.32307692 1.66923077,6.32307692 1.48461538,6.13846154 L0.807692308,5.46153846 C0.653846154,5.27692308 0.653846154,5 0.807692308,4.81538462 L0.807692308,4.81538462 Z M0.807692308,10.3846154 L4.96153846,6.16923077 C5.14615385,5.98461538 5.45384615,5.98461538 5.63846154,6.16923077 L9.79230769,10.3846154 C9.97692308,10.5692308 9.97692308,10.8769231 9.79230769,11.0615385 L9.11538462,11.7384615 C8.93076923,11.9230769 8.62307692,11.9230769 8.43846154,11.7384615 L5.63846154,8.84615385 C5.45384615,8.66153846 5.14615385,8.66153846 4.96153846,8.84615385 L2.16153846,11.7076923 C1.97692308,11.8923077 1.66923077,11.8923077 1.48461538,11.7076923 L0.807692308,11.0307692 C0.653846154,10.8461538 0.653846154,10.5384615 0.807692308,10.3846154 L0.807692308,10.3846154 Z" id="path-1"></path>
    </defs>
    <g id="design" stroke="none" stroke-width="1" fill="none" fill-rule="evenodd">
        <g id="daily-weight" transform="translate(-244.000000, -238.000000)">
            <g id="Group" transform="translate(28.000000, 180.000000)">
                <g id="icons/utility/jump_to_top-copy-4" transform="translate(221.000000, 64.000000) scale(1, -1) translate(-221.000000, -64.000000) translate(216.000000, 58.000000)">
                    <mask id="mask-2" fill="white">
                        <use xlink:href="#path-1"></use>
                    </mask>
                    <use id="Mask" fill="#54698D" xlink:href="#path-1"></use>
                </g>
            </g>
        </g>
    </g>
</svg>