<?xml version="1.0" encoding="UTF-8"?>
<svg width="58px" height="87px" viewBox="0 0 58 87" version="1.1" xmlns="http://www.w3.org/2000/svg" xmlns:xlink="http://www.w3.org/1999/xlink">
    <!-- Generator: Sketch 47 (45396) - http://www.bohemiancoding.com/sketch -->
    <title>Page 1</title>
    <desc>Created with Sketch.</desc>
    <defs>
        <linearGradient x1="101.499999%" y1="-0.499999523%" x2="0.499999523%" y2="101.499999%" id="linearGradient-1">
            <stop stop-color="#26D0CE" offset="0%"></stop>
            <stop stop-color="#1A2980" offset="100%"></stop>
        </linearGradient>
    </defs>
    <g id="design" stroke="none" stroke-width="1" fill="none" fill-rule="evenodd">
        <g id="0.-first_intro" transform="translate(-1023.000000, -455.000000)" fill="url(#linearGradient-1)">
            <g id="Group-2" transform="translate(931.000000, 347.000000)">
                <g id="Page-1" transform="translate(121.000000, 151.500000) scale(-1, 1) translate(-121.000000, -151.500000) translate(92.000000, 107.000000)">
                    <g id="Group-3" transform="translate(0.000000, 0.070000)">
                        <path d="M56.2627,85.2051 C37.6807,83.1231 23.6327,76.2071 14.5077,64.6501 C4.6537,52.1701 0.8157,34.4391 3.4087,13.3741 C3.4807,12.7891 4.2197,12.3661 4.8727,12.4041 C5.5297,12.4301 5.5467,12.8431 5.5557,13.0421 C5.5557,13.0441 5.5567,13.0451 5.5567,13.0471 C5.5507,13.2281 5.5447,13.4081 5.5387,13.5891 C5.4587,16.0491 5.3837,18.3741 5.3837,19.2431 C5.3837,19.7951 5.8317,20.2431 6.3837,20.2431 C6.9357,20.2431 7.3837,19.7951 7.3837,19.2431 C7.3837,18.4061 7.4587,16.0971 7.5377,13.6541 C7.6227,11.0051 7.7117,8.2661 7.7117,7.1681 C7.7117,6.0801 8.3897,5.6931 8.9697,5.6931 C9.5667,5.6931 10.2057,6.0931 10.2057,7.2151 L10.2057,17.5651 C10.2057,18.1171 10.6537,18.5651 11.2057,18.5651 C11.7577,18.5651 12.2057,18.1171 12.2057,17.5651 L12.2057,7.2151 L12.2057,5.4541 C12.2057,5.3761 12.1787,5.3071 12.1607,5.2351 C12.1787,5.1621 12.2057,5.0931 12.2057,5.0151 C12.2057,4.0811 12.4587,3.5761 12.6717,3.3161 C13.3517,2.4841 14.7637,3.0411 14.7647,4.9041 L14.7647,16.5331 C14.7647,17.0851 15.2127,17.5331 15.7647,17.5331 C16.3167,17.5331 16.7647,17.0851 16.7647,16.5331 L16.7647,7.9541 C16.7647,7.3841 16.9017,6.9361 17.1587,6.6581 C17.4017,6.3981 17.6967,6.3431 17.9017,6.3431 C18.5537,6.3431 19.2127,6.8791 19.2127,7.9051 C19.2127,9.0511 19.2027,10.2891 19.1937,11.6351 C19.1727,14.4771 19.1487,17.9711 19.2017,22.1181 C16.0877,22.1081 12.8547,24.1031 9.5587,28.0971 C9.2067,28.5231 9.2677,29.1531 9.6937,29.5051 C9.8797,29.6591 10.1057,29.7341 10.3297,29.7341 C10.6167,29.7341 10.9037,29.6101 11.1017,29.3701 C14.7887,24.9021 18.2147,23.2801 21.2837,24.5431 C21.3247,24.5601 21.3667,24.5561 21.4077,24.5671 C21.4907,24.5891 21.5737,24.6151 21.6587,24.6161 C21.7297,24.6161 21.7967,24.5941 21.8657,24.5791 C21.9227,24.5671 21.9797,24.5661 22.0337,24.5441 C22.1267,24.5071 22.2057,24.4481 22.2837,24.3861 C22.3067,24.3661 22.3367,24.3591 22.3587,24.3381 C22.3617,24.3361 22.3637,24.3331 22.3667,24.3311 L22.3687,24.3281 C25.5697,21.2421 27.4387,20.6131 28.4327,20.6641 C28.6557,20.6711 28.8597,20.7101 29.0497,20.7831 L19.8927,30.5601 C19.8847,30.5681 19.8827,30.5801 19.8747,30.5881 C19.8257,30.6431 19.7957,30.7091 19.7607,30.7741 C19.7327,30.8251 19.6977,30.8711 19.6797,30.9251 C19.6597,30.9791 19.6597,31.0371 19.6527,31.0941 C19.6407,31.1671 19.6257,31.2371 19.6307,31.3101 C19.6317,31.3221 19.6267,31.3321 19.6277,31.3441 C21.8837,53.8001 33.7887,66.1161 56.0217,68.9961 C56.0657,69.0011 56.1087,69.0041 56.1517,69.0041 C56.6467,69.0041 57.0767,68.6371 57.1427,68.1331 C57.2127,67.5851 56.8257,67.0831 56.2797,67.0121 C35.2547,64.2891 23.9327,52.6981 21.6707,31.5901 L31.2777,21.3321 C31.6337,20.9511 31.6387,20.3601 31.2867,19.9751 C30.5277,19.1421 29.5897,18.7011 28.4987,18.6661 C26.5527,18.6041 24.2387,19.8631 21.4317,22.4751 C21.3577,22.4511 21.2827,22.4271 21.2077,22.4051 C21.1487,18.1411 21.1737,14.5541 21.1947,11.6511 C21.2047,10.2991 21.2137,9.0571 21.2137,7.9061 C21.2137,5.5931 19.5077,4.3441 17.9027,4.3441 C17.4917,4.3441 17.1007,4.4271 16.7377,4.5761 C16.5937,2.2131 14.9747,0.9301 13.4317,0.9301 C12.5347,0.9301 11.7157,1.3271 11.1247,2.0501 C10.7027,2.5641 10.4317,3.2271 10.2997,3.9891 C9.8887,3.8011 9.4407,3.6941 8.9697,3.6941 C7.3897,3.6941 5.7117,4.9121 5.7117,7.1691 C5.7117,7.8111 5.6797,9.0571 5.6357,10.5191 C5.4197,10.4601 5.1947,10.4171 4.9517,10.4071 C3.4267,10.3531 1.6387,11.3691 1.4227,13.1311 C-1.2373,34.7371 2.7437,52.9811 12.9377,65.8901 C22.4057,77.8821 36.9077,85.0491 56.0397,87.1941 C56.0767,87.1981 56.1147,87.2001 56.1517,87.2001 C56.6547,87.2001 57.0877,86.8221 57.1447,86.3101 C57.2077,85.7611 56.8117,85.2661 56.2627,85.2051" id="Fill-1"></path>
                    </g>
                </g>
            </g>
        </g>
    </g>
</svg>