<?xml version="1.0" encoding="UTF-8"?>
<svg width="34px" height="35px" viewBox="0 0 34 35" version="1.1" xmlns="http://www.w3.org/2000/svg" xmlns:xlink="http://www.w3.org/1999/xlink">
    <!-- Generator: Sketch 46.2 (44496) - http://www.bohemiancoding.com/sketch -->
    <title>run2</title>
    <desc>Created with Sketch.</desc>
    <defs>
        <linearGradient x1="101.499999%" y1="-0.499999523%" x2="0.499999523%" y2="101.499999%" id="linearGradient-1">
            <stop stop-color="#26D0CE" offset="0%"></stop>
            <stop stop-color="#1A2980" offset="100%"></stop>
        </linearGradient>
    </defs>
    <g id="design" stroke="none" stroke-width="1" fill="none" fill-rule="evenodd">
        <g id="3._체중기록" transform="translate(-563.000000, -305.000000)" fill-rule="nonzero" fill="url(#linearGradient-1)">
            <g id="run2" transform="translate(563.000000, 305.000000)">
                <g id="Group">
                    <path d="M25.594093,34.836175 C25.5822326,34.8357791 25.5703721,34.8357791 25.5581163,34.8349873 C25.5699767,34.8353832 25.5818372,34.8357791 25.594093,34.836175 Z" id="Shape"></path>
                    <path d="M7.93386047,9.25269711 C7.83937209,9.34731437 7.74132558,9.44747406 7.64406977,9.54525843 C7.87772093,9.32237342 8.11651163,9.11374038 8.36004651,8.91737987 C8.21732558,9.02506144 8.075,9.13511834 7.93386047,9.25269711 Z" id="Shape"></path>
                    <path d="M25.3181395,6.27601434 C25.399186,6.20237915 25.4746977,6.12359742 25.549814,6.04441979 C24.8433256,6.69882285 23.8988372,7.09471097 22.866186,7.09471097 C23.832814,7.09431508 24.6503953,6.797399 25.3181395,6.27601434 Z" id="Shape"></path>
                    <path d="M25.8277442,14.4154741 C25.7937442,14.4182453 25.7597442,14.4198288 25.7261395,14.4222042 C25.7601395,14.4198288 25.7941395,14.4182453 25.8277442,14.4154741 Z" id="Shape"></path>
                    <path d="M24.2008837,14.4008262 C24.1174651,14.3929084 24.0340465,14.3861783 23.9502326,14.3762811 C24.0336512,14.3861783 24.1170698,14.3933043 24.2008837,14.4008262 Z" id="Shape"></path>
                    <path d="M27.0268372,10.144633 C27.0173488,10.1541344 27.0086512,10.1596768 26.9991628,10.1668028 C27.1327907,10.1153373 27.2648372,10.0559541 27.396093,9.992612 C27.2735349,10.0496199 27.150186,10.1006895 27.0268372,10.144633 Z" id="Shape"></path>
                    <path d="M26.3962558,14.3513402 C26.384,14.3533196 26.3713488,14.3552991 26.359093,14.3568826 C26.3713488,14.3552991 26.384,14.3533196 26.3962558,14.3513402 Z" id="Shape"></path>
                    <path d="M21.6789535,9.47558212 C21.6042326,9.40115515 21.455186,9.32712407 21.3804651,9.32712407 C21.471,9.38056897 21.5603488,9.42570022 21.6504884,9.47558212 L21.6789535,9.47558212 Z" id="Shape"></path>
                    <path d="M30.2129535,12.8762611 C30.1836977,12.8956596 30.1536512,12.9134745 30.1243953,12.9324772 C30.1540465,12.9134745 30.1836977,12.8952637 30.2129535,12.8762611 Z" id="Shape"></path>
                    <path d="M6.28051163,11.0757619 C6.36195349,10.969268 6.4445814,10.8655453 6.52760465,10.7626144 C6.4437907,10.8651494 6.36195349,10.9696639 6.28051163,11.0757619 Z" id="Shape"></path>
                    <path d="M25.7996744,34.832612 C25.7945349,34.8330079 25.7893953,34.8330079 25.7838605,34.8334038 C25.789,34.8334038 25.7941395,34.8330079 25.7996744,34.832612 Z" id="Shape"></path>
                    <path d="M27.0268372,34.3979268 C27.0695349,34.3551709 27.1066977,34.3076644 27.1450465,34.2613454 C26.8722558,34.5103591 26.5314651,34.6889046 26.1677442,34.7763959 C26.4745349,34.7059278 26.7694651,34.5768683 27.0268372,34.3979268 Z" id="Shape"></path>
                    <path d="M19.8212093,21.8997389 C19.6800698,21.8055176 19.5298372,21.7112962 19.3764419,21.6170748 C19.5243023,21.7089209 19.6725581,21.803934 19.820814,21.9001348 L19.8212093,21.8997389 Z" id="Shape"></path>
                    <path d="M22.8851628,14.1914014 C22.6566512,14.1391442 22.4281395,14.0825322 22.1988372,14.0140435 C22.4281395,14.0821363 22.6570465,14.1399359 22.8851628,14.1914014 Z" id="Shape"></path>
                    <path d="M23.5616047,14.3208568 C23.4461628,14.3022501 23.3303256,14.2816639 23.2144884,14.2587024 C23.3303256,14.281268 23.4461628,14.3026459 23.5616047,14.3208568 Z" id="Shape"></path>
                    <path d="M25.4066977,34.8211312 C25.3825814,34.8179641 25.3580698,34.8159847 25.3339535,34.8120258 C25.3580698,34.8155888 25.3825814,34.8179641 25.4066977,34.8211312 Z" id="Shape"></path>
                    <path d="M26.017907,34.807671 C26.0107907,34.8088587 26.0040698,34.8096505 25.9969535,34.8108382 C26.0040698,34.8096505 26.011186,34.8088587 26.017907,34.807671 Z" id="Shape"></path>
                    <path d="M19.9690698,8.50842744 C17.3688605,6.94625293 14.7694419,6.50008702 12.391814,6.94625293 C12.391814,6.9573378 12.3870698,6.96446378 12.3843023,6.97277743 C14.7706279,6.47870906 17.3692558,6.96842266 19.9690698,8.50842744 Z" id="Shape"></path>
                    <path d="M30.3635814,7.29305092 C30.3161395,7.32393019 30.2686977,7.35599713 30.2228372,7.39162706 C30.1485116,7.46644992 30.074186,7.54166866 30.0002558,7.69052259 C30.1109535,7.53493856 30.233907,7.40469137 30.3635814,7.29305092 Z" id="Shape"></path>
                    <path d="M23.9071395,33.72848 C24.2222326,34.3595257 24.7199767,34.6904882 25.2580465,34.7965862 C24.727093,34.6873211 24.2297442,34.3539833 23.9071395,33.72848 Z" id="Shape"></path>
                    <path d="M20.3434651,0.14093617 C20.2924651,0.176961989 20.2406744,0.212196032 20.1920465,0.249805403 C20.078186,0.363821181 19.9718372,0.487338274 19.8698372,0.61441836 C20.0145349,0.444186469 20.1726744,0.285435333 20.3434651,0.14093617 Z" id="Shape"></path>
                    <path d="M31.1878837,12.1541611 C31.2258372,12.1201148 31.2610233,12.0832972 31.2985814,12.0488549 C31.2297907,12.1082381 31.162186,12.1715802 31.0926047,12.228984 C31.1242326,12.2028554 31.1562558,12.1798939 31.1878837,12.1541611 Z" id="Shape"></path>
                    <path d="M30.8870233,12.3897146 C30.7842326,12.4704757 30.6798605,12.5476739 30.5754884,12.6236844 C30.6802558,12.5484657 30.7838372,12.469684 30.8870233,12.3897146 Z" id="Shape"></path>
                    <path d="M27.4490698,9.96767105 C27.541186,9.92214392 27.632907,9.87622089 27.7234419,9.82475544 C27.6325116,9.87503323 27.5407907,9.92412336 27.4490698,9.96767105 Z" id="Shape"></path>
                    <path d="M30.3635814,7.29305092 C30.233907,7.40469137 30.1109535,7.53493856 30.0002558,7.69052259 C29.3048372,8.6564896 28.5406279,9.35998279 27.7238372,9.82475544 C27.6333023,9.87622089 27.541186,9.92214392 27.4494651,9.96767105 C27.4320698,9.97638059 27.4142791,9.98429835 27.3968837,9.99300789 C27.2656279,10.05635 27.1335814,10.1157332 26.9999535,10.1671987 C25.3663721,10.7938896 23.5493488,10.5282486 21.6512791,9.47597801 C21.5611395,9.4260961 21.4717907,9.38096486 21.3812558,9.32751996 C21.1586744,9.17866603 20.1924419,8.58285441 19.9698605,8.50842744 C17.3700465,6.96881855 14.7710233,6.47910495 12.385093,6.97277743 C10.9511628,7.26929763 9.59432558,7.92211714 8.36083721,8.91737987 C8.11730233,9.11374038 7.87851163,9.32237342 7.64486047,9.54525843 C7.25781395,9.91462204 6.88539535,10.3211991 6.52839535,10.7630103 C6.44537209,10.8659412 6.36234884,10.969268 6.28130233,11.0761578 C6.16190698,11.2329295 6.04369767,11.3932642 5.92825581,11.5583495 C4.44293023,13.6419087 7.93465116,15.650645 9.34683721,13.5682735 C11.203,10.9641214 13.507093,10.2198518 16.0337674,11.0381525 C14.7706279,13.3445967 13.581814,15.5758221 12.0209767,18.7013588 C10.385814,21.9001348 6.89488372,24.429464 3.47590698,22.4947588 C1.02553488,21.0074071 -1.12951163,24.578318 1.24811628,25.9920344 C5.92786047,28.6698217 11.3520465,27.0336161 14.1005116,23.5367363 C14.1748372,23.5367363 14.323093,23.6103715 14.3974186,23.6103715 C16.7007209,24.429464 19.6729535,26.5118355 20.5648605,27.2572929 C21.4555814,28.0003749 23.0156279,31.7949625 23.9079302,33.72848 C24.2301395,34.3539833 24.7278837,34.6873211 25.2588372,34.7965862 C25.2841395,34.8017327 25.3090465,34.807671 25.3343488,34.8120258 C25.3584651,34.8159847 25.3829767,34.8179641 25.407093,34.8211312 C25.4573023,34.8274655 25.507907,34.8322161 25.5585116,34.8349873 C25.5703721,34.8357791 25.5822326,34.8357791 25.5944884,34.836175 C25.6577442,34.8381544 25.721,34.8373627 25.7842558,34.8337997 C25.7893953,34.8334038 25.7945349,34.8334038 25.8000698,34.8330079 C25.866093,34.8286531 25.9321163,34.8215271 25.9977442,34.8108382 C26.0048605,34.8096505 26.0119767,34.8088587 26.0186977,34.807671 C26.0693023,34.7989615 26.1191163,34.7882725 26.1685349,34.7763959 C26.5322558,34.6889046 26.8730465,34.5103591 27.1458372,34.2613454 C27.7084186,33.7482744 27.9800233,32.939475 27.5486977,32.0174516 C26.5077442,29.8602572 24.7251163,25.5450767 23.3880465,24.429464 C22.5720465,23.8296935 21.1982093,22.7928625 19.8212093,21.9005307 C19.6729535,21.8043299 19.5246977,21.7093168 19.3768372,21.6174707 C19.0226047,21.396961 18.6723256,21.1903074 18.335093,21.0074071 C19.5982326,18.626536 20.8617674,16.3208836 22.1988372,14.0144394 C22.4281395,14.082928 22.6570465,14.13954 22.8851628,14.1917973 C22.9950698,14.2171341 23.1045814,14.2377203 23.2144884,14.2590983 C23.3303256,14.2816639 23.4461628,14.3026459 23.5616047,14.3212527 C23.6912791,14.3422348 23.8209535,14.3612374 23.9502326,14.376677 C24.0340465,14.3869701 24.1174651,14.3933043 24.2008837,14.4012221 C24.7148372,14.4499163 25.2236512,14.4566464 25.7261395,14.4226 C25.7601395,14.4202247 25.7941395,14.4186412 25.8277442,14.4158699 C26.0056512,14.401618 26.1827674,14.3822195 26.359093,14.3576744 C26.3713488,14.3560908 26.384,14.3537155 26.3962558,14.352132 C27.7044651,14.1640851 28.9585116,13.6894153 30.1243953,12.9328731 C30.1536512,12.9138704 30.1836977,12.8960555 30.2129535,12.8766569 C30.3347209,12.7958958 30.4553023,12.7111757 30.5754884,12.6240803 C30.6802558,12.5480698 30.7842326,12.4708716 30.8870233,12.3901104 C30.9554186,12.3362697 31.0246047,12.2848042 31.0926047,12.228984 C31.162186,12.1715802 31.2297907,12.1082381 31.2985814,12.0488549 C32.0556744,11.3948477 32.7676977,10.6161358 33.4172558,9.69886302 C34.7914884,7.77167966 31.9702791,5.91021372 30.3635814,7.29305092 Z" id="Shape"></path>
                    <path d="M22.8665314,8.32156825 C23.5984809,8.32156825 24.26794,8.04124095 24.7687033,7.57711545 C25.3131817,7.07258242 25.6581395,6.35085886 25.6581395,5.52671342 C25.6581395,3.99796149 24.3940415,2.73241979 22.8665314,2.73241979 C22.189226,2.73241979 21.5648832,2.98244145 21.0784114,3.39297083 C20.9573539,3.49539272 20.8449834,3.60763588 20.7424208,3.7288585 C20.3288078,4.21711627 20.0766047,4.8453974 20.0766047,5.52699402 C20.0766047,7.10934206 21.339862,8.32156825 22.8665314,8.32156825 Z" id="Shape"></path>
                </g>
            </g>
        </g>
    </g>
</svg>